<?xml version="1.0" encoding="UTF-8"?>
<svg id="Layer_1" data-name="Layer 1" xmlns="http://www.w3.org/2000/svg" version="1.1" viewBox="0 0 256 100">
  <defs>
    <style>
      .cls-1 {
        fill: #c02026;
      }

      .cls-1, .cls-2 {
        fill-rule: evenodd;
        stroke-width: 0px;
      }

      .cls-2 {
        fill: #fff;
      }
    </style>
  </defs>
  <g>
    <path class="cls-1" d="M30.33,28.68c.23,3.68.34,8.76-.23,12.39-3.2-.09-6.82-.87-9.36-.17,0,.34,0,.67-.02,1.01.34.95,1.82.52,2.77.56,2.37.09,5.43-.25,6.83.13.45,2.96,0,6.8.33,9.87-3.3.42-6.99.08-9.87.33-.19,4.38-.2,12.51-.08,18.21-.1,1.1,2.67.73,1.74,1.8-.72,1.38-3.35.62-5.32.66-3.67.07-8.16.51-11.13-.2-.38-1.51.83-1.37,1.05-2.26.15-14.78.09-28.66,0-41.73,5.77-.96,12.76-.23,19.23-.41,1.39-.04,2.72-.43,4.05-.18h0Z"/>
    <path class="cls-1" d="M42.95,29.92c1.89,2.39.59,6.11-2.16,7.3-4.82,2.08-12.4-3.35-7.46-7.22,2.3-1.8,6.86-1.37,9.61-.08h.01Z"/>
    <path class="cls-1" d="M119.88,28.29c-.2,4.06.13,9.43-.2,10.87-1.42-.22-3.06.05-5.06-.09-.61,3.11,0,6.43-.42,9.1.31,1.35,1.56,1.81,1.45,3.57-4.34.17-9.75.51-13.91,0-.24-1.62,1.12-1.59,1.31-2.76.26-3.48-.2-6.26-.08-9.61-2.16-.21-3.51-.19-5.56-.1-.44-3.09-.07-7.89-.06-10.63,7.2-.43,14.99-.25,22.52-.35h0Z"/>
    <path class="cls-1" d="M95.83,29.11c-.05,2.95.33,5.48.1,8.6-3.2.83-8.26-1.2-10.89.56.86.96,2.46.58,3.53.57,4.22-.02,8.47-.23,8.77,4.46.5,7.64-8.77,10.11-16.35,9.06-1.98-.27-4.11-1.17-5.01-2.62.14-2.38-.06-4.87.12-6.57,2.9-.06,7.99.99,10.88-.31-2-1.9-5.85-.08-8.34-.66-3.61-.84-3.62-6.11-1.6-9.14,3-4.5,11.64-4.79,18.79-3.96h0Z"/>
    <path class="cls-1" d="M68.75,43.79c1.14,2.32,2.69,4.6,4.69,6.16.76.59,2.28.54,2.5,1.82-4.15.87-8.44.32-12.91.52-2.38-1.34-2.75-4.64-5.46-5.67-.62.54-.41,1.87-.05,2.78.43,1.11,2.08,1.45,1.48,2.3-1.22,1.4-4.24.58-6.59.64-4.41.11-10.74.25-16.19.21-1.64-.01-3.5.33-4.8-.34-.6-.81.85-1.22.8-2.26-.13-4.56.12-7.26-.03-12.14,1.31-.41,2.21.85,3.77,1.08,2.81.42,5.35-.81,7.61-1.38.71,4.45-.64,10.12.77,13.42,1.99-.05,1.34-2.59,1.34-4.02,0-4.37-.12-9.36,0-14.17,3.96-1.88,11.4-4.34,18.03-3.72,4.86.46,11.02,3.21,10.47,8.54-.34,3.28-3.26,4.3-5.42,6.22h-.01ZM56.94,39.79c1.27,1.21,5.65,1.69,6.83.12.11-.61-.45-.56-.23-1.27-1.66-.71-6.37-1.23-6.6,1.14h0Z"/>
  </g>
  <g>
    <path class="cls-1" d="M197.18,25.23c3.56,0,6.32,1.5,6.24,4.67-.08,3.04-3.08,4.69-6.16,4.69-2.77,0-6.59-1.28-7.01-3.92-.69-4.3,3.25-5.44,6.93-5.44Z"/>
    <path class="cls-1" d="M202.07,34.18c.29-.04.45.06.5.26-.27,4.07.22,7.41.05,11.38.16.76,1.69.2,1.75,1.04,0,.67-.02,1.35-.04,2.02-5.06-.09-9.69.25-14.92-.02-.43-.58-.09-1.9-.46-2.54,1,0,1.48-.53,2.29-.72.16-4.59-.22-6.55-.05-11.38,1.37-.19,2.32,1.5,4.01,1.84,2.66.54,5.91.08,6.86-1.9v.02Z"/>
    <path class="cls-1" d="M149.5,31.7c-2.49.25-4.37,1.14-5.61,2.68,2.88,2.1,7.88,3.35,11.79,5.27,2.79,1.37,4.86,2.56,4.43,6.91,2.17-.49,1.14-3.26,1.1-4.79-.11-3.99.08-8.51-.03-12.39,6.84-4.45,21.94-7.28,27.06.24,5.81,8.52-4.54,18.6-15.95,14.63-1.07,3.15,2.92,1.73,1.69,4.33-.64.96-2.53.4-4.06.43-3.04.07-6.21.31-9.87.07-1.04,1.46-1.86,4.34-3.65,6-3.73,3.46-13.8,6.22-19.83,5.46-3.61-.46-6.2-1.97-7.5-4.69-.51-1.07-1.73-2.78-.93-4.57.84-.89,2.85-.94,4.32-1.19,4.21-.7,9.7-1,13.45-2.54-1.43-1.8-4.54-1.9-7.03-2.91-.5-.2-1.02-.84-1.5-1.04-1.62-.68-3.56-.98-5.02-2.11-2.11-3.21-3.01-9.98-1.03-13.17,1.3-2.09,6.87-4.7,9.72-6.15,4.11-2.09,7.59-4.15,11.21-4.35,3.99-.22,5.58,2.59,6.98,5.44,1.57,3.18,1.76,6.02-.41,8.59-1.17,1.38-4.23,4.02-5.38,3.95-2.25-.13-2-3.19-3.97-4.12l.02.02ZM171.69,35.64c.88,1.81,8.04,2.32,8.6-.09-.41-1.82-8.75-2.26-8.6.09Z"/>
    <path class="cls-1" d="M224.19,29.66c-.25,2.53.08,5.08-.33,7.35-3.03-.75-5.72-1.76-9.02-.67-1.01,1.73-1.09,2.94-.33,4.01,1.99,2.82,8.61-.11,11.02-.67-1.1,2.13-.14,4.49-1,6.35-1.12,2.4-5.51,3.71-8.35,3.67-5.38-.08-10.96-4.23-11.69-9.35-1.42-10.04,10.31-17.35,19.71-10.69h0Z"/>
    <path class="cls-1" d="M246.96,28.99c-.09,2.85-.19,5.67-.24,7.93-2.46.83-7.08-.5-9.14.72.63,1.43,3.42.78,5.53.96,2.3.2,5.43-.7,6.97.72-.49,2.05-3.46,1.17-5.05,1.2-2.76.06-5.45-.16-7.45.48,1.01,1.75,4.47.87,6.49.96,1.45.07,2.88.26,4.09.48-.26,1.23-1.51,1.05-1.92,2.4-.38,1.26.27,2.82,0,4.57-4.06.59-8.54.14-12.74,0-2.8-.09-5.89.59-7.93-.48-.28-1.48,1.14-1.27,1.92-1.68.4-5.44.46-12.7.48-18.51-.04-.2.09-.23.24-.24,5.87-.42,13.15-.17,18.75.48h0Z"/>
  </g>
  <path class="cls-2" d="M98.86,48.11c-4.77,6.44-9.55,13.29-13.9,20.33-1.44,2.33-2.45,5.03-4.55,6.87-1.51-2.43.57-5.21,1.51-7.48,2.92-7.07,6.33-15.06,8.97-22.64-6.98,10.48-13.34,22.35-20.49,33.28-.96,1.48-2.18,3.45-4.47,2.42.96-.4.56-1.22,1.43-2.75,1.67-2.95,4.22-6.17,6.25-9.34,6.58-10.33,13.31-21.04,19.64-31.9.57-.99,1.23-2.17,1.99-3.3.66-.99.73-3.01,2.8-2.17-1.49,5.21-3.51,10.67-5.53,16.03-2.01,5.29-4.4,10.41-6.36,15.46,2.26-2.21,3.51-5.4,5.39-8.24,4.49-6.78,9.51-13.62,14.19-20.6.86-1.29,1.64-3.21,3.38-3.56.74,1.71-.99,3.9-2.04,5.8-1.06,1.91-2.15,3.81-3.14,5.79-1.96,3.89-3.65,7.95-5.46,12.14-2.69,6.2-4.96,12.19-7.26,19.33-.33,1.02-.52,2.49-.89,3.6-.28.83-.26,2.5-1.7,2.47-1.2-1.18-.19-2.98.08-4.17,2.06-9.45,5.89-18.52,9.86-26.24v-.56c.06-.22.28-.27.28-.56v-.02Z"/>
  <path class="cls-2" d="M161.84,47.6c.48-1.45,2.85-2.42,2.57-4.41-.09-.61-.59-1.17-1.35-1.69-3.76,1.63-7.46,5.48-10.67,9.54-1.06,1.33-2.06,2.72-3.12,4.39-1.25,1.98-3.58,5.41-4.56,7.98-1.01,2.65-1.72,6.11-.15,8.34,3.34-.22,5.22-2.07,6.98-4.04,1.63-1.83,2.39-5.34,5.62-5.46.04,1.68-1.7,3.65-3.14,5.5-2.63,3.39-8.99,10.29-12.49,3.39.14-1.58-.15-3.98.39-6.11,1.09-4.3,4.85-10.05,8-14.32,1.55-2.1,3.31-4.17,5.08-6.02,2.2-2.3,5.43-5.41,8.1-5.14,4.43.45,3.76,9.17-1.25,8.04v-.02Z"/>
  <path class="cls-2" d="M238.08,46.5c-.62.77-1.86.89-2.78,1.35-2.33,2.19-3.83,5.26-5.39,8.24.95.7,1.42-1.52,3.05-1.05.59,2.69-2.76,3.46-4.77,4.36-2.03,3.13-4.59,9.39-7.4,12.11-.72.69-3.78,1.7-5.27,1.02-2.97-1.38-2.06-9.07,2.63-7.74-.42,2.2-3.01,2.14-2.58,5.24-.09.64.8.32.81.85,1.93.24,3.61-1.3,4.47-2.42,1.79-2.36,3.03-5.7,4.57-8.26-1.16-1.82-3.58-1.94-3.79-4.52-.57-7.02,10.57-9.8,15.95-11.11.22.6.69.96.52,1.96v-.02ZM224.15,53.47c-.29,2.37.32,3.89,2.13,4.22,1.92-2.81,3.51-5.96,5.41-8.8-3.39.61-5.77,2.29-7.54,4.59h0Z"/>
  <path class="cls-2" d="M106.17,56.3c1.04,1.58.29,4.13-2.27,3.58-.99-1.51-.3-4.13,2.27-3.58Z"/>
  <path class="cls-2" d="M119.14,56.82c2.08.35.99,4.23-1.44,3.31-.72-1.33.11-3.2,1.44-3.31Z"/>
  <path class="cls-2" d="M246.63,62.5c.02,1.25.01,2.47-.88,2.76-1.28.24-1.13-.91-1.63-1.42-2.54,1.41-4.75,3.15-5.09,6.86,2.15,2.23,3.24-2.23,5.27-1.02-.34,2.94-5.19,4.46-6.94,1.82-1.22.25-1.52,1.43-3.06,1.33-3.87-2.67,1.42-6.08,2.1-9.14-3.1.71-4.27,3.8-5.92,6.57-.68,1.15-1.2,3.35-3.35,2.16,1.02-3.19,3.68-4.65,4.29-8.27-1.96.21-2.85,2.79-4.22,4.65-1.27,1.72-2.83,4.17-5.04,3.8-.56-1.62,1.17-1.83,1.98-2.74,2.31-2.57,3.53-6.99,7.05-8.22,1.35-.13,1.27,1.13,2.18,1.43.99-.67,1.72-1.59,3.61-1.32,0,.27.34.22.55.28,1.83,3.64-2.26,5.41-2.64,8.57,2.5.06,3.1-3.86,5.08-6.02,1.68-1.83,4.71-4.02,6.66-2.1h.01Z"/>
  <path class="cls-2" d="M183.41,61.06c.9-.06,1.33.35,1.36,1.13.55-.54,1.58-.14,2.2.05.23.94.74,1.64.49,3.07,1.49-1.44,4.96-4.39,8.62-2.91-1.36,3.01-3.45,5.28-4.57,8.54,3.34-1.29,4.26-11.62,9.53-7.89,1.44-.39,2.81-1.32,3.87.07-.05,3.83-2.91,4.7-3.46,8,2.63-.76,3.24-3.48,4.81-6.04.79-1.26,1.4-3.45,3.38-3.27-.01,2.85-2.98,4.98-3.47,8.28,1.86-.57,2.81-2.74,3.95-4.38,1.06-1.54,1.82-4.32,4.21-3.54-2.74,4.94-6.02,9.67-8.83,14.86-.86,1.57-1.25,3.85-3.12,4.67-1.31-3.37,2.4-5.85,3.47-8.56-1.57-1.12-2.59-.97-4.96-.37-.26-.38-.73-.57-1.09-.85-.23-3.83,2.47-4.59,3.18-7.45-2.18.31-3.1,3.3-4.53,5.76-.59,1.02-1.28,2.76-2.8,2.44-.2-2.96,2.79-5,3.46-8.01-3.34,1.5-3.69,6.66-7.33,8.21-.82-.12-1.4-.47-1.92-.86-1.11.54-2.56,1.58-4.15.76-.32-.79-.27-1.93-.22-3.07-1.31,1.48-3.72,4.68-6.12,2.39-2.16,1.76-2.29,6.99-5.91,6.3-.13-1.7,1.92-3.43,2.58-5.23-.49-.91-1.68.56-2.2-.32-.23-.22-.15-.77-.54-.84.35-3.51,3.04-4.57,3.73-7.72-2.7.72-4.09,3.51-5.63,6.02-.73,1.18-1.25,3.41-3.08,2.73.76-3.26,2.93-5.06,4.01-8-3.8,1.42-4.48,6.08-7.06,8.78-.87.12-.72-.76-1.36-.86,1.06-2.96,3.18-4.81,4.01-8-1.33.5-1.85,1.84-3.35,2.16-1.72,2.93-3.35,5.94-7.04,6.83-6.53-2.06.4-12.43,6.29-11.56.52.59.76,1.44,1.07,2.24,1.51-.59,2.16-2.09,3.9-2.43,1.01,1.1,2.77.96,3.6-.21,1.28-.31,1.18,1.36,1.91,1.43.86.08,1.58-1.87,3.07-1.89,4.34,2.36-.77,6.22-1.55,9.15,3.75-.8,5.62-6.04,7.62-9.59h-.02ZM180.75,71.03c3.08-.84,4.32-3.61,5.09-6.86-2.7-.05-5.18,3.99-5.09,6.86ZM187.65,70.88c2.92,0,3.73-4.58,5.37-6.85-3.32.7-4.64,3.46-5.37,6.85ZM163.18,64.87c.34-.83-1.14-1.22-1.37-.58.64.13.73,1.24,1.37.58ZM156.98,71.7c2.66-.52,3.98-2.46,5.05-4.64-.55-.65-1.06-1.33-1.34-2.26-1.48,2.04-3.59,3.43-3.72,6.89h0Z"/>
  <path class="cls-2" d="M138.92,62.47c-1.22,3.74-3.47,7.54-5.44,11.03-.9,1.58-2.18,3.34-3.13,4.95-.79,1.32-1.62,4.59-3.93,3.54.93-3.19,2.81-5.36,4.29-7.98-.97-.51-2.06-.91-2.73-1.72-.99.67-1.72,1.59-3.61,1.32-2.59-3.64,2.13-6.01,2.38-9.41-3.03,1.38-3.99,4.96-5.93,7.68-.56.78-1.29,2.17-2.52,1.9-.08-3.7,3.87-5.57,4.32-9.65-2.12.58-2.91,3.08-4.23,4.93-1.13,1.58-2.85,4.1-4.5,4.37-1.38.22-1.74-.83-2.74-.89-1.23-.07-1.71,1.32-3.33.77-.49-.71-.91-1.48-.77-2.8-2.31.14-2.43,3.76-4.75,2.96.66-3.96,5.5-5.01,5.68-8.52-3.06.27-5.29,9.27-9.55,8.44-1-.2-1.31-.47-1.63-1.7-1.24.73-2.52,2.46-4.44,1.58.28-1.54,2.03-1.84,3.08-2.73.89-.74,2.08-1.81,2.81-2.73,1.49-1.84,1.85-4.84,3.96-5.49,1.69,1.24-.33,2.94-1.17,4.15-.99,1.41-2.1,2.99-2.57,4.41,4.35-.14,4.63-7.94,9.81-8.44.93.11,1.09.96,1.35,1.69,1.64-.46,1.98-2.28,3.9-2.43.42,4.07-6.48,4.32-4.6,9.93.95-.33,1.88-.83,2.51-1.62,1.83-2.27,2.12-6.58,5.11-7.69,1.18,3.5-3.13,5.67-3.48,9.39,4.6-1.81,4.44-8.57,9.57-9.84.93.11,1.08.96,1.35,1.69,1.47-.3,2.06-1.72,3.88-1.04,3.8,1.43-1.96,6.5-2.37,8.86.56.84,1.14-.69,1.95-.52,1.04-4.19,3.28-7.15,6.79-8.78,2.05-.38,2.91,1.31,3.87-.21.36.11.42.5.82.57v.04ZM129.91,71.76c2.01.35,3.12-1.8,3.93-2.99.88-1.32,2.15-3.12,1.74-4.7-3.3.98-5.86,3.97-5.66,7.69h0Z"/>
  <path class="cls-2" d="M246.86,70.48c0,.27.33.22.54.3.05,2.13-.84,3.27-2.27,3.85-.42-1.37.2-3.89,1.74-4.13h0Z"/>
</svg>