<?xml version="1.0" encoding="utf-8"?>
<!-- Generator: Adobe Illustrator 28.5.0, SVG Export Plug-In . SVG Version: 9.03 Build 54727)  -->
<svg version="1.1" baseProfile="tiny" id="Layer_1" xmlns="http://www.w3.org/2000/svg" xmlns:xlink="http://www.w3.org/1999/xlink"
	 x="0px" y="0px" viewBox="0 0 306 128" overflow="visible" xml:space="preserve">
<path fill-rule="evenodd" fill="#FFFFFF" d="M158.83,89.63c0.51-1.52,3-2.53,2.7-4.6c-0.09-0.65-0.61-1.22-1.42-1.77
	c-3.96,1.7-7.85,5.73-11.23,9.96c-1.11,1.39-2.17,2.84-3.28,4.59c-1.32,2.08-3.76,5.66-4.8,8.34c-1.07,2.76-1.81,6.38-0.16,8.71
	c3.52-0.23,5.49-2.16,7.34-4.22c1.72-1.91,2.51-5.58,5.91-5.7c0.04,1.75-1.79,3.82-3.3,5.75c-2.76,3.53-9.47,10.74-13.14,3.54
	c0.14-1.65-0.16-4.15,0.41-6.39c1.14-4.5,5.11-10.5,8.41-14.96c1.63-2.19,3.48-4.36,5.34-6.29c2.32-2.41,5.71-5.65,8.53-5.37
	c4.67,0.47,3.96,9.58-1.32,8.4L158.83,89.63L158.83,89.63z"/>
<path fill-rule="evenodd" fill="#FFFFFF" d="M239.05,88.48c-0.65,0.8-1.97,0.92-2.93,1.4c-2.46,2.28-4.03,5.49-5.68,8.61
	c1,0.73,1.5-1.59,3.21-1.1c0.62,2.82-2.9,3.62-5.02,4.56c-2.14,3.27-4.82,9.81-7.79,12.64c-0.75,0.71-3.98,1.78-5.54,1.06
	c-3.12-1.44-2.17-9.48,2.76-8.09c-0.45,2.3-3.17,2.23-2.71,5.47c-0.1,0.67,0.83,0.34,0.85,0.89c2.03,0.25,3.8-1.35,4.7-2.53
	c1.89-2.47,3.19-5.95,4.81-8.63c-1.22-1.9-3.76-2.03-3.98-4.72c-0.6-7.33,11.12-10.24,16.77-11.6
	C238.73,87.07,239.23,87.44,239.05,88.48L239.05,88.48L239.05,88.48z M224.39,95.77c-0.31,2.48,0.33,4.06,2.24,4.4
	c2.03-2.93,3.69-6.23,5.69-9.2C228.76,91.61,226.25,93.36,224.39,95.77L224.39,95.77L224.39,95.77z"/>
<path fill-rule="evenodd" fill="#FFFFFF" d="M100.26,98.73c1.1,1.66,0.31,4.31-2.39,3.73C96.83,100.88,97.55,98.14,100.26,98.73z"/>
<path fill-rule="evenodd" fill="#FFFFFF" d="M113.91,99.27c2.19,0.37,1.03,4.42-1.52,3.46C111.64,101.33,112.5,99.39,113.91,99.27z"
	/>
<path fill-rule="evenodd" fill="#FFFFFF" d="M248.05,105.21c0.02,1.31,0.02,2.58-0.93,2.89c-1.34,0.25-1.18-0.95-1.72-1.48
	c-2.67,1.47-5,3.29-5.36,7.17c2.26,2.33,3.4-2.33,5.54-1.06c-0.36,3.08-5.47,4.67-7.3,1.9c-1.28,0.25-1.6,1.49-3.22,1.39
	c-4.07-2.79,1.5-6.35,2.21-9.55c-3.26,0.74-4.49,3.97-6.23,6.86c-0.72,1.2-1.26,3.51-3.53,2.26c1.07-3.33,3.88-4.85,4.52-8.63
	c-2.06,0.22-3,2.91-4.45,4.86c-1.33,1.8-2.98,4.36-5.3,3.97c-0.59-1.69,1.23-1.91,2.09-2.87c2.43-2.69,3.72-7.3,7.42-8.58
	c1.42-0.13,1.34,1.18,2.3,1.49c1.03-0.7,1.82-1.66,3.8-1.38c0,0.28,0.35,0.23,0.58,0.3c1.92,3.8-2.39,5.65-2.78,8.96
	c2.63,0.06,3.25-4.03,5.35-6.3C242.81,105.49,246,103.22,248.05,105.21L248.05,105.21L248.05,105.21z"/>
<path fill-rule="evenodd" fill="#FFFFFF" d="M181.53,103.7c0.95-0.06,1.39,0.37,1.43,1.19c0.58-0.56,1.66-0.15,2.32,0.04
	c0.25,0.99,0.78,1.72,0.52,3.2c1.57-1.5,5.21-4.59,9.07-3.03c-1.44,3.15-3.63,5.51-4.81,8.92c3.52-1.35,4.48-12.14,10.03-8.24
	c1.52-0.41,2.96-1.38,4.07,0.07c-0.04,4-3.06,4.91-3.64,8.36c2.77-0.79,3.41-3.64,5.06-6.3c0.82-1.32,1.46-3.6,3.55-3.42
	c0,2.97-3.14,5.21-3.64,8.65c1.96-0.59,2.96-2.86,4.15-4.57c1.12-1.6,1.92-4.52,4.43-3.7c-2.88,5.16-6.33,10.11-9.29,15.52
	c-0.9,1.64-1.32,4.02-3.29,4.88c-1.39-3.51,2.53-6.11,3.65-8.94c-1.65-1.17-2.73-1.01-5.22-0.39c-0.28-0.4-0.76-0.59-1.14-0.89
	c-0.24-4,2.6-4.79,3.34-7.78c-2.29,0.32-3.25,3.44-4.76,6.02c-0.62,1.06-1.35,2.89-2.95,2.56c-0.21-3.1,2.94-5.22,3.64-8.36
	c-3.52,1.57-3.89,6.95-7.71,8.58c-0.86-0.12-1.47-0.49-2.02-0.91c-1.17,0.56-2.7,1.65-4.37,0.79c-0.33-0.82-0.28-2.01-0.23-3.2
	c-1.39,1.54-3.92,4.88-6.44,2.5c-2.26,1.84-2.41,7.31-6.22,6.57c-0.14-1.78,2.02-3.58,2.71-5.47c-0.51-0.96-1.76,0.58-2.32-0.33
	c-0.24-0.24-0.16-0.8-0.56-0.88c0.37-3.66,3.19-4.78,3.92-8.07c-2.84,0.75-4.3,3.66-5.92,6.29c-0.76,1.23-1.32,3.57-3.25,2.85
	c0.8-3.41,3.09-5.28,4.22-8.35c-4,1.48-4.71,6.36-7.43,9.16c-0.91,0.12-0.75-0.79-1.43-0.9c1.11-3.09,3.34-5.02,4.22-8.35
	c-1.4,0.52-1.95,1.92-3.53,2.26c-1.81,3.06-3.53,6.21-7.4,7.13c-6.87-2.15,0.42-12.98,6.62-12.08c0.54,0.62,0.81,1.5,1.12,2.34
	c1.59-0.62,2.27-2.18,4.11-2.54c1.06,1.15,2.92,1,3.78-0.22c1.34-0.32,1.25,1.42,2.01,1.49c0.9,0.08,1.67-1.95,3.23-1.98
	c4.57,2.47-0.81,6.5-1.63,9.56c3.94-0.84,5.9-6.31,8.03-10.02h-0.03V103.7z M178.73,114.11c3.24-0.88,4.54-3.77,5.36-7.16
	C181.25,106.9,178.64,111.12,178.73,114.11z M185.99,113.95c3.07,0,3.92-4.79,5.65-7.16C188.15,107.51,186.76,110.41,185.99,113.95z
	 M160.25,107.67c0.36-0.86-1.2-1.27-1.44-0.61C159.49,107.2,159.57,108.36,160.25,107.67z M153.72,114.82
	c2.8-0.55,4.18-2.57,5.32-4.84c-0.58-0.67-1.11-1.4-1.41-2.35C156.08,109.77,153.85,111.21,153.72,114.82z"/>
<path fill-rule="evenodd" fill="#FFFFFF" d="M134.72,105.17c-1.28,3.91-3.65,7.87-5.73,11.52c-0.95,1.66-2.29,3.49-3.29,5.17
	c-0.82,1.38-1.71,4.79-4.13,3.7c0.98-3.33,2.96-5.61,4.51-8.34c-1.02-0.54-2.17-0.96-2.87-1.8c-1.04,0.7-1.82,1.66-3.8,1.39
	c-2.72-3.79,2.24-6.28,2.5-9.83c-3.18,1.45-4.19,5.19-6.25,8.02c-0.59,0.81-1.36,2.28-2.65,1.99c-0.09-3.86,4.08-5.82,4.54-10.09
	c-2.24,0.6-3.07,3.22-4.45,5.15c-1.19,1.65-3,4.29-4.73,4.56c-1.46,0.23-1.82-0.87-2.89-0.92c-1.3-0.07-1.8,1.38-3.5,0.81
	c-0.51-0.74-0.97-1.54-0.82-2.92c-2.43,0.15-2.55,3.92-5,3.1c0.69-4.14,5.78-5.23,5.97-8.9c-3.22,0.29-5.56,9.69-10.04,8.82
	c-1.05-0.2-1.38-0.5-1.71-1.77c-1.31,0.77-2.65,2.56-4.68,1.66c0.3-1.61,2.13-1.92,3.25-2.85c0.94-0.78,2.18-1.89,2.96-2.85
	c1.56-1.93,1.95-5.06,4.17-5.73c1.78,1.29-0.35,3.07-1.24,4.33c-1.03,1.47-2.2,3.12-2.7,4.6c4.58-0.15,4.87-8.29,10.33-8.82
	c0.97,0.11,1.14,0.99,1.42,1.77c1.73-0.48,2.08-2.38,4.11-2.54c0.44,4.26-6.83,4.51-4.84,10.37c1-0.35,1.97-0.86,2.64-1.69
	c1.92-2.37,2.24-6.87,5.38-8.04c1.25,3.65-3.3,5.92-3.67,9.81c4.83-1.89,4.68-8.96,10.07-10.28c0.97,0.11,1.14,0.99,1.42,1.77
	c1.54-0.31,2.17-1.8,4.09-1.09c4,1.49-2.06,6.78-2.49,9.25c0.59,0.88,1.2-0.71,2.05-0.55c1.1-4.39,3.45-7.47,7.14-9.17
	c2.16-0.39,3.06,1.36,4.07-0.22c0.38,0.11,0.45,0.52,0.86,0.6l0,0L134.72,105.17z M125.25,114.88c2.11,0.37,3.29-1.88,4.13-3.12
	c0.93-1.38,2.26-3.26,1.83-4.91C127.75,107.87,125.04,111,125.25,114.88z"/>
<path fill-rule="evenodd" fill="#FFFFFF" d="M247.41,113.53c0,0.28,0.35,0.23,0.57,0.3c0.05,2.22-0.89,3.41-2.4,4.02
	C245.14,116.41,245.79,113.79,247.41,113.53L247.41,113.53L247.41,113.53z"/>
<g>
	<path fill-rule="evenodd" fill="#FFFFFF" d="M92.57,90.16c-5.02,6.72-10.04,13.88-14.63,21.23c-1.51,2.43-2.58,5.25-4.78,7.18
		c-1.6-2.54,0.61-5.45,1.6-7.81c3.07-7.39,6.66-15.73,9.44-23.66c-7.35,10.94-14.05,23.34-21.55,34.77c-1.01,1.54-2.3,3.6-4.7,2.53
		c1.01-0.43,0.59-1.27,1.51-2.88c1.75-3.09,4.44-6.44,6.57-9.76c6.92-10.8,14.01-21.97,20.66-33.33c0.61-1.04,1.3-2.27,2.1-3.45
		c0.7-1.03,0.77-3.15,2.95-2.27c-1.57,5.44-3.69,11.15-5.83,16.75c-2.11,5.52-4.63,10.87-6.69,16.15c2.38-2.3,3.69-5.64,5.68-8.61
		c4.73-7.08,10.01-14.23,14.92-21.52c0.9-1.34,1.73-3.36,3.55-3.71c0.77,1.79-1.04,4.07-2.14,6.06c-1.11,2-2.26,3.99-3.31,6.04
		c-2.06,4.07-3.84,8.31-5.75,12.68c-2.83,6.48-5.22,12.73-7.63,20.2c-0.34,1.06-0.55,2.6-0.94,3.76c-0.29,0.87-0.27,2.61-1.79,2.58
		c-1.26-1.23-0.2-3.11,0.08-4.36c2.18-9.87,6.19-19.35,10.38-27.41c0-0.2,0-0.39,0.01-0.58c0.06-0.23,0.3-0.28,0.3-0.57L92.57,90.16
		L92.57,90.16z"/>
	<g>
		<g>
			<path fill="none" stroke="#FFFFFF" stroke-width="0.25" stroke-miterlimit="10" d="M160.15,73.3c0,0-1.63-0.24-1.55-1.06
				l0.08-55.04h-17.91c0,0,0.33,2.77-5.37,3.18v4.15h5.29v47.55c0,0,0.08,1.06-0.89,1.14h-4.4v5.37h28.25V73.3H160.15z"/>
			<path fill="none" stroke="#FFFFFF" stroke-width="0.25" stroke-miterlimit="10" d="M150.37,27.91c0,0,1.25-2.84-3.88-2.87
				c0,0-0.67,1.04,1.1,2.35c0,0,0.67,0.46,1.65,0.52c0,0,0.73,0.24,1.31,1.19c0,0-3.79-0.64-4.06,0.7c0,0,3.21-0.12,4.34,1.04
				c0,0,0.55,1.19,0.03,4.18c0,0-1.07-1.74-3.54-2.93c0,0-2.2-0.95-2.96,0.4c0,0,0.18,0.15,0.46-0.06c0.27-0.21,1.5-0.43,2.53,0.06
				c1.04,0.49,3.51,2.29,3.54,3.97c0,0,0.06,3.02-0.55,4.61c0,0,0.37,0.43,0.46,0.58c0.22-1.23,0.46-2.48,0.49-3.73
				c0.03-1.06-0.09-2.02,0.29-3.04c0.16-0.45,0.45-1.12,0.83-1.43c0,0,0.73-0.61,1.1-0.83c0.37-0.21,0.03-0.52-0.58-0.33
				c-0.61,0.18-1.1,0.43-1.37,1.5c0,0-0.16-0.83-0.03-1.71c0.12-0.82,0.06-1.53-0.21-2.18c-0.2-0.48-1.19-1.42-0.95-1.98l0,0V27.91z
				"/>
			<path fill="none" stroke="#FFFFFF" stroke-width="0.25" stroke-miterlimit="10" d="M152.51,27.36c0,0,0.28,1.83-0.7,2.53
				l-0.52-0.79C151.29,29.1,150.68,28.58,152.51,27.36z"/>
			<path fill="none" stroke="#FFFFFF" stroke-width="0.25" stroke-miterlimit="10" d="M149.45,28.46c0,0-1.86-0.34-2.44-1.04
				s-1.1-1.16-2.08-0.21c0,0-0.49,0.27-0.52,0.73s0.61,0,0.61,0s0.64-0.46,1.95,0.24s1.74,0.4,2.47,0.27L149.45,28.46L149.45,28.46z
				"/>
			<path fill="none" stroke="#FFFFFF" stroke-width="0.25" stroke-miterlimit="10" d="M144.26,28.37c0,0-0.21,0.92,0.21,0.85
				c0.43-0.06,1.31-0.49,1.47-0.64c0.15-0.15,0.03-0.46-0.7-0.28S144.57,28.51,144.26,28.37L144.26,28.37L144.26,28.37z"/>
			<path fill="none" stroke="#FFFFFF" stroke-width="0.25" stroke-miterlimit="10" d="M156.49,28.78c-0.47-0.62-1.51-0.4-2.03-0.02
				c-1.16,0.85-2.5,1.89-2.59,3.57c0.36-0.17,0.73-0.32,1.1-0.47c0.31-0.12,0.62-0.23,0.93-0.33c0.35-0.11,0.64-0.05,0.81-0.42
				c0.14-0.28,0.16-0.61,0.3-0.89C155.37,29.5,155.83,29.18,156.49,28.78z"/>
			<path fill="none" stroke="#FFFFFF" stroke-width="0.25" stroke-miterlimit="10" d="M143.47,34.9c0,0,0.76-1.47,2.6-1.47
				c0.23,0,1.11,0.04,1.09-0.33c-0.02-0.56-1.55-0.3-1.85-0.29c-0.61,0.02-1.42,0.12-1.85,0.6c-0.32,0.36-0.16,0.67-0.2,1.08
				c0,0-0.03,0.34,0.21,0.4l0,0V34.9z"/>
			<path fill="none" stroke="#FFFFFF" stroke-width="0.25" stroke-miterlimit="10" d="M154.58,34.32c0,0,0.21-2.05-0.94-1.37
				c-0.2,0.12-0.67,0.2-0.77,0.44c-0.11,0.27,0.52,0.38,0.68,0.43C153.71,33.87,154.61,34.16,154.58,34.32L154.58,34.32
				L154.58,34.32z"/>
			<path fill="none" stroke="#FFFFFF" stroke-width="0.25" stroke-miterlimit="10" d="M147.65,34.84c0,0-1.01,2.08-0.82,3.73
				c0-0.11-0.29-0.35-0.34-0.49c-0.19-0.56-0.03-1.42,0.12-1.98c0.07-0.28,0.19-0.56,0.37-0.79
				C147.11,35.14,147.6,34.97,147.65,34.84L147.65,34.84L147.65,34.84z"/>
			<path fill="none" stroke="#FFFFFF" stroke-width="0.25" stroke-miterlimit="10" d="M147.96,34.99c0,0,0.24-0.46,0.4,0.06
				c0,0,0.27,2.93-0.58,5.19c0,0,0,0.31-0.37,0.27c-0.2-0.03-0.33-0.67-0.32-0.82c0-0.3,0.06-0.63,0.1-0.93
				c0.1-0.86,0.2-1.73,0.4-2.58C147.68,35.78,147.77,35.35,147.96,34.99L147.96,34.99L147.96,34.99z"/>
			<path fill="none" stroke="#FFFFFF" stroke-width="0.25" stroke-miterlimit="10" d="M148.81,35.15c0,0-0.09-0.43,0.34-0.18
				c0,0,1.31,1.4,0.46,2.99c0,0-0.49,1.28-0.76,1.44c-0.28,0.15-0.34,0.06-0.28-0.24C148.63,38.85,148.88,38.73,148.81,35.15
				L148.81,35.15L148.81,35.15z"/>
			<path fill="none" stroke="#FFFFFF" stroke-width="0.25" stroke-miterlimit="10" d="M145.91,38.84c0,0,0-0.37,0.24-0.12
				c0,0,0.79,1.1,0.4,2.87c-0.12,0.52-0.54,1.05-0.91,1.42c-0.15,0.15-1,1.05-0.93,0.38C144.71,43.39,145.87,40.92,145.91,38.84
				L145.91,38.84L145.91,38.84z"/>
			<path fill="none" stroke="#FFFFFF" stroke-width="0.25" stroke-miterlimit="10" d="M144.97,38.29c-0.12,0.18-0.18,0.39-0.28,0.59
				c-0.15,0.29-0.3,0.58-0.44,0.87c-0.29,0.6-0.55,1.23-0.69,1.88c-0.03,0.12-0.26,1.24-0.04,1.26c0.18,0.02,0.5-1.44,0.54-1.58
				c0.28-0.88,0.68-1.98,1.29-2.69c-0.05,0.31,0.09,0.59,0.07,0.9c-0.06,0.9-0.25,1.86-0.6,2.69c-0.13,0.32-0.29,0.62-0.41,0.95
				c-0.08,0.22-0.02,0.55-0.17,0.74c-0.14,0.19-0.58,0.36-0.72,0.1c0,0-0.67-1.25-0.37-2.05c0.18-0.46,0.15-1,0.26-1.48
				C143.62,39.55,144.3,38.91,144.97,38.29L144.97,38.29L144.97,38.29z"/>
			<path fill="none" stroke="#FFFFFF" stroke-width="0.25" stroke-miterlimit="10" d="M154.58,38.93c0,0,3.66,0.18,3.54,4.18
				c0,0-0.09,0.31-0.21,0c0,0-1.13-2.41-2.66-3.3C155.25,39.81,154.43,39.35,154.58,38.93L154.58,38.93L154.58,38.93z"/>
			<path fill="none" stroke="#FFFFFF" stroke-width="0.25" stroke-miterlimit="10" d="M152.57,53.68c0,0-0.06-3.45,3.57-7.17
				c0,0,1.43-1.19,1.8-2.38c0.07-0.23-0.45-1.01-0.57-1.23c-0.23-0.42-0.5-0.82-0.79-1.19c-0.31-0.39-0.63-0.78-1-1.12
				c-0.27-0.26-0.61-0.43-0.91-0.66c-0.2-0.15-0.41-0.42-0.49,0c0,0-0.46,1.07,1.34,2.41s1.77,1.1,2.08,1.68
				c0,0-0.09,0.46-0.64,0.85c0,0-0.24,0.4-0.7,0.03c-0.46-0.37-0.58-1.07-2.02-0.37c0,0-1.4,1.22-2.56,1.68c0,0,0.52,0.46,2.23-0.64
				c1.71-1.1,2.23-0.46,2.57-0.09c0,0-0.49,0.55-1.13,1.19s-3.05,3.27-3.08,6.99"/>
			<path fill="none" stroke="#FFFFFF" stroke-width="0.25" stroke-miterlimit="10" d="M153.15,53.62c0,0,0.46-3.02,3.42-5.8
				c0,0,0.46,0,0.34,0.31c0,0-0.52,0.55-0.83,0.79c-0.27,0.21-0.28,0.68-0.35,0.99c-0.03,0.11-0.15,1.15-0.14,1.15l-0.64,0.24
				c0,0,0.18-0.76,0.4-0.98c0.21-0.21-0.25-0.3-0.34-0.15s-1.44,2.75-1.59,3.51L153.15,53.62L153.15,53.62L153.15,53.62z"/>
			<path fill="none" stroke="#FFFFFF" stroke-width="0.25" stroke-miterlimit="10" d="M143.1,53.4c0,0-0.15-1.04,0.21-1.28
				c0.09-0.06-0.24-0.49-0.27-0.59c-0.1-0.27-0.19-0.62-0.12-0.91c-0.03,0.16,0.3,0.53,0.38,0.66c0.1,0.15,0.22,0.41,0.41,0.19
				c0,0,0.82-1.16,2.2-1.34c0,0,0.15,0,0.18-0.21c0,0,0.24-1.43,0.36-1.53c0.38-0.29,0.34,0.17,0.32,0.4c0,0.16-0.37,1.79-0.66,1.58
				c0,0-0.64-0.49-2.75,2.9L143.1,53.4L143.1,53.4L143.1,53.4z"/>
			<path fill="none" stroke="#FFFFFF" stroke-width="0.25" stroke-miterlimit="10" d="M144.41,53.53c0,0,0.7-1.01,1.13-1.28
				c0.23-0.15,0.38-0.41,0.5-0.65c0.08-0.16,0.1-0.36,0.22-0.5c0.18-0.21,0.39-0.08,0.4,0.15c0,0.17-0.06,0.38-0.11,0.55
				c-0.21,0.72-0.78,1.32-1.35,1.77l-0.79-0.03l0,0V53.53z"/>
			<path fill="none" stroke="#FFFFFF" stroke-width="0.25" stroke-miterlimit="10" d="M143.8,53.34c0,0,0.21-0.89,1.68-2.41
				c0.22-0.23,0.5,0,0.46,0.26c-0.04,0.23-0.27,0.41-0.41,0.59C145.05,52.4,144.49,52.96,143.8,53.34L143.8,53.34L143.8,53.34z"/>
			<path fill="none" stroke="#FFFFFF" stroke-width="0.25" stroke-miterlimit="10" d="M155.5,53.43l-0.03-1.04
				c0,0-1.16,0.15-1.04,1.16L155.5,53.43L155.5,53.43L155.5,53.43z"/>
			<path fill="none" stroke="#FFFFFF" stroke-width="0.25" stroke-miterlimit="10" d="M155.83,52.43l0.06,0.95l0.98-0.12
				C156.87,53.26,156.17,52.41,155.83,52.43L155.83,52.43L155.83,52.43z"/>
			<path fill="none" stroke="#FFFFFF" stroke-width="0.25" stroke-miterlimit="10" d="M155.92,51.91c0,0,0.58,0.37,0.73,0.52
				c0,0,0-1.07-0.7-1.4L155.92,51.91L155.92,51.91L155.92,51.91z"/>
			<path fill="none" stroke="#FFFFFF" stroke-width="0.25" stroke-miterlimit="10" d="M154.73,52.4c0,0,0.64-0.4,0.76-0.61
				s-0.12-0.33-0.33-0.27C154.95,51.58,154.52,51.85,154.73,52.4z"/>
			<path fill="none" stroke="#FFFFFF" stroke-width="0.25" stroke-miterlimit="10" d="M141.82,61.68c0,0-1.13,2.14-0.46,3.05
				c0.14,0.19,0.91-0.85,0.98-0.98c0.15-0.27,1.04-1.04,0.79-1.83L141.82,61.68L141.82,61.68L141.82,61.68z"/>
			<path fill="none" stroke="#FFFFFF" stroke-width="0.25" stroke-miterlimit="10" d="M143.53,61.92c0,0-0.09,1.34-1.53,2.59
				c0,0,2.26-1.07,2.69-2.41C144.69,62.1,143.53,61.92,143.53,61.92z"/>
			<path fill="none" stroke="#FFFFFF" stroke-width="0.25" stroke-miterlimit="10" d="M141.58,64.39c0,0,0-0.86,0.27-1.46
				c0.28-0.61,0.46-0.86,0.37-1.13"/>
			<path fill="none" stroke="#FFFFFF" stroke-width="0.25" stroke-miterlimit="10" d="M153.36,61.86c0,0-0.43,0.58-0.3,1.53
				c0,0,0.24,0.28,0.46,0.06c0.21-0.21,1.1-0.85,1.1-0.85s0.67-0.28-0.67-0.46l-0.58-0.27h-0.01L153.36,61.86z"/>
			<path fill="none" stroke="#FFFFFF" stroke-width="0.25" stroke-miterlimit="10" d="M156.17,61.74c0,0,1.01,0.73,1.01,1.99
				c0,0,0.06,0.37-0.28,0.18c-0.34-0.18-0.67-0.7-1.1-0.95c-0.43-0.24-0.92-0.82-0.21-1.22H156.17L156.17,61.74z"/>
			<path fill="none" stroke="#FFFFFF" stroke-width="0.25" stroke-miterlimit="10" d="M155.8,66.93c0,0,0.11-0.1,0.14-0.13
				c0.13-0.13,0.25-0.29,0.35-0.44c0.17-0.25,0.31-0.53,0.42-0.81c0.21-0.54,0.5-0.91-0.03-1.33c-0.48-0.38-0.91-0.82-1.4-1.19
				c0.1,0.39,0.07,0.96,0.41,1.19c0.27,0.18,0.56,0.35,0.81,0.55c0,0,0.12,0.33-0.15,0.33c-0.18,0-0.34-0.23-0.55-0.21
				C155.83,64.89,155.86,66.74,155.8,66.93L155.8,66.93L155.8,66.93z"/>
			<path fill="none" stroke="#FFFFFF" stroke-width="0.25" stroke-miterlimit="10" d="M155.35,66.77c-0.18-0.16-0.41-0.3-0.56-0.48
				c-0.2-0.23,0.1-0.47,0.32-0.62c0.18-0.12,0.27,0.18,0.27,0.18S155.38,66.55,155.35,66.77L155.35,66.77L155.35,66.77z"/>
			<path fill="none" stroke="#FFFFFF" stroke-width="0.25" stroke-miterlimit="10" d="M153.45,63.88c0,0-0.25,0.24-0.09,0.4
				c0,0,0.3,0.73,0.85,0.21l0.58-0.49c0,0,0.09-0.12,0.09-0.33c0,0-0.03-0.86-0.55-0.49L153.45,63.88z"/>
			<path fill="none" stroke="#FFFFFF" stroke-width="0.25" stroke-miterlimit="10" d="M154.18,64.91c0,0-0.4,0.18-0.12,0.46
				l0.24,0.27c0,0,0.3,0.12,0.46-0.06c0,0,0.49-0.27,0.49-0.55l-0.12-0.52c0,0-0.09-0.37-0.43-0.03L154.18,64.91L154.18,64.91
				L154.18,64.91z"/>
			<path fill="none" stroke="#FFFFFF" stroke-width="0.25" stroke-miterlimit="10" d="M154.03,66.07c0,0-0.4,1.37,1.56,5.43
				c0,0,0.55,1.4,0.73,0.7c-0.27-0.89-0.56-1.77-0.89-2.64c-0.19-0.5-0.5-0.93-0.64-1.46c-0.11-0.43-0.18-0.89-0.18-1.33
				L154.03,66.07z"/>
			<path fill="none" stroke="#FFFFFF" stroke-width="0.25" stroke-miterlimit="10" d="M152.99,73.04c0,0-2.14-4.98-1.59-10.93h0.4
				c0,0,0,5.01,0.64,7.36C152.44,69.47,153.08,72.31,152.99,73.04z"/>
			<path fill="none" stroke="#FFFFFF" stroke-width="0.25" stroke-miterlimit="10" d="M150.16,62.1c-0.05,1.18-0.16,2.35-0.34,3.52
				c-0.14,0.9-0.52,1.74-0.65,2.65c-0.13,0.94-0.13,1.88-0.11,2.83c0,0.44,0.02,0.93,0.23,1.34c0.04,0.09,0.29,0.5,0.44,0.37
				c0.11-0.09-0.12-0.49-0.15-0.58c-0.3-0.89-0.02-1.85,0.09-2.75c0.14-1.05,0.26-2.09,0.42-3.13c0.22-1.41,0.58-2.84,0.31-4.28
				L150.16,62.1z"/>
			<path fill="none" stroke="#FFFFFF" stroke-width="0.25" stroke-miterlimit="10" d="M146.12,62.13c0,0,0.03,3.85-0.24,4.76
				c-0.23,0.75-0.06,1.65,0.13,2.39c0.09,0.37,0.23,0.72,0.42,1.06c0.12,0.21,0.37,0.67,0.62,0.74c0,0,0.43,0.12,0.12-0.3
				c-0.3-0.43-1-1.62-0.79-2.72s0.4-4.82-0.03-5.92L146.12,62.13L146.12,62.13z"/>
			<path fill="none" stroke="#FFFFFF" stroke-width="0.25" stroke-miterlimit="10" d="M143.99,63.51c0,0-0.95,0.76-0.27,4.12
				c0,0,0.24,2.72-0.18,3.67c-0.11,0.24-0.07,0.59-0.02,0.85c0.05,0.27,0.16,0.26,0.29,0c0,0,0-0.98,0.24-1.8
				c0.24-0.83-0.03-3.73-0.12-4.09c-0.09-0.37-0.12-2.02,0.15-2.44L143.99,63.51L143.99,63.51L143.99,63.51z"/>
			<path fill="none" stroke="#FFFFFF" stroke-width="0.25" stroke-miterlimit="10" d="M151.1,44.61c0,0-1.62,0.46-2.5-0.52
				c-0.89-0.98-1.53-1.89-1.41-2.59c0,0,1.65,2.29,2.26,2.53c0,0,0.18,0.28,0.67,0.21c0,0-1.98-2.44-2.32-2.84
				c0,0-0.27-0.4,0.34-0.28c0,0,1.74,1.8,2.5,2.99c0,0,0.27,0.03,0.15-0.37c0,0-1.28-2.11-2.38-3.14c0,0-0.21-0.34,0.18-0.27
				c0.38,0.27,0.75,0.56,1.1,0.87c0.47,0.41,0.86,0.87,1.07,1.47c0.17,0.49,0.6,1.44,0.33,1.94H151.1L151.1,44.61z"/>
			<path fill="none" stroke="#FFFFFF" stroke-width="0.25" stroke-miterlimit="10" d="M151.44,45.77c0,0,1.07-0.4,1.89-0.95
				c0.82-0.55,0.91-0.85,1.47-1.01c0,0,0.33-0.09-0.03-0.27c-0.37-0.18-1.53-0.15-2.54,0.95S151.44,45.77,151.44,45.77L151.44,45.77
				L151.44,45.77z"/>
			<path fill="none" stroke="#FFFFFF" stroke-width="0.25" stroke-miterlimit="10" d="M146.77,45.65c0,0,0.98,1.83-1.95,3.69
				c0,0-0.43,0.15-0.18-0.27c0,0,1.47-1.53,2.14-3.42L146.77,45.65L146.77,45.65z"/>
			<path fill="none" stroke="#FFFFFF" stroke-width="0.25" stroke-miterlimit="10" d="M146.19,45.22c0,0,0.34,1.62-2.75,4.58
				c0,0-0.43,0.46-0.76-0.03c-0.29-0.42,0.19-0.69,0.4-0.97c0.17-0.22,0.29-0.49,0.45-0.73c0.49-0.72,0.97-1.46,1.6-2.08
				c0.31-0.31,0.65-0.62,1.06-0.78l0,0V45.22z"/>
			<path fill="none" stroke="#FFFFFF" stroke-width="0.25" stroke-miterlimit="10" d="M145.7,44.49c0,0,0.58,0.03,0.21,0.28
				c0,0-2.23,1.89-2.93,3.66c0,0-0.18,0.4-0.28,0.09C142.61,48.21,143.37,45.8,145.7,44.49L145.7,44.49L145.7,44.49z"/>
			<path fill="none" stroke="#FFFFFF" stroke-width="0.25" stroke-miterlimit="10" d="M147.01,43.05c0,0,0.46,1.4,1.13,2.17
				c0.14,0.16,0.36,0.42,0.19,0.63c-0.44,0.51-0.72-0.84-0.84-1.07c-0.17-0.32-0.44-0.6-0.59-0.94
				C146.82,43.64,146.59,42.44,147.01,43.05L147.01,43.05L147.01,43.05z"/>
			<path fill="none" stroke="#FFFFFF" stroke-width="0.25" stroke-miterlimit="10" d="M151.41,53.74c0,0,0.3-0.7-0.18-2.5
				c-0.1-0.8-0.12-1.6-0.07-2.41c0.03-0.4,0.09-0.79,0.14-1.19c0-0.1,0.08-0.34,0-0.43c-0.02-0.03-0.26-0.13-0.26-0.06
				c0,0-0.64,2.56-0.25,3.91c0.4,1.34,0.06,2.81,0.06,2.81L151.41,53.74L151.41,53.74L151.41,53.74z"/>
			<path fill="none" stroke="#FFFFFF" stroke-width="0.25" stroke-miterlimit="10" d="M152.96,39.3c0,0,0.27-0.21,0.34,0.09
				c0,0-0.95,3.21-1.19,4.64c0,0-0.12,0.58-0.43,0.31C151.68,44.34,151.83,41.96,152.96,39.3z"/>
			<path fill="none" stroke="#FFFFFF" stroke-width="0.25" stroke-miterlimit="10" d="M153.76,36.58c0,0,0.06-0.67-0.82-0.4
				c0,0-0.28,0.43,0.3,0.64C153.24,36.82,153.61,36.73,153.76,36.58z"/>
			<path fill="none" stroke="#FFFFFF" stroke-width="0.25" stroke-miterlimit="10" d="M154.24,36.27c0,0,1.19,0,0.92,0.82
				c0,0-0.43,0.12-0.64-0.06S154.09,36.82,154.24,36.27z"/>
			<path fill="none" stroke="#FFFFFF" stroke-width="0.25" stroke-miterlimit="10" d="M155.06,38.34c-0.19,0.11-0.67-0.09-0.78-0.24
				c-0.17-0.22-0.12-0.46,0.17-0.52c0.24-0.05,0.76,0.4,0.68,0.66c0,0.04-0.04,0.07-0.07,0.09l0,0L155.06,38.34z"/>
			<path fill="none" stroke="#FFFFFF" stroke-width="0.25" stroke-miterlimit="10" d="M154.13,37.05c0.13,0.14,0.14,0.39-0.16,0.47
				c-0.33,0.09,0.06,1.43-1.16,1.19c0,0-0.28-0.64,0.49-1.01c0.35-0.17,0.2-0.3,0.33-0.54C153.78,36.87,154.01,36.91,154.13,37.05
				L154.13,37.05L154.13,37.05z"/>
			<path fill="none" stroke="#FFFFFF" stroke-width="0.25" stroke-miterlimit="10" d="M158.49,37.44c0,0,0.79-0.76,0.86-2.41
				c0.06-1.65,0.58-1.89,0.58-1.89s0.06-0.4-0.46-0.34c0,0-0.4,0.64-1.04,0.43L158.49,37.44z"/>
			<path fill="none" stroke="#FFFFFF" stroke-width="0.25" stroke-miterlimit="10" d="M158.43,33.53c0,0-0.7,1.44-2.66,3.05
				c0,0-0.46-0.49-0.64-0.58c0,0-0.33-0.18-0.15-0.4c0.18-0.21,0.46-1.62,3.45-2.08l0,0V33.53z"/>
			<path fill="none" stroke="#FFFFFF" stroke-width="0.25" stroke-miterlimit="10" d="M159.22,33.65c0,0-0.67,0.58-3.72,3.91
				c0,0,0.18,0.67,0.06,1.01c0,0,0.64,0.27,1.65-0.49c0.68-0.52,1.4-0.97,1.59-1.86C158.98,35.37,159.03,34.5,159.22,33.65
				L159.22,33.65L159.22,33.65z"/>
			<path fill="none" stroke="#FFFFFF" stroke-width="0.25" stroke-miterlimit="10" d="M158.55,45.53c0,0,0.09,0.58,0.46,0.4
				c0.37-0.18,0.73-0.73,0.7-0.89c-0.03-0.15-0.64-2.14-0.55-3.27c0,0,0.06-0.31-0.06-0.7c-0.12-0.4-0.58-3.17,2.07-4.67
				c0,0,0.28,0.09,0.55-0.46c0,0,0.21-0.28,0.37,0.18c0,0,0.09,0.73,0.21,0.95c0.12,0.21,0.4,2.93-1.31,3.91
				c0,0-0.89,0.37-0.73,1.71c0,0-0.06,1.04,0.15,1.16c0,0,0.46-1.22,0.58-1.56s1.71-3.02,5.1-1.31c0,0,0.4,0.18,0.89,0.03
				c0,0,0.58,0.03,0.27,0.21c0,0-0.79,0.34-1.07,0.76c-0.28,0.43-1.44,1.71-4.52,1.92c0,0-0.88-0.15-0.92,0.64
				c0,0,4.58-1.53,5.98,2.29c0,0,0,0.4,0.64,0.98c0,0,0.21,0.34-0.18,0.21c-0.4-0.12-0.86-0.15-1.1-0.12c0,0-2.69,0.61-3.88-2.08
				c0,0-0.61-1.13-1.25-0.61c0,0-0.67,0.46-0.97,0.64c0,0,2.66,1.98,1.98,3.51c-0.67,1.53-1.8,1.83-2.32,1.37
				c0,0-0.34,0.52-1.1,0.79V45.5v0.03H158.55z"/>
			<path fill="none" stroke="#FFFFFF" stroke-width="0.25" stroke-miterlimit="10" d="M158.89,46.5c0,0-1.74,2.05-0.52,4.46
				c0,0-0.49,0.21-0.76-0.06C157.61,50.9,155.96,47.63,158.89,46.5z"/>
			<path fill="none" stroke="#FFFFFF" stroke-width="0.25" stroke-miterlimit="10" d="M161.33,36.86c0,0-0.46-0.06-0.91,0.49
				l0.21,0.79C160.63,38.14,161.12,37.32,161.33,36.86z"/>
			<path fill="none" stroke="#FFFFFF" stroke-width="0.25" stroke-miterlimit="10" d="M160.02,37.89l0.46,0.76
				c0,0-0.06,0.67-0.31,0.89C160.17,39.54,159.35,39.02,160.02,37.89L160.02,37.89L160.02,37.89z"/>
			<path fill="none" stroke="#FFFFFF" stroke-width="0.25" stroke-miterlimit="10" d="M159.47,39.08c0,0,0.95,0.95,0.18,1.71
				C159.65,40.79,159.25,40.18,159.47,39.08z"/>
			<path fill="none" stroke="#FFFFFF" stroke-width="0.25" stroke-miterlimit="10" d="M159.56,41.28c0,0-0.06,0.4,0.09,0.52
				C159.65,41.8,160.05,41.5,159.56,41.28z"/>
			<path fill="none" stroke="#FFFFFF" stroke-width="0.25" stroke-miterlimit="10" d="M160.2,40.98c0,0,1.74,0,1.83-2.9l-1.01,0.7
				c0,0-0.4,0.03-0.37,0.67c0,0,0,0.34,0.37,0.06c0,0,0.4-0.21,0.46-0.33c0,0,0.15,0.15,0.03,0.27s-0.76,0.46-0.91,0.58
				C160.45,40.15,160.2,40.21,160.2,40.98L160.2,40.98L160.2,40.98z"/>
			<path fill="none" stroke="#FFFFFF" stroke-width="0.25" stroke-miterlimit="10" d="M161.66,36.82c0,0,0.49,0.46,0.33,1.07
				c0,0-0.55,0.49-1,0.49C160.99,38.38,161.05,37.8,161.66,36.82z"/>
			<path fill="none" stroke="#FFFFFF" stroke-width="0.25" stroke-miterlimit="10" d="M165.39,41.19c0,0-0.7-0.58-1.16-0.18
				l-0.03,0.46C164.2,41.47,165.09,41.13,165.39,41.19L165.39,41.19L165.39,41.19z"/>
			<path fill="none" stroke="#FFFFFF" stroke-width="0.25" stroke-miterlimit="10" d="M165.91,41.56c0,0,0.12,0.43-0.7,0.89
				l-0.64-0.34c0,0-0.21-0.18-0.03-0.21C164.54,41.9,164.94,41.53,165.91,41.56z"/>
			<path fill="none" stroke="#FFFFFF" stroke-width="0.25" stroke-miterlimit="10" d="M164.75,42.66c0,0-0.7-1.01-1.83-0.18
				c0,0,0.46,0.49,0.61,0.67c0.15,0.18,0.43-0.03,0.43-0.03S164.63,42.94,164.75,42.66L164.75,42.66L164.75,42.66z"/>
			<path fill="none" stroke="#FFFFFF" stroke-width="0.25" stroke-miterlimit="10" d="M163.22,43.36l-0.64-0.7
				c0,0-1.34,0.46-1.16,0.79C161.42,43.45,161.88,43.51,163.22,43.36z"/>
			<path fill="none" stroke="#FFFFFF" stroke-width="0.25" stroke-miterlimit="10" d="M163.07,40.86c0,0-0.23,0.1-0.28,0.12
				c-0.21,0.1-0.42,0.22-0.61,0.35c-0.24,0.16-0.51,0.39-0.62,0.67c-0.04,0.11-0.09,0.33,0,0.44c0.15,0.18,0.44,0.15,0.61,0.07
				c0.16-0.08,0.54-0.22,0.57-0.43c0,0,0.12-0.85,0.34-1.22L163.07,40.86L163.07,40.86z"/>
			<path fill="none" stroke="#FFFFFF" stroke-width="0.25" stroke-miterlimit="10" d="M163.13,41.8c0,0-0.09-0.67,0.43-1.01
				c0.45-0.29,0.39,0.24,0.33,0.52c-0.04,0.19-0.05,0.32-0.25,0.39C163.6,41.7,163.13,41.78,163.13,41.8L163.13,41.8L163.13,41.8z"
				/>
			<path fill="none" stroke="#FFFFFF" stroke-width="0.25" stroke-miterlimit="10" d="M166.18,47.21c0,0,0.34-0.98-0.98-1.74
				c0,0-0.52-0.24-0.76,0.03c0,0-0.18,0.15-0.03,0.27l0.4,0.27l0.67-0.06c0,0,0.27,0.21,0.09,0.24c-0.18,0.03-0.21,0.18-0.12,0.27
				l0.73,0.7V47.21L166.18,47.21z"/>
			<path fill="none" stroke="#FFFFFF" stroke-width="0.25" stroke-miterlimit="10" d="M165.91,47.51c0,0-0.79,0.18-1.13-0.06
				l-0.03-0.73C164.75,46.72,165.51,47.09,165.91,47.51z"/>
			<path fill="none" stroke="#FFFFFF" stroke-width="0.25" stroke-miterlimit="10" d="M163.44,46.72c-0.05,0.04-0.34-0.17-0.37-0.2
				c-0.18-0.14-0.21-0.36-0.31-0.55c-0.09-0.18-0.22-0.37-0.35-0.53c-0.15-0.18,0.03-0.24,0.12-0.21s1.07,0.09,1.04,0.85
				C163.57,46.08,163.63,46.6,163.44,46.72L163.44,46.72L163.44,46.72z"/>
			<path fill="none" stroke="#FFFFFF" stroke-width="0.25" stroke-miterlimit="10" d="M164.63,45.04c0,0-1.31-0.64-1.98-0.34
				c0,0,0.43,0.31,1.13,0.61C163.78,45.31,164.14,45.61,164.63,45.04L164.63,45.04L164.63,45.04z"/>
			<path fill="none" stroke="#FFFFFF" stroke-width="0.25" stroke-miterlimit="10" d="M163.77,47.02c0,0,0-0.58,0.03-0.73
				s0.21-0.24,0.4-0.15c0,0,0.21,0.15,0.18,0.49c0,0.16,0.11,0.52-0.02,0.64C164.22,47.4,163.77,47.21,163.77,47.02L163.77,47.02
				L163.77,47.02z"/>
			<path fill="none" stroke="#FFFFFF" stroke-width="0.25" stroke-miterlimit="10" d="M160.05,46.56c0,0-0.4-0.4-0.7,0.21
				c0,0-0.18,2.17,0.67,3.48c0,0,0.09,0.55,0.92,0.09c0.88-0.49,0.79-1.9,0.26-2.59c-0.18-0.24-0.35-0.49-0.55-0.71
				C160.47,46.83,160.23,46.74,160.05,46.56L160.05,46.56L160.05,46.56z"/>
			<path fill="none" stroke="#FFFFFF" stroke-width="0.25" stroke-miterlimit="10" d="M159.04,47.72c0,0-0.4-0.34-0.52,0.18
				c0,0-0.55,2.47,0.37,2.72c0,0,0.43,0.06,0.52-0.43c0,0,0-0.12-0.46-0.15c0,0-0.61-0.64,0-1.74
				C158.95,48.3,159.04,48.09,159.04,47.72L159.04,47.72L159.04,47.72z"/>
			<path fill="none" stroke="#FFFFFF" stroke-width="0.25" stroke-miterlimit="10" d="M139.96,37.74c0,0.12-0.33-0.02-0.36-0.04
				c-0.11-0.08-0.14-0.23-0.25-0.31c-0.34-0.28-1.25-0.35-1.65-0.2c-0.58,0.21-1.86-0.95-3.05,0.03c0,0-0.34,0.12-0.58,0.09
				c-0.36-0.04-0.35,0.49-0.19,0.67c0.26,0.29,0.63,0.51,0.99,0.65c0,0,1.28,0.49,1.01,1.1c-0.28,0.61,0.64,2.17,1.53,2.66
				c0.89,0.49,1.07,0.88,1.07,0.88s-0.92,0.21-1.5,0.55c0,0,0.03-0.64-0.98-1.74c0,0,0.09-0.55-0.34-1.01l-0.58-0.49
				c0,0-0.52-0.31-0.61,0.55c0,0-0.4,0.06-0.43,0.08c-0.31,0.15,0.05,0.58,0.19,0.76c0.26,0.34,0.68,0.54,1.1,0.57l0.21,0.28
				c0,0-0.61,0.24-0.76,0.06c-0.39-0.47-2.24-0.09-2.11,0.64c0.04,0.23,0.42,0.56,0.64,0.61c0.64,0.15-0.88,1.22,0.98,1.25
				c0,0-1.56,1.5,0.82,1.13c0,0-0.18,0.67,0.21,0.76c0,0-0.37,0.61-0.7,1.16c-0.34,0.55-0.82,0.64-0.82,0.64s-0.58,0.49-0.12,0.82
				c0.46,0.34,1.83,1.07,3.36-0.46c0,0,0.42-0.12,1.01-0.06c0.58,0.06,0.82,0.03,1.25-0.21s1.4-0.03,1.68,0.49l0.06-14.17
				c0,0-1.16,0.79-1.07,2.26L139.96,37.74L139.96,37.74z M137.64,43.88c0,0,0.79-0.27,1.16-0.18c0,0,0.21,0.58,0.12,0.7
				c0,0-0.46-0.09-0.55-0.18c-0.09-0.09-0.79-0.18-0.79-0.18L137.64,43.88L137.64,43.88L137.64,43.88z M136.42,43.82
				c0,0-0.46,0.09-0.58,0.21s-0.52-0.24-1.31-0.09c0,0,0.4-0.58,0.95-0.46l0.89-0.09C136.37,43.39,136.61,43.82,136.42,43.82
				L136.42,43.82L136.42,43.82z M137.91,46.23c0,0-0.55,0.43-0.79,0.27c0,0-0.12-0.06-0.4-0.24c0,0,0.46-1.04,0.4-1.95
				c0,0,2.05,0.31,2.32,1.19C139.44,45.5,138.43,45.84,137.91,46.23L137.91,46.23L137.91,46.23z"/>
			<path fill="none" stroke="#FFFFFF" stroke-width="0.25" stroke-miterlimit="10" d="M135.5,45.01L135.5,45.01
				c0.5,0.15,0.94-0.32,1.06-0.77c-0.11-0.02-0.26-0.01-0.37,0.02C135.87,44.35,135.56,44.7,135.5,45.01L135.5,45.01L135.5,45.01z"
				/>
			<path fill="none" stroke="#FFFFFF" stroke-width="0.25" stroke-miterlimit="10" d="M136.59,45.52c0.02,0.52-0.36,1.13-0.88,1.28
				c0,0-0.52,0.15-0.28-0.27c0.24-0.28,0.74-1.03,1.15-1.01H136.59L136.59,45.52z"/>
			<path fill="none" stroke="#FFFFFF" stroke-width="0.25" stroke-miterlimit="10" d="M135.74,42.47c0,0-0.06-0.76-0.3-1.01
				c-0.24-0.24-0.7-0.64-0.49,0c0,0,0.37,0.46,0.15,0.49l-0.52-0.12c0,0,0.21,0.4,0.43,0.4S135.4,42.26,135.74,42.47L135.74,42.47
				L135.74,42.47z"/>
			<path fill="none" stroke="#FFFFFF" stroke-width="0.25" stroke-miterlimit="10" d="M135.54,45.57v0.06
				c-0.07,0.26-0.66,0.51-0.89,0.54c-0.55,0.06-0.4-0.24-0.15-0.52c0.14-0.15,0.34-0.24,0.54-0.25
				C135.19,45.39,135.52,45.41,135.54,45.57L135.54,45.57L135.54,45.57z"/>
			<path fill="none" stroke="#FFFFFF" stroke-width="0.25" stroke-miterlimit="10" d="M134.46,43.24c0,0,0.18,0.37-0.18,0.46
				c-0.37,0.09-0.98,0.18-1.16-0.15c-0.18-0.34,0.43-0.52,0.43-0.52S134.22,42.97,134.46,43.24L134.46,43.24L134.46,43.24z"/>
			<path fill="none" stroke="#FFFFFF" stroke-width="0.25" stroke-miterlimit="10" d="M134.86,44.24c0.2-0.02,0.38,0.17,0.33,0.36
				s-0.25,0.22-0.41,0.27c-0.27,0.08-0.55,0.12-0.83,0.13c0,0-0.46-0.21,0.06-0.49c0.52-0.27,0.61-0.24,0.85-0.28l0,0V44.24z"/>
			<path fill="none" stroke="#FFFFFF" stroke-width="0.25" stroke-miterlimit="10" d="M134.06,49.65c0,0,1.22,0.58,2.02,0.06
				c0.79-0.52,0.89-1.1,1.98-0.76c1.1,0.34,1.13-0.92,3.24,0.15c0,0,0.67,0.52,0.82,0.34c0,0,0.12-0.46-0.37-0.88
				c0,0,0.18,0.55-0.21,0.55c0,0-0.27-0.79-0.95-0.88c-0.67-0.09-1.62-1.19-3.63-0.06c-2.02,1.13-1.65,1.1-2.9,1.5L134.06,49.65
				L134.06,49.65z"/>
			<path fill="none" stroke="#FFFFFF" stroke-width="0.25" stroke-miterlimit="10" d="M134.83,48.85c0,0,0.8,0,1.31-0.58
				c0.37-0.41,1-0.63,1.51-0.81c0.45-0.15,1.02-0.42,1.51-0.29c0.22,0.06,0.39,0.23,0.59,0.33c0.27,0.14,0.51,0.15,0.79,0.22
				c0,0,0.79,0.18,1.07,0.52c0,0,0.15,0,0-0.37s-0.73-0.82-0.95-0.85c-0.21-0.03-0.55-1.1-1.74-0.98c-1.19,0.12-0.52,0.85-2.23,0.79
				C136.69,46.83,135.28,47.2,134.83,48.85L134.83,48.85L134.83,48.85z"/>
			<path fill="none" stroke="#FFFFFF" stroke-width="0.25" stroke-miterlimit="10" d="M134.62,37.8c0,0,0.88,0.7,1.34,1.07
				c0,0,0.64,0.61,0.49,1.25s1.07,1.98,2.02,2.41s0.64,2.9,2.66,4.18c0,0,0.24,0.15,0.37-0.18c0,0-0.03-0.95-0.43-1.43
				c-0.4-0.49-0.85-2.29-1.4-3.05c-0.55-0.76-1.77-4.43-5.04-4.24L134.62,37.8L134.62,37.8z"/>
			<path fill="none" stroke="#FFFFFF" stroke-width="0.25" stroke-miterlimit="10" d="M141.88,46.56c0.02-0.26,0.3-0.64,0.39-0.9
				c0.11-0.34,0.19-0.7,0.25-1.05c0.07-0.42,0.19-0.86,0-1.26c-0.22-0.45-0.52-0.83-0.64-1.34c-0.15-0.67-1.62-2.02-2.11-3.69
				c-0.07-0.25-0.51-0.52-0.71-0.64c-0.35-0.2-0.74-0.26-1.13-0.16c-0.17,0.04-0.41,0.22-0.57,0.23c-0.27,0-0.33-0.34-0.61-0.39
				c-0.4-0.06-0.79-0.31-1.16-0.09c0.38,0.23,0.76,0.45,1.17,0.63c0.07,0.03,1.06,0.34,1.06,0.29c0,0,0.03,0.49,0.31,0.7
				c0,0,1.59,1.62,2.05,2.9c0.37,0.94,0.74,1.87,1.16,2.78c0.16,0.34,0.4,0.59,0.46,0.97C141.85,45.87,141.91,46.22,141.88,46.56
				L141.88,46.56L141.88,46.56z"/>
			<path fill="none" stroke="#FFFFFF" stroke-width="0.25" stroke-miterlimit="10" d="M142.31,35.72c0,0,1.22,1.25,0.64,2.14
				c-0.33,0.51-0.22,1.34-0.23,1.92c0,0.43,0.1,1.34-0.36,1.59c-0.62,0.33-0.71-0.56-0.67-0.92c0.08-0.62,0.11-1.29,0.04-1.92
				c0,0,0.03-0.49,0.27-0.73C142.24,37.56,141.97,36.15,142.31,35.72L142.31,35.72L142.31,35.72z"/>
			<path fill="none" stroke="#FFFFFF" stroke-width="0.25" stroke-miterlimit="10" d="M141.67,35.36c0,0,0.21,0.64,0,0.89
				c0,0,0.09,1.01-0.25,1.59c-0.33,0.58,0.12,1.43-0.06,2.47l-0.85-1.13c0,0-0.52-1.47-0.24-1.92c0.27-0.46,0.76-1.5,1.4-1.89l0,0
				L141.67,35.36z"/>
			<path fill="none" stroke="#FFFFFF" stroke-width="0.25" stroke-miterlimit="10" d="M149.56,46.25c0.05-0.23-0.43-0.09-0.51-0.04
				c-0.3,0.19-0.08,0.43,0.2,0.41C149.25,46.62,149.48,46.6,149.56,46.25z"/>
			<path fill="none" stroke="#FFFFFF" stroke-width="0.25" stroke-miterlimit="10" d="M148.34,46.63c-0.07-0.22-0.54-0.27-0.69-0.15
				c-0.2,0.16-0.09,0.51,0.14,0.58C147.79,47.06,148.52,47.26,148.34,46.63z"/>
			<path fill="none" stroke="#FFFFFF" stroke-width="0.25" stroke-miterlimit="10" d="M149.22,47.04c0,0,0.35-0.22,0.55,0.14
				c0,0,0.16,0.53-0.49,0.41C149.28,47.59,148.98,47.43,149.22,47.04z"/>
			<path fill="none" stroke="#FFFFFF" stroke-width="0.25" stroke-miterlimit="10" d="M149.57,48.23c-0.15-0.12-0.49-0.1-0.54,0.1
				c0,0-0.22,0.39,0.32,0.39c0.19,0,0.36-0.23,0.27-0.42C149.62,48.27,149.59,48.25,149.57,48.23L149.57,48.23L149.57,48.23z"/>
			<path fill="none" stroke="#FFFFFF" stroke-width="0.25" stroke-miterlimit="10" d="M148.49,47.44c0,0-0.1-0.04-0.18-0.04
				c-0.19,0.02-0.7,0.18-0.66,0.45c0,0,0.1,0.35,0.63,0.16c0.24-0.08,0.37-0.45,0.21-0.58l0,0L148.49,47.44z"/>
			<path fill="none" stroke="#FFFFFF" stroke-width="0.25" stroke-miterlimit="10" d="M148.5,48.45c-0.19-0.18-0.66,0-0.73,0.22
				c0,0-0.16,0.51,0.33,0.53c0.28,0.01,0.61-0.49,0.42-0.72c0,0,0-0.02-0.02-0.02l0,0V48.45z"/>
			<path fill="none" stroke="#FFFFFF" stroke-width="0.25" stroke-miterlimit="10" d="M149.23,49.29c0.07-0.08,0.18-0.12,0.31-0.1
				c0.38,0.06,0.43,0.89-0.22,0.6C149.09,49.69,149.1,49.43,149.23,49.29z"/>
			<path fill="none" stroke="#FFFFFF" stroke-width="0.25" stroke-miterlimit="10" d="M148.57,49.85c0.15-0.26-0.13-0.48-0.38-0.39
				c-0.23,0.08-0.48,0.49-0.21,0.68c0,0,0.2,0.39,0.59-0.28l0,0L148.57,49.85z"/>
			<path fill="none" stroke="#FFFFFF" stroke-width="0.25" stroke-miterlimit="10" d="M148.22,50.71c0.18-0.11,0.59-0.15,0.63,0.12
				c0.05,0.34-0.35,0.61-0.65,0.47C148.2,51.3,147.73,51,148.22,50.71L148.22,50.71L148.22,50.71z"/>
			<path fill="none" stroke="#FFFFFF" stroke-width="0.25" stroke-miterlimit="10" d="M148.19,51.79c0,0-0.05,0.03-0.06,0.05
				c-0.15,0.23,0.02,0.59,0.29,0.63c0.33,0.04,0.48-0.34,0.47-0.62c0-0.21-0.52-0.17-0.71-0.06H148.19L148.19,51.79z"/>
			<path fill="none" stroke="#FFFFFF" stroke-width="0.25" stroke-miterlimit="10" d="M149.06,52.94c0,0,0.12-0.29-0.27-0.29
				c0,0-0.88,0.27-0.49,0.63c0,0,0.47,0.43,0.75-0.35h0.01L149.06,52.94z"/>
			<path fill="none" stroke="#FFFFFF" stroke-width="0.25" stroke-miterlimit="10" d="M149.43,50.39L149.43,50.39
				c0.14-0.12,0.47,0,0.49,0.19c0,0,0.04,0.35-0.43,0.31C149.27,50.87,149.3,50.51,149.43,50.39L149.43,50.39L149.43,50.39z"/>
			<path fill="none" stroke="#FFFFFF" stroke-width="0.25" stroke-miterlimit="10" d="M149.39,51.53c0.14-0.13,0.4-0.16,0.42,0.09
				c0,0,0.08,0.49-0.3,0.51c-0.22,0.01-0.24-0.35-0.19-0.49C149.32,51.6,149.36,51.56,149.39,51.53z"/>
			<path fill="none" stroke="#FFFFFF" stroke-width="0.25" stroke-miterlimit="10" d="M149.5,52.63l0.06-0.03
				c0.1-0.04,0.4-0.03,0.38,0.15c0,0,0.06,0.65-0.39,0.65c-0.29,0-0.29-0.35-0.21-0.55c0.04-0.1,0.07-0.17,0.15-0.22H149.5
				L149.5,52.63z"/>
			<line fill="none" stroke="#FFFFFF" stroke-width="0.25" stroke-miterlimit="10" x1="142.05" y1="36.95" x2="143.34" y2="37.03"/>
			<line fill="none" stroke="#FFFFFF" stroke-width="0.25" stroke-miterlimit="10" x1="137.15" y1="38.33" x2="136.11" y2="39.15"/>
			<line fill="none" stroke="#FFFFFF" stroke-width="0.25" stroke-miterlimit="10" x1="137.72" y1="38.86" x2="136.4" y2="39.69"/>
			<line fill="none" stroke="#FFFFFF" stroke-width="0.25" stroke-miterlimit="10" x1="136.72" y1="40.63" x2="138.31" y2="39.41"/>
			<path fill="none" stroke="#FFFFFF" stroke-width="0.25" stroke-miterlimit="10" d="M138.55,39.78c0,0-1.18,0.96-1.45,1.04"/>
			<line fill="none" stroke="#FFFFFF" stroke-width="0.25" stroke-miterlimit="10" x1="138.86" y1="40.28" x2="137.13" y2="41.47"/>
			<line fill="none" stroke="#FFFFFF" stroke-width="0.25" stroke-miterlimit="10" x1="139.29" y1="40.98" x2="137.56" y2="42.14"/>
			<line fill="none" stroke="#FFFFFF" stroke-width="0.25" stroke-miterlimit="10" x1="139.57" y1="41.4" x2="138.13" y2="42.48"/>
			<line fill="none" stroke="#FFFFFF" stroke-width="0.25" stroke-miterlimit="10" x1="139.73" y1="41.79" x2="138.55" y2="42.69"/>
			<line fill="none" stroke="#FFFFFF" stroke-width="0.25" stroke-miterlimit="10" x1="137.45" y1="38.21" x2="138.07" y2="37.66"/>
			<line fill="none" stroke="#FFFFFF" stroke-width="0.25" stroke-miterlimit="10" x1="137.76" y1="38.33" x2="139.04" y2="37.58"/>
			<line fill="none" stroke="#FFFFFF" stroke-width="0.25" stroke-miterlimit="10" x1="140" y1="38.57" x2="138.59" y2="39.53"/>
			<line fill="none" stroke="#FFFFFF" stroke-width="0.25" stroke-miterlimit="10" x1="138.88" y1="39.92" x2="140.22" y2="39.19"/>
			<line fill="none" stroke="#FFFFFF" stroke-width="0.25" stroke-miterlimit="10" x1="140.53" y1="39.57" x2="139.27" y2="40.26"/>
			<line fill="none" stroke="#FFFFFF" stroke-width="0.25" stroke-miterlimit="10" x1="139.78" y1="41.32" x2="141.04" y2="40.41"/>
			<line fill="none" stroke="#FFFFFF" stroke-width="0.25" stroke-miterlimit="10" x1="141.44" y1="40.92" x2="140.02" y2="41.75"/>
			<line fill="none" stroke="#FFFFFF" stroke-width="0.25" stroke-miterlimit="10" x1="140.1" y1="42.22" x2="141.26" y2="41.63"/>
			<line fill="none" stroke="#FFFFFF" stroke-width="0.25" stroke-miterlimit="10" x1="142.14" y1="42.36" x2="140.65" y2="43.22"/>
			<line fill="none" stroke="#FFFFFF" stroke-width="0.25" stroke-miterlimit="10" x1="142.28" y1="42.69" x2="140.85" y2="43.62"/>
			<line fill="none" stroke="#FFFFFF" stroke-width="0.25" stroke-miterlimit="10" x1="140.93" y1="44.01" x2="142.12" y2="43.32"/>
			<line fill="none" stroke="#FFFFFF" stroke-width="0.25" stroke-miterlimit="10" x1="140.24" y1="45.21" x2="141" y2="44.78"/>
			<line fill="none" stroke="#FFFFFF" stroke-width="0.25" stroke-miterlimit="10" x1="141.36" y1="45.15" x2="140.59" y2="45.5"/>
			<line fill="none" stroke="#FFFFFF" stroke-width="0.25" stroke-miterlimit="10" x1="139.39" y1="44.6" x2="140.63" y2="43.81"/>
			<line fill="none" stroke="#FFFFFF" stroke-width="0.25" stroke-miterlimit="10" x1="140.47" y1="43.24" x2="139.27" y2="44.01"/>
			<line fill="none" stroke="#FFFFFF" stroke-width="0.25" stroke-miterlimit="10" x1="139.02" y1="43.6" x2="140.3" y2="42.89"/>
			<line fill="none" stroke="#FFFFFF" stroke-width="0.25" stroke-miterlimit="10" x1="140.34" y1="46.49" x2="140.22" y2="47.8"/>
			<line fill="none" stroke="#FFFFFF" stroke-width="0.25" stroke-miterlimit="10" x1="140.47" y1="47.88" x2="140.57" y2="46.72"/>
			<line fill="none" stroke="#FFFFFF" stroke-width="0.25" stroke-miterlimit="10" x1="140.39" y1="48.02" x2="140.28" y2="48.77"/>
			<line fill="none" stroke="#FFFFFF" stroke-width="0.25" stroke-miterlimit="10" x1="140.51" y1="48.87" x2="140.59" y2="48.02"/>
			<line fill="none" stroke="#FFFFFF" stroke-width="0.25" stroke-miterlimit="10" x1="139.22" y1="45.88" x2="138.98" y2="47.31"/>
			<line fill="none" stroke="#FFFFFF" stroke-width="0.25" stroke-miterlimit="10" x1="139.22" y1="47.59" x2="139.31" y2="48.83"/>
			<line fill="none" stroke="#FFFFFF" stroke-width="0.25" stroke-miterlimit="10" x1="138.72" y1="49.1" x2="138.84" y2="47.45"/>
			<line fill="none" stroke="#FFFFFF" stroke-width="0.25" stroke-miterlimit="10" x1="137.98" y1="47.53" x2="138.25" y2="49.06"/>
			<line fill="none" stroke="#FFFFFF" stroke-width="0.25" stroke-miterlimit="10" x1="137.25" y1="49.1" x2="136.72" y2="48.12"/>
			<line fill="none" stroke="#FFFFFF" stroke-width="0.25" stroke-miterlimit="10" x1="136.19" y1="48.43" x2="136.86" y2="49.28"/>
			<line fill="none" stroke="#FFFFFF" stroke-width="0.25" stroke-miterlimit="10" x1="136.21" y1="49.73" x2="135.7" y2="48.81"/>
			<line fill="none" stroke="#FFFFFF" stroke-width="0.25" stroke-miterlimit="10" x1="135.87" y1="48.59" x2="135.97" y2="47.04"/>
			<line fill="none" stroke="#FFFFFF" stroke-width="0.25" stroke-miterlimit="10" x1="136.58" y1="46.66" x2="136.42" y2="48.1"/>
			<line fill="none" stroke="#FFFFFF" stroke-width="0.25" stroke-miterlimit="10" x1="136.23" y1="46.8" x2="136.17" y2="47.8"/>
			<line fill="none" stroke="#FFFFFF" stroke-width="0.25" stroke-miterlimit="10" x1="137.09" y1="46.72" x2="137.03" y2="47.8"/>
			<line fill="none" stroke="#FFFFFF" stroke-width="0.25" stroke-miterlimit="10" x1="138.65" y1="45.94" x2="138.43" y2="47.31"/>
			<line fill="none" stroke="#FFFFFF" stroke-width="0.25" stroke-miterlimit="10" x1="138.07" y1="46.37" x2="138.02" y2="47.39"/>
			<line fill="none" stroke="#FFFFFF" stroke-width="0.25" stroke-miterlimit="10" x1="140.67" y1="36.27" x2="141.83" y2="36.42"/>
			<line fill="none" stroke="#FFFFFF" stroke-width="0.25" stroke-miterlimit="10" x1="141.81" y1="36.74" x2="140.37" y2="36.66"/>
			<line fill="none" stroke="#FFFFFF" stroke-width="0.25" stroke-miterlimit="10" x1="141.69" y1="37.54" x2="140.14" y2="37.54"/>
			<line fill="none" stroke="#FFFFFF" stroke-width="0.25" stroke-miterlimit="10" x1="141.49" y1="38.53" x2="140.2" y2="38.57"/>
			<line fill="none" stroke="#FFFFFF" stroke-width="0.25" stroke-miterlimit="10" x1="141.44" y1="38.13" x2="140.06" y2="37.98"/>
			<line fill="none" stroke="#FFFFFF" stroke-width="0.25" stroke-miterlimit="10" x1="142.77" y1="37.62" x2="141.95" y2="37.39"/>
			<line fill="none" stroke="#FFFFFF" stroke-width="0.25" stroke-miterlimit="10" x1="142.99" y1="38.07" x2="141.93" y2="37.6"/>
			<line fill="none" stroke="#FFFFFF" stroke-width="0.25" stroke-miterlimit="10" x1="142.46" y1="39.12" x2="141.61" y2="38.8"/>
			<line fill="none" stroke="#FFFFFF" stroke-width="0.25" stroke-miterlimit="10" x1="142.42" y1="39.53" x2="141.63" y2="39.51"/>
			<line fill="none" stroke="#FFFFFF" stroke-width="0.25" stroke-miterlimit="10" x1="142.3" y1="40.12" x2="141.59" y2="39.78"/>
			<path fill="#FFFFFF" d="M126.58,23.3c3.34,0,4.57,4.75,4.58,4.76c0.67,6.18-1.52,8.83-5.01,10.91c-3.82,2.28-6.07,5.16-6.09,5.19
				l-0.13,0.17l0.15,0.16c5.2,5.26,18.28,9.39,29.8,9.39c3.1,0,6.03-0.29,8.7-0.85c13.75-2.91,19.6-8.07,19.65-8.12l0.17-0.15
				l-0.13-0.18c-2.52-3.47-6.33-5.11-6.75-5.28c-4.98-3.85-3.08-11.53-3.06-11.6c0.87-3.23,4.38-3.58,5.85-3.58h0.19
				c-0.44,1.86-0.23,4.53-0.13,5.48c-0.43-0.08-0.85-0.12-1.26-0.12c-2.26,0-3.47,1.18-3.52,1.23l-0.05,0.05l-0.02,0.07
				c-0.04,0.17-0.22,1.73,4.66,4.98c4.71,3.14,4.77,8.37,4.77,8.42l-0.08,8.45c-0.79,0.81-8.96,8.62-28.01,9.46
				c-0.87,0.04-1.75,0.06-2.61,0.06c-17.47,0-27.39-7.96-28.39-8.8l-0.08-9.25c-0.08-5.55,5.03-9.2,5.4-9.46
				c3.45-1.33,5.01-4.38,5.07-4.51l0.1-0.21l-0.2-0.12c-1.17-0.69-2.43-1.04-3.75-1.04c-0.8,0-1.45,0.13-1.84,0.24
				c0.37-2.23,0-4.52-0.12-5.19C125.19,23.49,125.91,23.3,126.58,23.3L126.58,23.3 M126.58,23.05c-0.71,0-1.52,0.2-2.42,0.67
				c0,0,0.65,3.01,0.08,5.7c0,0,0.87-0.36,2.16-0.36c1.02,0,2.29,0.22,3.62,1.01c0,0-1.55,3.09-4.97,4.4c0,0-5.62,3.74-5.54,9.69
				l0.08,9.36c0,0,9.97,8.93,28.64,8.93c0.86,0,1.73-0.02,2.62-0.06c20.35-0.9,28.25-9.61,28.25-9.61l0.08-8.55
				c0,0,0-5.37-4.88-8.63c-4.89-3.26-4.56-4.72-4.56-4.72s1.16-1.16,3.34-1.16c0.47,0,0.98,0.05,1.54,0.18c0,0-0.49-3.83,0.16-6.03
				c0,0-0.19-0.02-0.51-0.02c-1.38,0-5.16,0.32-6.09,3.76c0,0-2.03,7.9,3.18,11.89c0,0,4.07,1.63,6.68,5.21c0,0-5.7,5.13-19.54,8.06
				c-2.75,0.58-5.68,0.85-8.65,0.85c-11.97,0-24.66-4.29-29.62-9.31c0,0,2.2-2.85,6.02-5.13c3.83-2.28,5.78-5.13,5.13-11.15
				c0,0-1.25-4.98-4.83-4.98C126.55,23.05,126.58,23.05,126.58,23.05z"/>
			<path fill="none" stroke="#FFFFFF" stroke-width="0.25" stroke-miterlimit="10" d="M125.36,23.47c0,0,0.33,4.62,0.08,5.35"/>
			<line fill="none" stroke="#FFFFFF" stroke-width="0.25" stroke-miterlimit="10" x1="126.14" y1="23.43" x2="126.2" y2="28.62"/>
			<line fill="none" stroke="#FFFFFF" stroke-width="0.25" stroke-miterlimit="10" x1="126.83" y1="23.39" x2="126.87" y2="28.62"/>
			<line fill="none" stroke="#FFFFFF" stroke-width="0.25" stroke-miterlimit="10" x1="127.64" y1="23.57" x2="127.58" y2="28.7"/>
			<line fill="none" stroke="#FFFFFF" stroke-width="0.25" stroke-miterlimit="10" x1="128.52" y1="24.06" x2="128.44" y2="28.87"/>
			<line fill="none" stroke="#FFFFFF" stroke-width="0.25" stroke-miterlimit="10" x1="129.27" y1="27.42" x2="129.23" y2="29.11"/>
			<line fill="none" stroke="#FFFFFF" stroke-width="0.25" stroke-miterlimit="10" x1="130.27" y1="30.47" x2="130.43" y2="34.28"/>
			<line fill="none" stroke="#FFFFFF" stroke-width="0.25" stroke-miterlimit="10" x1="129.66" y1="31.35" x2="129.84" y2="35.42"/>
			<line fill="none" stroke="#FFFFFF" stroke-width="0.25" stroke-miterlimit="10" x1="128.84" y1="32.35" x2="129.09" y2="36.5"/>
			<line fill="none" stroke="#FFFFFF" stroke-width="0.25" stroke-miterlimit="10" x1="128.29" y1="37.25" x2="128.03" y2="33.06"/>
			<line fill="none" stroke="#FFFFFF" stroke-width="0.25" stroke-miterlimit="10" x1="124.39" y1="37.56" x2="124.45" y2="39.84"/>
			<line fill="none" stroke="#FFFFFF" stroke-width="0.25" stroke-miterlimit="10" x1="123.57" y1="40.61" x2="123.25" y2="36.52"/>
			<line fill="none" stroke="#FFFFFF" stroke-width="0.25" stroke-miterlimit="10" x1="122.35" y1="37.48" x2="122.64" y2="41.32"/>
			<line fill="none" stroke="#FFFFFF" stroke-width="0.25" stroke-miterlimit="10" x1="121.72" y1="42.2" x2="121.52" y2="38.62"/>
			<line fill="none" stroke="#FFFFFF" stroke-width="0.25" stroke-miterlimit="10" x1="120.85" y1="39.86" x2="120.99" y2="42.85"/>
			<line fill="none" stroke="#FFFFFF" stroke-width="0.25" stroke-miterlimit="10" x1="120.15" y1="41.85" x2="120.34" y2="43.66"/>
			<line fill="none" stroke="#FFFFFF" stroke-width="0.25" stroke-miterlimit="10" x1="178.53" y1="42.2" x2="178.39" y2="44.66"/>
			<line fill="none" stroke="#FFFFFF" stroke-width="0.25" stroke-miterlimit="10" x1="177.73" y1="43.68" x2="177.92" y2="40.51"/>
			<line fill="none" stroke="#FFFFFF" stroke-width="0.25" stroke-miterlimit="10" x1="177.2" y1="39.11" x2="177.04" y2="42.93"/>
			<line fill="none" stroke="#FFFFFF" stroke-width="0.25" stroke-miterlimit="10" x1="176.43" y1="37.96" x2="176.19" y2="42.1"/>
			<line fill="none" stroke="#FFFFFF" stroke-width="0.25" stroke-miterlimit="10" x1="175.41" y1="36.97" x2="175.25" y2="41.32"/>
			<line fill="none" stroke="#FFFFFF" stroke-width="0.25" stroke-miterlimit="10" x1="174.36" y1="38.76" x2="174.28" y2="40.69"/>
			<line fill="none" stroke="#FFFFFF" stroke-width="0.25" stroke-miterlimit="10" x1="171.34" y1="35.68" x2="171.22" y2="38.88"/>
			<line fill="none" stroke="#FFFFFF" stroke-width="0.25" stroke-miterlimit="10" x1="170.55" y1="32.9" x2="170.47" y2="38.03"/>
			<line fill="none" stroke="#FFFFFF" stroke-width="0.25" stroke-miterlimit="10" x1="169.9" y1="32.29" x2="169.71" y2="37.25"/>
			<line fill="none" stroke="#FFFFFF" stroke-width="0.25" stroke-miterlimit="10" x1="169.19" y1="30.66" x2="168.92" y2="35.44"/>
			<line fill="none" stroke="#FFFFFF" stroke-width="0.25" stroke-miterlimit="10" x1="170.2" y1="25.24" x2="170.29" y2="29.98"/>
			<line fill="none" stroke="#FFFFFF" stroke-width="0.25" stroke-miterlimit="10" x1="171.34" y1="29.44" x2="171.2" y2="24.61"/>
			<line fill="none" stroke="#FFFFFF" stroke-width="0.25" stroke-miterlimit="10" x1="172.18" y1="24.41" x2="172.2" y2="29.42"/>
			<line fill="none" stroke="#FFFFFF" stroke-width="0.25" stroke-miterlimit="10" x1="172.95" y1="29.4" x2="172.97" y2="24.25"/>
			<line fill="none" stroke="#FFFFFF" stroke-width="0.25" stroke-miterlimit="10" x1="173.73" y1="24.16" x2="173.66" y2="29.37"/>
			<path fill="none" stroke="#FFFFFF" stroke-width="0.25" stroke-miterlimit="10" d="M169.6,30.78c0,0-1.35-1.4-0.98-3.4"/>
			<path fill="none" stroke="#FFFFFF" stroke-width="0.25" stroke-miterlimit="10" d="M130.98,27.81c0,0-0.16,1.42-0.63,2.12"/>
			<path fill="#FFFFFF" d="M148.93,4.5c19.46,0,35.29,20.1,35.29,44.82s-15.83,44.81-35.29,44.81s-35.29-20.1-35.29-44.81
				S129.47,4.5,148.93,4.5 M148.93,4.25c-19.62,0-35.54,20.18-35.54,45.07s15.92,45.06,35.54,45.06s35.54-20.17,35.54-45.06
				S168.55,4.25,148.93,4.25L148.93,4.25z"/>
			<path fill="#FFFFFF" d="M148.93,2.48c20.33,0,36.88,21.01,36.88,46.83s-16.54,46.83-36.88,46.83s-36.88-21.01-36.88-46.83
				S128.59,2.48,148.93,2.48 M148.93,2.23c-20.5,0-37.13,21.08-37.13,47.08s16.63,47.08,37.13,47.08s37.13-21.08,37.13-47.08
				S169.43,2.23,148.93,2.23C148.93,2.23,148.93,2.23,148.93,2.23z"/>
			<path fill="none" stroke="#FFFFFF" stroke-width="0.25" stroke-miterlimit="10" d="M178.3,44.85c0,0,0.43-0.15,0.61-1.4"/>
			<g>
				<path fill="none" stroke="#FFFFFF" stroke-width="0.25" stroke-miterlimit="10" d="M161.93,21.97v0.18
					c0,0.59,0.17,0.97,0.84,0.97c0.39,0,0.76-0.25,0.76-0.77c0-0.57-0.29-0.78-1.12-1.07c-1.13-0.39-1.65-0.85-1.65-1.9
					c0-1.22,0.75-1.85,1.94-1.85s1.95,0.48,1.95,1.69v0.18h-1.21c0-0.59-0.2-0.93-0.69-0.93c-0.57,0-0.72,0.36-0.72,0.73
					s0.11,0.62,0.65,0.85l0.98,0.42c0.95,0.41,1.2,0.9,1.2,1.66c0,1.33-0.81,1.92-2.18,1.92s-2-0.67-2-1.83v-0.25h1.27L161.93,21.97
					L161.93,21.97z"/>
				<path fill="none" stroke="#FFFFFF" stroke-width="0.25" stroke-miterlimit="10" d="M169.15,17.65v1.04h-1.37v5.24h-1.27v-5.24
					h-1.37v-1.04C165.14,17.65,169.15,17.65,169.15,17.65z"/>
			</g>
			<g>
				<path fill="none" stroke="#FFFFFF" stroke-width="0.25" stroke-miterlimit="10" d="M123.69,48.83l2.17,1.2l-0.25,0.46
					l-1.65-0.91l-0.73,1.32l1.56,0.86l-0.25,0.46l-1.56-0.86l-1.08,1.97l-0.52-0.29L123.69,48.83L123.69,48.83L123.69,48.83z"/>
				<path fill="none" stroke="#FFFFFF" stroke-width="0.25" stroke-miterlimit="10" d="M126.14,50.14l0.53,0.26l-2.14,4.29
					L124,54.43L126.14,50.14z"/>
				<path fill="none" stroke="#FFFFFF" stroke-width="0.25" stroke-miterlimit="10" d="M127.19,50.67l1.42,0.64
					c0.69,0.31,0.94,0.91,0.63,1.6c-0.22,0.48-0.61,0.91-1.17,0.8l0,0c0.36,0.23,0.43,0.63,0.29,1.02l-0.3,0.76
					c-0.19,0.5-0.17,0.65-0.08,0.79l-0.65-0.29c-0.05-0.13,0.05-0.48,0.13-0.7l0.27-0.7c0.23-0.62-0.09-0.8-0.36-0.93l-0.73-0.33
					l-0.87,1.95l-0.54-0.24L127.19,50.67L127.19,50.67L127.19,50.67z M126.84,52.9l0.53,0.24c0.32,0.14,0.9,0.4,1.28-0.44
					c0.19-0.43,0.02-0.83-0.48-1.05l-0.64-0.29C127.53,51.36,126.84,52.9,126.84,52.9z"/>
				<path fill="none" stroke="#FFFFFF" stroke-width="0.25" stroke-miterlimit="10" d="M131.59,53.86c0.18-0.47,0.13-0.86-0.39-1.06
					c-0.46-0.18-0.84-0.03-1.02,0.44c-0.48,1.26,1.92,1.32,1.29,2.95c-0.4,1.04-1.27,1.04-1.9,0.8c-1.05-0.4-1.15-1.06-0.78-2.01
					l0.55,0.21c-0.19,0.5-0.37,1.05,0.44,1.36c0.44,0.17,0.9-0.02,1.08-0.49c0.48-1.27-1.91-1.34-1.28-2.99
					c0.16-0.41,0.65-1.17,1.78-0.73c0.85,0.33,1.08,0.9,0.78,1.73C132.14,54.07,131.59,53.86,131.59,53.86z"/>
				<path fill="none" stroke="#FFFFFF" stroke-width="0.25" stroke-miterlimit="10" d="M132.95,58.07l-0.56-0.18l1.3-4.07
					l-1.14-0.37l0.16-0.5l2.86,0.91l-0.16,0.5l-1.15-0.37l-1.3,4.07h-0.01L132.95,58.07z"/>
				<path fill="none" stroke="#FFFFFF" stroke-width="0.25" stroke-miterlimit="10" d="M138.86,55.95c0.11-0.49,0-0.87-0.54-1
					c-0.49-0.11-0.83,0.09-0.95,0.59c-0.29,1.32,2.09,1.02,1.71,2.74c-0.24,1.08-1.1,1.21-1.77,1.06c-1.09-0.25-1.29-0.88-1.07-1.88
					l0.58,0.13c-0.12,0.53-0.21,1.1,0.63,1.29c0.46,0.1,0.89-0.14,1-0.64c0.3-1.32-2.08-1.05-1.7-2.77c0.1-0.43,0.47-1.25,1.66-0.99
					c0.89,0.2,1.2,0.74,1.02,1.6L138.86,55.95L138.86,55.95L138.86,55.95z"/>
				<path fill="none" stroke="#FFFFFF" stroke-width="0.25" stroke-miterlimit="10" d="M140.11,54.95l1.21,0.19
					c0.41,0.06,1.47,0.23,1.26,1.59c-0.14,0.88-0.78,1.29-1.58,1.16l-0.72-0.11l-0.31,2l-0.58-0.09L140.11,54.95L140.11,54.95
					L140.11,54.95z M140.34,57.29l0.7,0.11c0.43,0.07,0.83-0.17,0.93-0.8c0.08-0.52-0.11-0.89-0.69-0.98l-0.66-0.1L140.34,57.29
					L140.34,57.29L140.34,57.29z"/>
				<path fill="none" stroke="#FFFFFF" stroke-width="0.25" stroke-miterlimit="10" d="M143.07,55.37l0.59,0.06l-0.5,4.77
					l-0.59-0.06L143.07,55.37z"/>
				<path fill="none" stroke="#FFFFFF" stroke-width="0.25" stroke-miterlimit="10" d="M146.94,58.78c-0.1,0.9-0.49,1.72-1.54,1.67
					c-1.36-0.06-1.48-1.35-1.43-2.56c0.06-1.21,0.34-2.48,1.66-2.42c0.98,0.05,1.36,0.62,1.35,1.56L146.36,57
					c0-0.54-0.14-1.01-0.75-1.04c-0.82-0.04-0.97,0.86-1.02,1.96c-0.05,1.11,0,2.01,0.83,2.05c0.72,0.03,0.85-0.63,0.9-1.22
					L146.94,58.78L146.94,58.78L146.94,58.78z"/>
				<path fill="none" stroke="#FFFFFF" stroke-width="0.25" stroke-miterlimit="10" d="M147.3,55.61l2.48-0.06v0.52l-1.87,0.04
					l0.04,1.5l1.78-0.04v0.52l-1.77,0.04l0.04,1.72l1.97-0.05v0.52l-2.54,0.06l-0.12-4.79L147.3,55.61L147.3,55.61z"/>
				<path fill="none" stroke="#FFFFFF" stroke-width="0.25" stroke-miterlimit="10" d="M151.66,55.46l0.99-0.1l1.35,3.68l0,0
					l0.57-3.88l0.99-0.1l0.49,4.77l-0.59,0.06l-0.43-4.17l0,0L154.41,60l-0.59,0.06L152.33,56l0,0l0.43,4.17l-0.59,0.06l-0.49-4.77
					h-0.01H151.66z"/>
				<path fill="none" stroke="#FFFFFF" stroke-width="0.25" stroke-miterlimit="10" d="M156.14,54.95l0.58-0.09l0.7,4.74l-0.58,0.08
					L156.14,54.95L156.14,54.95L156.14,54.95z"/>
				<path fill="none" stroke="#FFFFFF" stroke-width="0.25" stroke-miterlimit="10" d="M157.06,54.83l0.65-0.12l1.18,1.61l0.54-1.92
					l0.61-0.11l-0.76,2.53l1.69,2.17l-0.65,0.12l-1.28-1.72l-0.62,2.06l-0.61,0.11l0.82-2.63l-1.58-2.11l0,0L157.06,54.83z"/>
				<path fill="none" stroke="#FFFFFF" stroke-width="0.25" stroke-miterlimit="10" d="M160.35,54.2l0.58-0.12l1.01,4.69l-0.58,0.12
					L160.35,54.2z"/>
				<path fill="none" stroke="#FFFFFF" stroke-width="0.25" stroke-miterlimit="10" d="M161.51,53.96l0.74-0.19l2.54,3.48l0,0
					l-1-3.88l0.57-0.15l1.2,4.64l-0.79,0.2l-2.46-3.37l0,0l0.97,3.76l-0.57,0.15L161.51,53.96z"/>
				<path fill="none" stroke="#FFFFFF" stroke-width="0.25" stroke-miterlimit="10" d="M167.4,53.65c-0.18-0.47-0.5-0.83-1.05-0.65
					c-0.78,0.26-0.6,1.14-0.26,2.2c0.34,1.05,0.73,1.88,1.5,1.62c0.78-0.26,0.53-1.21,0.33-1.81l-0.9,0.29l-0.15-0.46l1.41-0.46
					l0.78,2.37l-0.42,0.14l-0.2-0.62l0,0c0,0.43-0.25,0.87-0.75,1.03c-1.19,0.39-1.77-0.69-2.17-1.91
					c-0.38-1.15-0.57-2.44,0.69-2.85c1.31-0.43,1.71,0.68,1.79,0.91l-0.59,0.19l0,0L167.4,53.65z"/>
				<path fill="none" stroke="#FFFFFF" stroke-width="0.25" stroke-miterlimit="10" d="M173.21,53.18c0.33,0.85,0.36,1.75-0.59,2.19
					c-1.24,0.57-1.94-0.51-2.45-1.61s-0.84-2.35,0.35-2.91c0.89-0.41,1.49-0.09,1.91,0.75l-0.56,0.26
					c-0.24-0.49-0.59-0.83-1.15-0.58c-0.74,0.35-0.46,1.21,0,2.21c0.47,1,0.94,1.78,1.69,1.43c0.65-0.3,0.46-0.95,0.23-1.49
					l0.56-0.26l0,0L173.21,53.18z"/>
				<path fill="none" stroke="#FFFFFF" stroke-width="0.25" stroke-miterlimit="10" d="M175.63,50.77c0.66,1.02,1.17,2.21,0.06,2.93
					s-2-0.24-2.65-1.25c-0.66-1.02-1.17-2.21-0.06-2.93S174.97,49.76,175.63,50.77z M173.56,52.11c0.6,0.93,1.18,1.63,1.87,1.18
					c0.69-0.44,0.29-1.26-0.31-2.19c-0.6-0.93-1.18-1.63-1.87-1.18C172.56,50.36,172.96,51.18,173.56,52.11z"/>
				<path fill="none" stroke="#FFFFFF" stroke-width="0.25" stroke-miterlimit="10" d="M177.01,51.69l0.44-0.44l0.5,0.5l-0.44,0.44
					L177.01,51.69z"/>
			</g>
		</g>
		<path fill-rule="evenodd" fill="#FFFFFF" d="M247.19,26.25c3.56,0,6.32,1.5,6.24,4.67c-0.08,3.04-3.08,4.68-6.16,4.69
			c-2.77,0-6.59-1.28-7.01-3.92C239.57,27.39,243.51,26.26,247.19,26.25z"/>
		<path fill-rule="evenodd" fill="#FFFFFF" d="M252.09,35.19c0.29-0.04,0.45,0.06,0.5,0.26c-0.27,4.07,0.22,7.41,0.05,11.38
			c0.16,0.76,1.69,0.2,1.75,1.04c0,0.67-0.02,1.35-0.04,2.02c-5.06-0.09-9.69,0.25-14.92-0.02c-0.43-0.58-0.09-1.9-0.46-2.54
			c1,0,1.48-0.53,2.29-0.72c0.16-4.59-0.22-6.55-0.05-11.38c1.37-0.19,2.32,1.5,4.01,1.84c2.66,0.54,5.91,0.08,6.86-1.9v0.02
			L252.09,35.19z"/>
		<path fill-rule="evenodd" fill="#FFFFFF" d="M199.52,32.71c-2.49,0.25-4.37,1.14-5.61,2.68c2.88,2.1,7.88,3.35,11.79,5.27
			c2.79,1.37,4.86,2.56,4.43,6.91c2.17-0.49,1.14-3.26,1.1-4.79c-0.11-3.99,0.08-8.51-0.03-12.39c6.84-4.45,21.94-7.28,27.06,0.24
			c5.81,8.52-4.54,18.6-15.95,14.63c-1.07,3.15,2.92,1.73,1.69,4.33c-0.64,0.96-2.53,0.4-4.06,0.43c-3.04,0.07-6.21,0.31-9.87,0.07
			c-1.04,1.46-1.86,4.34-3.65,6c-3.73,3.46-13.8,6.22-19.83,5.46c-3.61-0.46-6.2-1.97-7.5-4.69c-0.51-1.07-1.73-2.78-0.93-4.57
			c0.84-0.89,2.85-0.94,4.32-1.19c4.21-0.7,9.7-1,13.45-2.54c-1.43-1.8-4.54-1.9-7.03-2.91c-0.5-0.2-1.02-0.84-1.5-1.04
			c-1.62-0.68-3.56-0.98-5.02-2.11c-2.11-3.21-3.01-9.98-1.03-13.17c1.3-2.09,6.87-4.7,9.72-6.15c4.11-2.09,7.59-4.15,11.21-4.35
			c3.99-0.22,5.58,2.59,6.98,5.44c1.57,3.18,1.76,6.02-0.41,8.59c-1.17,1.38-4.23,4.02-5.38,3.95c-2.25-0.13-2-3.19-3.97-4.12
			L199.52,32.71L199.52,32.71z M221.71,36.66c0.88,1.81,8.04,2.32,8.6-0.09C229.9,34.75,221.56,34.31,221.71,36.66z"/>
		<g>
			<path fill-rule="evenodd" fill="#FFFFFF" d="M30.31,23.69c0.23,3.68,0.34,8.76-0.23,12.39c-3.2-0.09-6.82-0.87-9.36-0.17
				c0,0.34-0.01,0.67-0.02,1.01c0.34,0.95,1.82,0.52,2.77,0.56c2.37,0.09,5.43-0.25,6.83,0.13c0.45,2.96-0.01,6.8,0.33,9.87
				c-3.3,0.42-6.99,0.08-9.87,0.33c-0.19,4.38-0.2,12.51-0.08,18.21c-0.1,1.1,2.67,0.73,1.74,1.8c-0.72,1.38-3.35,0.62-5.32,0.66
				c-3.67,0.07-8.16,0.51-11.13-0.2c-0.38-1.51,0.83-1.37,1.05-2.26c0.15-14.78,0.09-28.66,0-41.73c5.77-0.96,12.76-0.23,19.23-0.41
				c1.39-0.04,2.72-0.43,4.05-0.18l0,0L30.31,23.69z"/>
			<path fill-rule="evenodd" fill="#FFFFFF" d="M42.93,24.93c1.89,2.39,0.59,6.11-2.16,7.3c-4.82,2.08-12.4-3.35-7.46-7.22
				C35.61,23.21,40.17,23.64,42.93,24.93L42.93,24.93L42.93,24.93z"/>
			<path fill-rule="evenodd" fill="#FFFFFF" d="M119.86,23.3c-0.2,4.06,0.13,9.43-0.2,10.87c-1.42-0.22-3.06,0.05-5.06-0.09
				c-0.61,3.11,0,6.43-0.42,9.1c0.31,1.35,1.56,1.81,1.45,3.57c-4.34,0.17-9.75,0.51-13.91,0c-0.24-1.62,1.12-1.59,1.31-2.76
				c0.26-3.48-0.2-6.26-0.08-9.61c-2.16-0.21-3.51-0.19-5.56-0.1c-0.44-3.09-0.07-7.89-0.06-10.63
				C104.53,23.22,112.32,23.4,119.86,23.3L119.86,23.3L119.86,23.3z"/>
			<path fill-rule="evenodd" fill="#FFFFFF" d="M95.81,24.12c-0.05,2.95,0.33,5.48,0.1,8.6c-3.2,0.83-8.26-1.2-10.89,0.56
				c0.86,0.96,2.46,0.58,3.53,0.57c4.22-0.02,8.47-0.23,8.77,4.46c0.5,7.64-8.77,10.11-16.35,9.06c-1.98-0.27-4.11-1.17-5.01-2.62
				c0.14-2.38-0.06-4.87,0.12-6.57c2.9-0.06,7.99,0.99,10.88-0.31c-2-1.9-5.85-0.08-8.34-0.66c-3.61-0.84-3.62-6.11-1.6-9.14
				C80.02,23.57,88.66,23.28,95.81,24.12L95.81,24.12L95.81,24.12z"/>
			<path fill-rule="evenodd" fill="#FFFFFF" d="M68.73,38.8c1.14,2.32,2.69,4.6,4.69,6.16c0.76,0.59,2.28,0.54,2.5,1.82
				c-4.15,0.87-8.44,0.32-12.91,0.52c-2.38-1.34-2.75-4.64-5.46-5.67c-0.62,0.54-0.41,1.87-0.05,2.78c0.43,1.11,2.08,1.45,1.48,2.3
				c-1.22,1.4-4.24,0.58-6.59,0.64c-4.41,0.11-10.74,0.25-16.19,0.21c-1.64-0.01-3.5,0.33-4.8-0.34c-0.6-0.81,0.85-1.22,0.8-2.26
				c-0.13-4.56,0.12-7.26-0.03-12.14c1.31-0.41,2.21,0.85,3.77,1.08c2.81,0.42,5.35-0.81,7.61-1.38c0.71,4.45-0.64,10.12,0.77,13.42
				c1.99-0.05,1.34-2.59,1.34-4.02c0-4.37-0.12-9.36,0-14.17c3.96-1.88,11.4-4.34,18.03-3.72c4.86,0.46,11.02,3.21,10.47,8.54
				c-0.34,3.28-3.26,4.3-5.42,6.22L68.73,38.8L68.73,38.8z M56.92,34.8c1.27,1.21,5.65,1.69,6.83,0.12
				c0.11-0.61-0.45-0.56-0.23-1.27c-1.66-0.71-6.37-1.23-6.6,1.14l0,0L56.92,34.8z"/>
		</g>
		<path fill-rule="evenodd" fill="#FFFFFF" d="M274.21,30.67c-0.25,2.53,0.08,5.08-0.33,7.35c-3.03-0.75-5.72-1.76-9.02-0.67
			c-1.01,1.73-1.09,2.94-0.33,4.01c1.99,2.82,8.61-0.11,11.02-0.67c-1.1,2.13-0.14,4.49-1,6.35c-1.12,2.4-5.51,3.71-8.35,3.67
			c-5.38-0.08-10.96-4.23-11.69-9.35c-1.42-10.04,10.31-17.35,19.71-10.69C274.22,30.67,274.21,30.67,274.21,30.67z"/>
		<path fill-rule="evenodd" fill="#FFFFFF" d="M296.98,30.01c-0.09,2.85-0.19,5.67-0.24,7.93c-2.46,0.83-7.08-0.5-9.14,0.72
			c0.63,1.43,3.42,0.78,5.53,0.96c2.3,0.2,5.43-0.7,6.97,0.72c-0.49,2.05-3.46,1.17-5.05,1.2c-2.76,0.06-5.45-0.16-7.45,0.48
			c1.01,1.75,4.47,0.87,6.49,0.96c1.45,0.07,2.88,0.26,4.09,0.48c-0.26,1.23-1.51,1.05-1.92,2.4c-0.38,1.26,0.27,2.82,0,4.57
			c-4.06,0.59-8.54,0.14-12.74,0c-2.8-0.09-5.89,0.59-7.93-0.48c-0.28-1.48,1.14-1.27,1.92-1.68c0.4-5.44,0.46-12.7,0.48-18.51
			c-0.04-0.2,0.09-0.23,0.24-0.24c5.87-0.42,13.15-0.17,18.75,0.48l0,0V30.01z"/>
	</g>
</g>
</svg>
