<?xml version="1.0" encoding="UTF-8"?>
<svg id="Layer_1" data-name="Layer 1" xmlns="http://www.w3.org/2000/svg" version="1.1" viewBox="0 0 403.2 72">
  <defs>
    <style>
      .cls-1 {
        fill: #c02026;
        fill-rule: evenodd;
        stroke: #ef3837;
        stroke-width: .3px;
      }
    </style>
  </defs>
  <g>
    <path class="cls-1" d="M271.75,21.62c-4.07,5.45-8.14,11.25-11.85,17.21-1.23,1.97-2.09,4.26-3.88,5.82-1.29-2.06.49-4.41,1.29-6.33,2.49-5.99,5.4-12.75,7.65-19.17-5.95,8.87-11.38,18.92-17.47,28.18-.82,1.25-1.86,2.92-3.81,2.05.82-.34.48-1.03,1.22-2.33,1.42-2.5,3.6-5.22,5.33-7.91,5.61-8.75,11.35-17.81,16.75-27.01.49-.84,1.05-1.84,1.7-2.79.56-.84.62-2.55,2.39-1.84-1.27,4.41-2.99,9.03-4.72,13.57-1.71,4.48-3.75,8.81-5.42,13.09,1.93-1.87,2.99-4.57,4.6-6.98,3.83-5.74,8.11-11.53,12.1-17.44.73-1.09,1.4-2.72,2.88-3.01.63,1.45-.84,3.3-1.74,4.91-.9,1.62-1.83,3.23-2.68,4.9-1.67,3.29-3.11,6.73-4.66,10.28-2.29,5.25-4.23,10.32-6.19,16.37-.28.86-.44,2.11-.76,3.05-.24.7-.22,2.12-1.45,2.09-1.02-1-.16-2.52.07-3.53,1.76-8,5.02-15.68,8.41-22.22,0-.16,0-.31,0-.47.05-.19.24-.23.24-.47Z"/>
    <path class="cls-1" d="M325.46,21.19c.41-1.23,2.43-2.05,2.19-3.73-.08-.52-.5-.99-1.15-1.43-3.21,1.38-6.36,4.64-9.1,8.08-.9,1.13-1.76,2.3-2.66,3.72-1.07,1.68-3.05,4.58-3.89,6.76-.86,2.24-1.47,5.17-.13,7.06,2.85-.19,4.45-1.75,5.95-3.42,1.39-1.55,2.04-4.52,4.79-4.62.03,1.42-1.45,3.09-2.68,4.66-2.24,2.87-7.67,8.71-10.65,2.87.12-1.34-.13-3.37.33-5.17.93-3.64,4.14-8.51,6.82-12.12,1.32-1.78,2.82-3.53,4.33-5.1,1.88-1.95,4.63-4.58,6.91-4.35,3.78.38,3.21,7.76-1.07,6.81Z"/>
    <path class="cls-1" d="M390.47,20.26c-.53.65-1.59.75-2.37,1.14-1.99,1.85-3.27,4.45-4.6,6.98.81.59,1.21-1.29,2.6-.89.5,2.28-2.35,2.93-4.07,3.69-1.73,2.65-3.91,7.95-6.31,10.25-.61.58-3.22,1.44-4.49.86-2.53-1.17-1.76-7.68,2.24-6.55-.36,1.86-2.57,1.81-2.2,4.44-.08.54.68.27.69.72,1.65.2,3.08-1.1,3.81-2.05,1.53-2,2.58-4.83,3.9-6.99-.99-1.54-3.05-1.64-3.23-3.83-.49-5.94,9.01-8.3,13.6-9.41.19.51.59.81.44,1.66ZM378.59,26.16c-.25,2.01.27,3.29,1.82,3.57,1.64-2.38,2.99-5.05,4.61-7.45-2.89.52-4.92,1.94-6.43,3.89Z"/>
    <path class="cls-1" d="M277.98,28.56c.89,1.34.25,3.5-1.94,3.03-.84-1.28-.26-3.5,1.94-3.03Z"/>
    <path class="cls-1" d="M289.04,29c1.77.3.84,3.58-1.23,2.8-.61-1.13.09-2.71,1.23-2.8Z"/>
    <path class="cls-1" d="M397.76,33.81c.02,1.06.01,2.09-.75,2.34-1.09.2-.96-.77-1.39-1.2-2.17,1.19-4.05,2.67-4.34,5.81,1.83,1.89,2.76-1.89,4.49-.86-.29,2.49-4.43,3.78-5.92,1.54-1.04.21-1.3,1.21-2.61,1.13-3.3-2.26,1.21-5.15,1.79-7.74-2.64.6-3.64,3.22-5.05,5.56-.58.97-1.02,2.84-2.86,1.83.87-2.7,3.14-3.94,3.66-7-1.67.18-2.43,2.36-3.6,3.94-1.08,1.46-2.41,3.53-4.3,3.22-.48-1.37,1-1.55,1.69-2.32,1.97-2.18,3.01-5.92,6.01-6.96,1.15-.11,1.08.96,1.86,1.21.84-.57,1.47-1.35,3.08-1.12,0,.23.29.19.47.24,1.56,3.08-1.93,4.58-2.25,7.26,2.13.05,2.64-3.27,4.33-5.1,1.43-1.55,4.02-3.4,5.68-1.78Z"/>
    <path class="cls-1" d="M343.85,32.59c.77-.05,1.13.3,1.16.96.47-.46,1.35-.12,1.88.04.2.8.63,1.39.42,2.6,1.27-1.22,4.23-3.72,7.35-2.46-1.16,2.55-2.94,4.47-3.9,7.23,2.85-1.09,3.63-9.84,8.13-6.68,1.23-.33,2.4-1.12,3.3.06-.04,3.24-2.48,3.98-2.95,6.77,2.24-.64,2.76-2.95,4.1-5.11.67-1.07,1.19-2.92,2.88-2.77-.01,2.41-2.54,4.22-2.96,7.01,1.59-.48,2.4-2.32,3.37-3.71.9-1.3,1.55-3.66,3.59-3-2.34,4.18-5.13,8.19-7.53,12.58-.73,1.33-1.07,3.26-2.66,3.95-1.12-2.85,2.05-4.95,2.96-7.25-1.34-.95-2.21-.82-4.23-.31-.22-.32-.62-.48-.93-.72-.2-3.24,2.11-3.89,2.71-6.31-1.86.26-2.64,2.79-3.86,4.88-.5.86-1.09,2.34-2.39,2.07-.17-2.51,2.38-4.23,2.95-6.78-2.85,1.27-3.15,5.64-6.25,6.95-.7-.1-1.19-.4-1.64-.73-.95.46-2.18,1.34-3.54.64-.27-.67-.23-1.63-.19-2.6-1.12,1.25-3.17,3.96-5.22,2.02-1.84,1.49-1.95,5.92-5.04,5.33-.11-1.44,1.64-2.9,2.2-4.43-.42-.77-1.43.47-1.88-.27-.2-.19-.13-.65-.46-.71.3-2.97,2.59-3.87,3.18-6.54-2.3.61-3.49,2.97-4.8,5.1-.62,1-1.07,2.89-2.63,2.31.65-2.76,2.5-4.28,3.42-6.77-3.24,1.2-3.82,5.15-6.02,7.43-.74.1-.61-.64-1.16-.73.9-2.51,2.71-4.07,3.42-6.77-1.13.42-1.58,1.56-2.86,1.83-1.47,2.48-2.86,5.03-6,5.78-5.57-1.74.34-10.52,5.36-9.79.44.5.65,1.22.91,1.9,1.29-.5,1.84-1.77,3.33-2.06.86.93,2.36.81,3.07-.18,1.09-.26,1.01,1.15,1.63,1.21.73.07,1.35-1.58,2.62-1.6,3.7,2-.66,5.27-1.32,7.75,3.2-.68,4.79-5.11,6.5-8.12ZM341.58,41.03c2.63-.71,3.68-3.06,4.34-5.81-2.3-.04-4.42,3.38-4.34,5.81ZM347.47,40.9c2.49,0,3.18-3.88,4.58-5.8-2.83.59-3.96,2.93-4.58,5.8ZM326.6,35.81c.29-.7-.97-1.03-1.17-.49.55.11.62,1.05,1.17.49ZM321.31,41.6c2.27-.44,3.39-2.08,4.31-3.93-.47-.55-.9-1.13-1.14-1.91-1.26,1.73-3.06,2.9-3.17,5.83Z"/>
    <path class="cls-1" d="M305.91,33.78c-1.04,3.17-2.96,6.38-4.64,9.34-.77,1.34-1.86,2.83-2.67,4.19-.67,1.12-1.38,3.89-3.35,3,.79-2.7,2.4-4.54,3.66-6.76-.83-.43-1.76-.77-2.33-1.46-.84.57-1.47,1.35-3.08,1.12-2.21-3.08,1.82-5.09,2.03-7.97-2.58,1.17-3.4,4.2-5.06,6.5-.48.66-1.1,1.84-2.15,1.61-.07-3.13,3.3-4.72,3.68-8.17-1.81.49-2.48,2.61-3.61,4.17-.96,1.34-2.43,3.47-3.84,3.7-1.18.19-1.48-.7-2.34-.75-1.05-.06-1.46,1.12-2.84.65-.42-.6-.78-1.25-.66-2.37-1.97.12-2.07,3.18-4.05,2.51.56-3.35,4.69-4.24,4.84-7.21-2.61.23-4.51,7.85-8.14,7.15-.85-.17-1.12-.4-1.39-1.44-1.06.62-2.15,2.08-3.79,1.34.24-1.3,1.73-1.56,2.63-2.31.76-.63,1.77-1.53,2.4-2.31,1.27-1.56,1.58-4.1,3.38-4.65,1.44,1.05-.28,2.49-1,3.51-.84,1.19-1.79,2.53-2.19,3.73,3.71-.12,3.95-6.72,8.37-7.15.79.09.93.81,1.15,1.43,1.4-.39,1.69-1.93,3.33-2.06.36,3.45-5.53,3.66-3.92,8.41.81-.28,1.6-.7,2.14-1.37,1.56-1.92,1.81-5.57,4.36-6.51,1.01,2.96-2.67,4.8-2.97,7.95,3.92-1.53,3.79-7.26,8.16-8.33.79.09.92.81,1.15,1.43,1.25-.25,1.76-1.46,3.31-.88,3.24,1.21-1.67,5.5-2.02,7.5.48.71.97-.58,1.66-.44.89-3.55,2.8-6.05,5.79-7.43,1.75-.32,2.48,1.11,3.3-.18.31.09.36.42.7.48ZM298.23,41.65c1.71.3,2.66-1.52,3.35-2.53.75-1.12,1.83-2.64,1.48-3.98-2.81.83-5,3.36-4.83,6.51Z"/>
    <path class="cls-1" d="M367.26,40.56c0,.23.28.19.46.25.04,1.8-.72,2.77-1.94,3.26-.36-1.16.17-3.29,1.48-3.5Z"/>
  </g>
  <path class="cls-1" d="M198.79,16.53c3.56,0,6.32,1.5,6.24,4.67-.08,3.04-3.08,4.69-6.16,4.69-2.77,0-6.59-1.28-7.01-3.92-.69-4.3,3.25-5.44,6.93-5.44Z"/>
  <path class="cls-1" d="M203.68,25.48c.29-.04.45.06.5.26-.27,4.07.22,7.41.05,11.38.16.76,1.69.2,1.75,1.04-.01.67-.02,1.35-.04,2.02-5.06-.09-9.69.25-14.92-.02-.43-.58-.09-1.9-.46-2.54,1,0,1.48-.53,2.29-.72.16-4.59-.22-6.55-.05-11.38,1.37-.19,2.32,1.5,4.01,1.84,2.66.54,5.91.08,6.86-1.9Z"/>
  <path class="cls-1" d="M151.11,23c-2.49.25-4.37,1.14-5.61,2.68,2.88,2.1,7.88,3.35,11.79,5.27,2.79,1.37,4.86,2.56,4.43,6.91,2.17-.49,1.14-3.26,1.1-4.79-.11-3.99.08-8.51-.03-12.39,6.84-4.45,21.94-7.28,27.06.24,5.81,8.52-4.54,18.6-15.95,14.63-1.07,3.15,2.92,1.73,1.69,4.33-.64.96-2.53.4-4.06.43-3.04.07-6.21.31-9.87.07-1.04,1.46-1.86,4.34-3.65,6-3.73,3.46-13.8,6.22-19.83,5.46-3.61-.46-6.2-1.97-7.5-4.69-.51-1.07-1.73-2.78-.93-4.57.84-.89,2.85-.94,4.32-1.19,4.21-.7,9.7-1,13.45-2.54-1.43-1.8-4.54-1.9-7.03-2.91-.5-.2-1.02-.84-1.5-1.04-1.62-.68-3.56-.98-5.02-2.11-2.11-3.21-3.01-9.98-1.03-13.17,1.3-2.09,6.87-4.7,9.72-6.15,4.11-2.09,7.59-4.15,11.21-4.35,3.99-.22,5.58,2.59,6.98,5.44,1.57,3.18,1.76,6.02-.41,8.59-1.17,1.38-4.23,4.02-5.38,3.95-2.25-.13-2-3.19-3.97-4.12ZM173.3,26.94c.88,1.81,8.04,2.32,8.6-.09-.41-1.82-8.75-2.26-8.6.09Z"/>
  <g>
    <path class="cls-1" d="M31.94,19.98c.23,3.68.34,8.76-.23,12.39-3.2-.09-6.82-.87-9.36-.17,0,.34-.01.67-.02,1.01.34.95,1.82.52,2.77.56,2.37.09,5.43-.25,6.83.13.45,2.96-.01,6.8.33,9.87-3.3.42-6.99.08-9.87.33-.19,4.38-.2,12.51-.08,18.21-.1,1.1,2.67.73,1.74,1.8-.72,1.38-3.35.62-5.32.66-3.67.07-8.16.51-11.13-.2-.38-1.51.83-1.37,1.05-2.26.15-14.78.09-28.66,0-41.73,5.77-.96,12.76-.23,19.23-.41,1.39-.04,2.72-.43,4.05-.18Z"/>
    <path class="cls-1" d="M44.56,21.22c1.89,2.39.59,6.11-2.16,7.3-4.82,2.08-12.4-3.35-7.46-7.22,2.3-1.8,6.86-1.37,9.61-.08Z"/>
    <path class="cls-1" d="M121.49,19.59c-.2,4.06.13,9.43-.2,10.87-1.42-.22-3.06.05-5.06-.09-.61,3.11,0,6.43-.42,9.1.31,1.35,1.56,1.81,1.45,3.57-4.34.17-9.75.51-13.91,0-.24-1.62,1.12-1.59,1.31-2.76.26-3.48-.2-6.26-.08-9.61-2.16-.21-3.51-.19-5.56-.1-.44-3.09-.07-7.89-.06-10.63,7.2-.43,14.99-.25,22.52-.35Z"/>
    <path class="cls-1" d="M97.44,20.41c-.05,2.95.33,5.48.1,8.6-3.2.83-8.26-1.2-10.89.56.86.96,2.46.58,3.53.57,4.22-.02,8.47-.23,8.77,4.46.5,7.64-8.77,10.11-16.35,9.06-1.98-.27-4.11-1.17-5.01-2.62.14-2.38-.06-4.87.12-6.57,2.9-.06,7.99.99,10.88-.31-2-1.9-5.85-.08-8.34-.66-3.61-.84-3.62-6.11-1.6-9.14,3-4.5,11.64-4.79,18.79-3.96Z"/>
    <path class="cls-1" d="M70.36,35.09c1.14,2.32,2.69,4.6,4.69,6.16.76.59,2.28.54,2.5,1.82-4.15.87-8.44.32-12.91.52-2.38-1.34-2.75-4.64-5.46-5.67-.62.54-.41,1.87-.05,2.78.43,1.11,2.08,1.45,1.48,2.3-1.22,1.4-4.24.58-6.59.64-4.41.11-10.74.25-16.19.21-1.64-.01-3.5.33-4.8-.34-.6-.81.85-1.22.8-2.26-.13-4.56.12-7.26-.03-12.14,1.31-.41,2.21.85,3.77,1.08,2.81.42,5.35-.81,7.61-1.38.71,4.45-.64,10.12.77,13.42,1.99-.05,1.34-2.59,1.34-4.02,0-4.37-.12-9.36,0-14.17,3.96-1.88,11.4-4.34,18.03-3.72,4.86.46,11.02,3.21,10.47,8.54-.34,3.28-3.26,4.3-5.42,6.22ZM58.55,31.09c1.27,1.21,5.65,1.69,6.83.12.11-.61-.45-.56-.23-1.27-1.66-.71-6.37-1.23-6.6,1.14Z"/>
  </g>
  <path class="cls-1" d="M225.8,20.96c-.25,2.53.08,5.08-.33,7.35-3.03-.75-5.72-1.76-9.02-.67-1.01,1.73-1.09,2.94-.33,4.01,1.99,2.82,8.61-.11,11.02-.67-1.1,2.13-.14,4.49-1,6.35-1.12,2.4-5.51,3.71-8.35,3.67-5.38-.08-10.96-4.23-11.69-9.35-1.42-10.04,10.31-17.35,19.71-10.69Z"/>
  <path class="cls-1" d="M248.57,20.29c-.09,2.85-.19,5.67-.24,7.93-2.46.83-7.08-.5-9.14.72.63,1.43,3.42.78,5.53.96,2.3.2,5.43-.7,6.97.72-.49,2.05-3.46,1.17-5.05,1.2-2.76.06-5.45-.16-7.45.48,1.01,1.75,4.47.87,6.49.96,1.45.07,2.88.26,4.09.48-.26,1.23-1.51,1.05-1.92,2.4-.38,1.26.27,2.82,0,4.57-4.06.59-8.54.14-12.74,0-2.8-.09-5.89.59-7.93-.48-.28-1.48,1.14-1.27,1.92-1.68.4-5.44.46-12.7.48-18.51-.04-.2.09-.23.24-.24,5.87-.42,13.15-.17,18.75.48Z"/>
</svg>