<?xml version="1.0" standalone="no"?>
<!DOCTYPE svg PUBLIC "-//W3C//DTD SVG 20010904//EN"
 "http://www.w3.org/TR/2001/REC-SVG-20010904/DTD/svg10.dtd">
<svg version="1.0" xmlns="http://www.w3.org/2000/svg"
 width="1067.000000pt" height="1067.000000pt" viewBox="0 0 1067.000000 1067.000000"
 preserveAspectRatio="xMidYMid meet">
<metadata>
Created by potrace 1.14, written by Peter Selinger 2001-2017
</metadata>
<g transform="translate(0.000000,1067.000000) scale(0.100000,-0.100000)"
fill="#000000" stroke="none">
<path d="M5100 10334 c-19 -2 -80 -9 -135 -15 -132 -13 -361 -60 -510 -103
-358 -103 -727 -283 -1052 -513 -322 -227 -664 -564 -922 -907 -473 -628 -811
-1404 -975 -2236 -78 -395 -106 -669 -113 -1110 -9 -555 29 -958 139 -1459
342 -1568 1290 -2850 2501 -3381 897 -393 1872 -368 2748 71 705 353 1305 944
1753 1727 635 1109 880 2517 675 3882 -28 187 -92 491 -140 667 -254 928 -694
1712 -1303 2318 -514 513 -1123 857 -1756 993 -221 48 -366 63 -625 67 -137 2
-266 1 -285 -1z m603 -99 c948 -125 1790 -652 2442 -1530 790 -1062 1170
-2554 1020 -4004 -121 -1159 -555 -2214 -1238 -3007 -124 -143 -373 -386 -515
-502 -539 -439 -1146 -698 -1790 -763 -170 -17 -573 -6 -744 20 -1708 264
-3079 1937 -3357 4096 -38 290 -46 434 -45 805 0 379 11 545 55 855 133 940
490 1835 1003 2518 285 379 637 720 986 956 463 313 989 512 1485 560 61 6
128 13 150 15 83 8 435 -4 548 -19z"/>
<path d="M5110 10119 c-568 -40 -1144 -256 -1644 -616 -338 -244 -690 -605
-953 -978 -506 -720 -824 -1601 -929 -2580 -21 -204 -30 -799 -15 -1021 107
-1520 763 -2871 1782 -3666 505 -395 1055 -625 1659 -694 197 -22 575 -15 770
15 1108 171 2090 940 2708 2121 282 540 481 1175 566 1812 44 326 51 445 51
833 -1 397 -12 556 -61 890 -193 1300 -816 2455 -1707 3164 -663 527 -1434
776 -2227 720z m431 -79 c956 -74 1821 -590 2489 -1485 486 -652 831 -1535
949 -2432 38 -291 46 -421 46 -793 0 -356 -7 -474 -41 -740 -93 -731 -322
-1428 -669 -2036 -90 -156 -274 -427 -388 -569 -641 -796 -1432 -1255 -2321
-1345 -154 -16 -543 -8 -686 15 -953 148 -1792 720 -2408 1642 -890 1332
-1123 3201 -600 4823 155 482 408 993 679 1373 183 256 440 541 660 733 672
585 1488 875 2290 814z"/>
<path d="M4464 8723 c-12 -57 -29 -89 -73 -137 -75 -79 -228 -143 -387 -161
-32 -3 -71 -9 -86 -11 l-28 -6 0 -219 0 -219 285 0 285 0 0 -594 c0 -580 0
-594 -20 -619 -34 -43 -60 -110 -60 -154 0 -24 -4 -43 -10 -43 -5 0 -26 15
-46 33 -37 32 -39 32 -143 34 -69 0 -121 7 -150 17 -63 23 -148 21 -190 -5
-19 -11 -52 -24 -75 -28 -33 -5 -42 -11 -44 -30 -5 -32 30 -67 108 -106 107
-54 114 -62 114 -136 2 -108 59 -197 175 -274 37 -25 75 -53 84 -63 17 -19 15
-20 -57 -46 -41 -14 -76 -26 -79 -26 -3 0 -8 11 -11 24 -3 14 -26 54 -50 90
-24 36 -47 82 -51 103 -8 42 -82 123 -113 123 -23 0 -42 -19 -42 -42 0 -13
-10 -20 -30 -24 -24 -5 -30 -12 -30 -31 0 -32 66 -99 106 -109 31 -7 54 -22
54 -34 0 -15 -55 -18 -74 -4 -24 17 -113 18 -153 3 -36 -14 -73 -48 -73 -69 0
-18 45 -64 74 -74 18 -6 18 -8 0 -72 -8 -29 20 -54 62 -54 l35 0 -26 -37 c-45
-67 -27 -93 64 -93 49 0 51 -1 51 -28 0 -15 5 -33 12 -40 16 -16 -68 -150
-113 -179 -93 -61 -91 -98 6 -139 85 -35 193 -14 279 55 37 30 43 31 130 31
61 0 100 5 120 15 37 19 99 19 136 0 l30 -16 0 -178 c0 -98 -2 -180 -5 -183
-14 -14 -423 74 -670 144 -613 173 -1153 437 -1446 706 l-53 49 42 50 c58 70
211 215 312 296 84 67 129 98 365 253 338 221 475 483 475 908 0 182 -8 238
-51 346 -71 180 -203 333 -329 382 -80 31 -201 31 -297 -1 -105 -34 -106 -34
-91 -106 13 -68 17 -413 5 -492 l-7 -51 47 15 c71 23 279 23 363 0 97 -27 202
-77 195 -94 -13 -36 -83 -130 -148 -199 -92 -98 -170 -158 -287 -217 -120 -61
-183 -109 -290 -218 -141 -143 -262 -327 -319 -485 -60 -165 -62 -194 -59
-808 l3 -557 35 -30 c19 -16 94 -69 165 -118 522 -354 1165 -601 1875 -720
l165 -28 3 -529 c2 -291 0 -548 -3 -571 -4 -25 -16 -51 -32 -67 l-25 -26 -252
-2 -251 -3 0 -285 0 -285 1503 -3 1502 -2 0 285 0 285 -199 0 c-217 0 -262 8
-313 57 l-28 27 0 578 c0 318 4 578 8 578 24 0 295 54 426 85 683 160 1349
474 1691 798 l55 52 6 440 c3 253 10 461 16 489 9 41 8 51 -4 60 -8 6 -18 33
-22 61 -23 153 -120 379 -217 507 -69 93 -164 185 -262 253 -186 132 -277 204
-362 290 -92 92 -149 178 -143 218 4 30 82 79 171 108 75 25 216 32 302 17
l41 -8 -8 73 c-16 165 -7 444 19 545 l6 25 -114 -6 c-260 -13 -459 -119 -544
-288 -15 -30 -33 -61 -40 -69 -7 -8 -15 -49 -19 -90 -4 -41 -11 -109 -16 -150
-12 -101 -12 -247 0 -350 33 -262 116 -457 265 -617 54 -59 83 -80 177 -129
134 -70 255 -148 359 -232 76 -61 219 -205 258 -260 l20 -29 -67 -51 c-384
-291 -1070 -580 -1782 -751 -235 -56 -214 -58 -218 15 l-3 62 44 25 c24 14 49
33 56 41 10 11 19 13 38 5 14 -5 40 -7 59 -3 74 14 174 139 174 220 0 65 -52
157 -140 245 -73 73 -75 77 -56 90 120 75 111 72 144 55 20 -10 46 -42 73 -87
52 -90 101 -139 175 -175 55 -27 68 -29 179 -30 66 -1 137 -4 158 -9 46 -9 48
2 8 48 -17 18 -40 59 -51 91 -42 112 -136 201 -250 237 -72 22 -241 27 -315 9
-70 -17 -83 -8 -47 28 14 14 41 21 98 26 198 16 345 76 448 184 33 35 78 72
99 83 46 24 39 44 -12 35 -28 -4 -63 3 -137 29 -250 87 -433 4 -517 -235 -16
-44 -33 -80 -38 -80 -5 0 -9 46 -9 103 0 117 13 150 77 190 98 63 143 163 142
316 0 90 -27 222 -46 228 -6 2 -21 -10 -33 -27 -12 -16 -29 -30 -38 -30 -27 0
-126 -83 -160 -135 -51 -77 -74 -150 -75 -240 -1 -131 21 -343 47 -450 23 -95
24 -101 8 -129 -21 -36 -66 -71 -81 -62 -8 5 -11 143 -11 467 0 450 0 461 21
502 31 60 38 90 49 202 7 72 17 114 36 152 37 76 17 95 -52 48 -20 -14 -41
-25 -45 -25 -5 0 -9 384 -9 855 l0 855 -950 0 -950 0 -6 -27z m-1504 -913 c0
-133 -4 -210 -10 -210 -6 0 -10 77 -10 210 0 133 4 210 10 210 6 0 10 -77 10
-210z m80 -11 c0 -179 -2 -209 -15 -209 -13 0 -15 31 -15 215 0 186 2 214 15
209 13 -5 15 -39 15 -215z m-150 -1 c0 -121 -4 -208 -9 -202 -5 5 -11 100 -15
212 -5 176 -4 202 9 202 13 0 15 -30 15 -212z m233 170 c14 -12 15 -33 10
-200 -6 -174 -7 -188 -25 -188 -17 0 -18 12 -18 200 0 110 4 200 8 200 5 0 16
-6 25 -12z m4815 -240 c-4 -266 -22 -275 -26 -13 -3 193 -1 215 18 215 7 0 10
-66 8 -202z m-2722 181 c142 -20 240 -72 270 -146 16 -38 18 -111 4 -148 -12
-32 5 -76 55 -145 66 -90 70 -106 67 -295 l-2 -170 22 45 c25 49 70 85 129
100 38 10 79 1 79 -18 0 -4 -27 -27 -61 -52 -140 -102 -189 -208 -189 -415 -1
-180 -42 -509 -63 -502 -6 2 -19 14 -28 28 -17 23 -17 27 1 96 37 143 51 408
25 484 -37 107 -198 267 -343 340 -61 32 -73 34 -161 34 -62 0 -108 -5 -128
-15 -40 -17 -53 -7 -27 21 33 36 70 49 141 49 133 -1 280 -79 434 -231 l98
-97 8 57 c10 72 10 275 0 324 -4 20 -17 46 -29 57 -54 50 -177 84 -353 98
l-100 7 31 32 c45 46 96 56 261 51 l141 -4 -24 32 c-35 45 -92 80 -144 88
-136 20 -270 141 -270 243 0 69 11 72 156 52z m2644 -189 c0 -171 -2 -200 -15
-200 -13 0 -15 28 -15 193 0 107 3 197 7 200 19 20 23 -10 23 -193z m-4556 10
c43 -88 51 -113 51 -161 0 -32 -3 -61 -8 -65 -4 -4 -23 0 -42 9 l-34 16 -3 78
c-3 70 -5 78 -23 78 -17 0 -21 -8 -25 -63 -3 -34 -8 -62 -12 -62 -5 0 -12 0
-18 0 -11 0 -14 219 -3 295 l6 49 30 -35 c16 -19 52 -81 81 -139z m4476 -25
c0 -183 -1 -195 -19 -195 -16 0 -19 11 -25 92 -3 50 -6 133 -6 185 0 96 2 101
48 112 1 1 2 -87 2 -194z m-100 72 c0 -41 3 -121 6 -178 l7 -104 -30 -11 -30
-11 -7 66 c-3 36 -6 114 -6 173 0 99 2 108 22 122 12 9 26 16 30 16 5 0 8 -33
8 -73z m-127 -344 c-15 -12 -30 -20 -35 -17 -4 3 -17 34 -28 70 -17 56 -18 72
-8 112 12 52 30 91 62 139 l21 33 7 -158 8 -157 -27 -22z m-2443 253 c67 -64
94 -79 201 -110 l84 -24 -58 -12 c-69 -14 -98 -9 -202 38 -100 44 -163 51
-225 24 -49 -23 -60 -21 -60 10 0 25 79 104 124 124 45 20 74 9 136 -50z m610
-66 c0 -94 -38 -205 -75 -217 -14 -4 -75 92 -75 119 0 22 118 148 139 148 6 0
11 -22 11 -50z m-711 -49 c8 -5 11 -16 8 -25 -9 -22 -109 -68 -150 -70 -31 -1
-32 1 -35 42 l-3 42 38 1 c21 1 49 5 63 9 34 11 62 11 79 1z m1099 -27 c12 -8
22 -19 22 -23 0 -4 -20 -21 -45 -39 -57 -40 -102 -102 -121 -169 -16 -54 -43
-83 -79 -83 -11 0 -69 -20 -130 -45 -60 -24 -111 -42 -113 -41 -8 8 22 106 46
149 34 62 187 208 255 241 59 30 131 34 165 10z m-2777 -517 c-5 -14 -10 8
-14 63 -4 45 -3 88 1 94 10 15 22 -132 13 -157z m-61 -30 c0 -79 -4 -119 -13
-132 -12 -16 -15 -11 -20 45 -14 126 -4 200 25 200 5 0 8 -51 8 -113z m4260
-39 c0 -71 -4 -127 -9 -124 -21 13 -33 97 -26 186 6 76 9 89 21 79 11 -9 14
-43 14 -141z m-2399 123 c23 -19 23 -21 7 -37 -12 -13 -42 -19 -111 -24 -112
-9 -176 -38 -238 -108 -21 -24 -43 -41 -49 -37 -5 3 -10 34 -10 69 0 55 3 65
28 88 35 34 71 48 152 58 126 15 196 12 221 -9z m784 -15 c9 -14 19 -51 22
-83 5 -51 4 -56 -9 -46 -8 7 -50 25 -94 40 -98 35 -106 52 -37 87 64 32 98 33
118 2z m-2732 -113 c11 -115 8 -189 -7 -203 -18 -14 -22 8 -30 149 -6 89 1
121 24 121 4 0 10 -30 13 -67z m3134 15 c-35 -59 -144 -184 -206 -236 l-51
-43 -45 38 c-24 21 -44 45 -44 53 0 27 65 111 113 145 47 33 129 66 211 83 22
5 42 7 44 6 2 -2 -8 -22 -22 -46z m1283 -125 c-1 -154 -2 -166 -16 -148 -13
16 -15 36 -10 100 3 44 6 110 6 148 0 38 4 67 10 67 6 0 10 -62 10 -167z
m-1173 143 c-3 -8 -13 -68 -23 -133 -9 -65 -25 -140 -37 -166 -35 -84 -188
-201 -278 -213 l-46 -6 -5 58 c-4 41 -1 65 8 79 18 26 374 395 381 395 3 0 3
-6 0 -14z m-3333 -68 c3 -18 8 -79 11 -135 l6 -101 -50 -43 c-51 -44 -286
-199 -302 -199 -4 0 -9 37 -11 83 -3 74 -5 82 -23 82 -19 0 -20 -8 -23 -107
-2 -97 -5 -109 -23 -119 -11 -6 -22 -9 -24 -7 -1 2 -7 59 -13 128 l-10 125 89
87 c71 68 110 97 187 137 53 27 113 61 132 75 45 32 48 32 54 -6z m4652 -48
c48 -39 133 -102 189 -140 56 -39 121 -87 145 -107 l43 -37 -8 -145 c-4 -80
-8 -147 -10 -149 -2 -2 -13 1 -24 8 -19 10 -21 20 -21 96 0 83 -1 85 -22 82
-21 -3 -23 -9 -26 -65 l-3 -62 -117 61 c-174 91 -163 74 -160 248 3 139 2 145
-17 145 -16 0 -21 -7 -22 -35 -14 -198 -15 -201 -29 -189 -11 9 -14 48 -14
185 0 96 2 174 5 174 2 0 43 -32 91 -70z m-2475 -17 c7 -18 9 -78 5 -173 -8
-203 -52 -401 -91 -408 -48 -10 -58 56 -34 240 37 291 86 428 120 341z m-116
-97 c-25 -72 -38 -134 -42 -191 l-6 -84 -19 25 c-27 33 -33 89 -19 169 17 97
38 142 79 170 20 14 37 23 39 21 2 -2 -13 -51 -32 -110z m228 72 c39 -61 60
-139 52 -196 -7 -54 -92 -232 -117 -246 -27 -16 -32 0 -19 57 7 28 15 136 18
240 5 164 8 187 22 187 9 0 29 -19 44 -42z m-813 -59 c0 -34 -3 -39 -22 -39
-13 0 -33 3 -46 6 -23 7 -23 7 14 45 20 21 41 36 46 33 4 -3 8 -23 8 -45z m99
-36 c34 -51 40 -79 15 -69 -9 3 -29 6 -45 6 -27 0 -29 3 -29 39 0 43 8 71 20
71 5 0 22 -21 39 -47z m1171 -13 c13 -25 6 -38 -27 -51 -29 -11 -63 11 -63 41
0 24 9 30 46 30 23 0 37 -6 44 -20z m138 -16 c14 -10 22 -25 22 -45 0 -26 -3
-29 -32 -29 -38 0 -78 34 -78 67 0 19 5 23 33 23 18 0 43 -7 55 -16z m-1418
-69 c0 -24 -2 -25 -75 -25 -41 0 -75 3 -75 6 0 3 5 14 10 25 9 16 22 19 75 19
63 0 65 -1 65 -25z m2088 17 c-11 -29 -64 -122 -69 -122 -3 0 -11 17 -17 38
-12 35 -11 38 18 65 28 25 76 38 68 19z m68 -27 c7 -19 14 -43 14 -54 0 -24
-47 -59 -89 -67 -29 -6 -30 -6 -22 22 13 46 60 134 72 134 5 0 17 -16 25 -35z
m-828 13 c17 -17 15 -21 -13 -52 -14 -15 -25 -37 -25 -50 0 -39 -37 -76 -76
-76 -32 0 -34 2 -34 32 0 23 10 40 38 67 21 20 43 48 50 64 12 28 40 35 60 15z
m-1890 -19 c26 -7 56 -20 68 -30 23 -21 45 -24 77 -8 13 6 7 -2 -13 -20 -19
-17 -40 -31 -46 -31 -7 0 -49 19 -94 41 -59 30 -78 44 -69 50 18 11 21 11 77
-2z m717 1 c7 -12 -5 -60 -15 -60 -4 0 -7 8 -6 17 1 11 -11 20 -36 27 -56 17
-56 26 0 26 28 0 53 -4 57 -10z m-480 -29 c3 -6 -3 -15 -14 -20 -26 -14 -27
-14 -28 9 -2 21 30 29 42 11z m1721 -20 c58 -35 49 -82 -13 -66 -50 12 -69 45
-41 73 16 16 17 15 54 -7z m-3354 -188 c4 -45 2 -55 -17 -73 -13 -12 -25 -18
-28 -13 -2 4 -7 55 -11 113 -7 101 -6 107 16 135 l23 30 6 -70 c4 -39 9 -93
11 -122z m1739 150 c31 -35 28 -40 -41 -88 l-70 -49 -35 34 c-19 19 -35 40
-35 46 0 7 30 31 67 53 69 42 82 42 114 4z m199 27 c0 -12 -84 -12 -120 0 -18
6 -4 8 48 9 42 1 72 -3 72 -9z m-584 -15 c27 -8 58 -21 69 -29 20 -15 20 -15
0 -31 -66 -52 -57 -53 -141 14 l-77 61 50 0 c27 0 72 -7 99 -15z m719 -168 c0
-132 -2 -148 -21 -174 -43 -57 -94 -24 -94 63 0 51 6 57 39 40 53 -27 69 3 19
34 l-33 20 38 0 c26 0 37 4 37 15 0 8 -6 15 -12 16 -10 0 -10 2 0 6 27 11 12
39 -30 54 -34 12 -44 21 -46 42 -2 14 2 35 7 46 11 20 12 20 54 2 l42 -18 0
-146z m1885 80 c0 -21 -26 -87 -35 -87 -11 0 -45 66 -45 88 0 12 7 39 16 60
l15 37 25 -40 c13 -22 24 -48 24 -58z m166 26 c-18 -125 -72 -220 -143 -249
-46 -20 -53 -18 -53 14 0 39 22 66 85 104 30 18 55 39 55 46 0 8 -13 4 -37
-12 -20 -14 -40 -23 -45 -20 -13 8 -10 62 5 74 27 24 123 89 131 90 4 0 5 -21
2 -47z m1495 -107 c-1 -50 -6 -108 -10 -129 -6 -37 -7 -37 -28 -22 -20 14 -23
25 -23 84 0 37 3 103 7 146 l6 79 26 -34 c24 -31 26 -39 22 -124z m-3736 135
c40 -9 39 -9 -17 -10 -33 0 -58 3 -58 9 0 12 20 12 75 1z m370 -123 c-61 -130
-93 -228 -102 -312 -8 -76 10 -69 33 12 48 173 100 303 144 359 l18 23 6 -23
c20 -76 -10 -251 -68 -385 -20 -46 -36 -93 -36 -104 0 -47 -47 -85 -82 -67
-25 13 -61 132 -55 182 13 116 37 229 57 268 24 46 116 159 130 159 5 0 -15
-51 -45 -112z m-767 51 c-13 -10 -40 -28 -60 -39 -57 -32 -50 0 8 45 38 28 50
33 61 23 12 -10 11 -14 -9 -29z m975 -16 c30 -66 32 -259 3 -313 -23 -43 -144
-170 -162 -170 -24 0 -23 16 12 108 47 126 82 261 90 349 8 88 25 96 57 26z
m-532 -5 c0 -24 2 -52 3 -64 1 -11 0 -29 -4 -39 -5 -15 -14 -8 -52 41 -24 32
-47 69 -50 82 -6 21 -3 22 48 22 l54 0 1 -42z m-142 9 c-17 -14 -121 -67 -131
-67 -6 0 17 20 53 45 40 28 67 41 73 35 5 -5 8 -11 5 -13z m-1886 -99 c6 -82
5 -87 -17 -102 -23 -15 -23 -14 -30 37 -10 83 -7 117 11 148 23 38 29 24 36
-83z m3560 82 c91 -34 155 -93 201 -181 33 -65 39 -87 43 -162 7 -102 -3 -110
-42 -34 -70 132 -163 244 -257 308 -55 38 -78 64 -78 90 0 16 60 7 133 -21z
m-1443 -3 c8 -3 0 -6 -17 -6 -23 -1 -33 4 -33 14 0 12 5 13 18 7 9 -5 24 -12
32 -15z m-460 -2 c7 -9 11 -17 9 -18 -2 -2 -32 -25 -66 -50 -34 -26 -69 -54
-77 -62 -13 -13 -15 -13 -21 4 -12 39 5 66 68 103 71 43 70 43 87 23z m2340
-56 c8 -30 7 -46 -5 -74 -8 -20 -19 -34 -24 -31 -15 10 -32 106 -25 143 6 33
7 33 25 17 11 -10 24 -34 29 -55z m-706 52 c3 -5 -2 -33 -10 -62 -9 -30 -40
-148 -69 -264 -47 -187 -55 -210 -74 -213 -20 -3 -21 0 -15 40 20 148 62 315
110 441 23 61 44 82 58 58z m-1389 -21 c-8 -13 -105 -63 -111 -57 -3 3 103 66
114 67 2 0 0 -5 -3 -10z m3904 -89 c-1 -31 -4 -80 -7 -110 -7 -52 -7 -53 -25
-33 -16 18 -17 32 -11 133 7 111 7 112 26 90 13 -17 18 -39 17 -80z m-4117 56
c-6 -7 -33 -28 -59 -47 -56 -39 -47 -26 17 24 49 38 59 43 42 23z m1776 -26
c63 -43 137 -117 199 -201 59 -80 123 -195 123 -221 0 -47 -47 -116 -155 -229
-230 -242 -349 -445 -397 -679 -18 -89 -26 -108 -45 -99 -18 8 5 162 43 279
54 166 140 302 297 468 l98 104 -22 23 c-48 51 -115 42 -248 -35 -98 -56 -151
-74 -201 -69 l-34 3 66 39 c36 21 99 63 140 94 128 97 181 105 258 37 28 -25
55 -45 60 -45 16 0 89 70 95 90 10 32 -11 56 -112 126 -163 113 -229 185 -247
270 -6 29 6 84 19 84 3 0 32 -17 63 -39z m-1514 -3 c19 -26 18 -28 -43 -72
l-50 -35 -22 36 c-13 20 -19 38 -13 40 5 2 27 14 49 28 49 30 60 31 79 3z
m-221 -18 c-21 -19 -163 -110 -171 -110 -6 0 -17 11 -25 24 -15 22 -15 24 3
29 13 3 20 0 20 -9 0 -8 6 -14 13 -14 13 0 74 39 120 77 16 13 33 20 39 17 5
-3 6 -10 1 -14z m1124 -51 c90 -70 148 -141 177 -216 34 -92 46 -151 36 -178
-16 -42 -142 -44 -221 -4 -67 33 -187 197 -204 277 -10 47 7 40 56 -25 106
-142 198 -229 233 -221 10 2 -24 51 -110 156 -68 85 -121 158 -118 163 12 21
43 6 90 -43 67 -69 181 -206 202 -240 19 -32 32 -36 32 -10 0 24 -137 224
-204 299 -31 33 -56 66 -56 72 0 22 34 10 87 -30z m-2949 -41 c-4 -78 -28 -95
-28 -20 0 55 7 82 22 82 5 0 8 -28 6 -62z m1872 23 c0 -3 -36 -29 -79 -58 -75
-49 -80 -51 -95 -34 -15 17 -11 21 66 73 74 50 84 54 96 40 6 -9 12 -18 12
-21z m229 6 c-25 -20 -113 -67 -121 -65 -5 2 17 22 49 46 37 27 60 39 67 32 5
-5 8 -11 5 -13z m2419 -20 c5 -39 -21 -74 -57 -79 -28 -4 -31 -2 -31 23 0 33
46 91 69 87 9 -2 17 -15 19 -31z m120 7 l37 -17 -40 -12 c-95 -29 -96 -28 -89
2 12 47 33 53 92 27z m-222 -16 c-4 -13 -11 -45 -17 -71 -10 -43 -16 -50 -55
-70 -51 -24 -77 -17 -82 25 -4 33 29 73 92 108 61 36 70 37 62 8z m1553 -82
c1 -60 -1 -67 -14 -56 -16 13 -22 139 -8 154 13 12 22 -27 22 -98z m-4500 68
c26 -19 51 -71 51 -108 0 -24 -1 -24 -27 -10 -16 7 -38 14 -50 14 -13 0 -27 9
-34 21 -11 21 -10 22 20 16 34 -7 38 -1 16 27 -16 21 -20 56 -7 56 4 0 18 -7
31 -16z m686 -37 c14 -24 25 -50 25 -58 0 -13 -113 -84 -133 -84 -5 0 -15 14
-22 32 l-14 32 54 30 c29 17 56 35 60 41 14 22 -26 20 -75 -5 -29 -14 -54 -24
-56 -22 -5 5 115 76 128 77 4 0 19 -20 33 -43z m-270 15 c-44 -41 -124 -92
-130 -83 -3 6 25 31 62 56 69 46 103 60 68 27z m2190 8 c9 -14 -4 -52 -16 -45
-12 8 -12 55 0 55 6 0 13 -5 16 -10z m655 -36 c0 -21 -54 -74 -77 -74 -22 0
-83 36 -83 49 0 15 72 40 118 40 32 1 42 -3 42 -15z m-2765 -80 c9 -20 15 -37
13 -38 -12 -9 -101 -56 -103 -54 0 2 -9 16 -19 31 -17 28 -17 29 1 42 10 7 29
22 43 34 35 29 45 26 65 -15z m2606 13 c19 -12 34 -27 33 -32 0 -6 -26 -23
-57 -40 l-56 -30 -41 40 c-22 21 -40 43 -40 47 0 14 55 37 91 38 22 0 50 -9
70 -23z m-145 -109 c-16 -11 -176 -10 -176 0 0 15 33 40 80 61 l44 20 32 -37
c21 -25 28 -39 20 -44z m-2191 22 c30 -57 11 -210 -38 -307 l-24 -46 -6 55
c-3 34 -19 82 -41 126 l-35 70 64 38 c65 38 78 60 35 58 l-22 -1 23 18 c13 10
25 19 26 19 1 0 9 -13 18 -30z m508 -45 c16 -38 46 -94 66 -124 71 -106 68
-99 49 -117 -25 -25 -44 -11 -68 52 -11 32 -37 83 -55 113 -37 60 -60 158 -35
149 8 -2 27 -35 43 -73z m-1384 54 c27 -9 32 -16 29 -38 -3 -22 -9 -27 -48
-34 -83 -15 -133 29 -78 67 27 19 53 20 97 5z m751 -4 c0 -2 -10 -9 -22 -15
-22 -11 -22 -10 -4 4 21 17 26 19 26 11z m-510 -60 c0 -20 -70 -34 -138 -28
l-64 6 21 20 c14 15 39 22 88 27 67 6 93 -1 93 -25z m340 21 c0 -2 -11 -11
-25 -20 -14 -9 -25 -13 -25 -8 0 5 10 14 23 20 27 13 27 13 27 8z m1604 -2
c23 -9 19 -32 -6 -40 -13 -4 -54 -32 -93 -62 -86 -68 -248 -149 -253 -127 -9
42 136 192 210 218 45 16 115 21 142 11z m-1524 -13 c0 -14 -109 -81 -115 -71
-3 5 18 25 47 44 56 37 68 42 68 27z m-166 -39 c5 -18 7 -35 4 -38 -3 -2 -23
2 -44 10 -22 8 -52 17 -68 21 -36 8 -24 21 29 34 58 13 68 10 79 -27z m195
-39 c11 -24 10 -29 -11 -45 -13 -10 -31 -20 -41 -24 -23 -7 -18 -40 6 -38 9 1
17 -4 17 -12 0 -22 18 -25 51 -8 36 18 44 12 55 -42 18 -94 -19 -107 -94 -34
-46 45 -102 132 -102 158 0 9 88 72 101 72 3 0 11 -12 18 -27z m-595 2 c32
-32 -13 -62 -99 -68 -34 -2 -40 1 -40 18 0 14 14 27 45 43 52 26 73 28 94 7z
m156 5 c0 -5 -14 -25 -31 -45 -23 -25 -39 -35 -61 -35 l-30 0 19 32 c20 34 55
58 86 58 9 0 17 -4 17 -10z m150 -26 c72 -22 150 -71 150 -94 0 -4 -21 -15
-47 -25 -26 -10 -74 -36 -107 -57 -67 -43 -76 -45 -105 -20 -20 16 -20 19 -7
63 8 26 17 72 21 103 4 31 9 56 11 56 1 0 39 -11 84 -26z m853 0 c3 -4 -33
-45 -81 -93 -98 -97 -177 -198 -222 -283 -33 -62 -50 -73 -50 -33 0 68 91 223
182 312 85 82 149 119 171 97z m1930 -30 c52 -17 55 -31 14 -54 -25 -14 -31
-12 -103 23 -59 29 -74 41 -63 48 17 12 88 4 152 -17z m-2464 -28 c-2 -2 -15
-9 -29 -15 -24 -11 -24 -11 -6 3 16 13 49 24 35 12z m551 -51 c0 -88 -87 -238
-219 -377 -91 -96 -113 -109 -142 -82 -27 24 -24 58 9 96 16 18 50 67 76 108
69 107 149 204 208 250 27 22 54 40 59 40 5 0 9 -16 9 -35z m1800 20 c16 -8
34 -24 40 -34 13 -25 13 -98 0 -106 -18 -11 -50 16 -75 65 -13 27 -29 51 -35
55 -5 3 -10 13 -10 21 0 19 43 18 80 -1z m-2931 -10 c9 -10 -11 -37 -41 -55
-35 -21 -83 -26 -93 -10 -9 15 18 51 50 66 26 12 71 11 84 -1z m3148 4 c63
-23 113 -93 113 -156 l0 -38 -47 47 c-37 38 -45 50 -35 60 22 22 13 30 -28 23
-61 -10 -117 38 -72 64 22 13 34 13 69 0z m-3037 -29 c0 -51 -61 -120 -106
-120 -38 0 -29 25 29 85 57 59 77 68 77 35z m1099 -71 c1 -73 -25 -134 -88
-201 -31 -34 -74 -74 -95 -90 -72 -52 -89 -27 -29 44 55 66 149 214 174 276
18 45 24 52 30 36 4 -10 8 -40 8 -65z m-2750 3 c442 -367 1341 -697 2231 -821
297 -41 494 -54 820 -55 488 -1 766 35 1265 161 675 170 1279 424 1685 707
l65 45 3 -337 2 -337 -37 -33 c-149 -129 -344 -257 -568 -373 -594 -308 -1314
-492 -2153 -549 -196 -13 -645 -13 -827 0 -921 67 -1780 352 -2431 806 -53 36
-97 71 -99 77 -5 15 -11 747 -6 747 2 0 24 -17 50 -38z m1900 -27 c-13 -69
-33 -86 -24 -20 9 69 16 88 25 79 5 -5 4 -31 -1 -59z m103 38 c29 -18 30 -19
24 -77 -3 -33 -9 -62 -12 -65 -3 -3 -22 4 -42 16 -35 21 -37 24 -34 70 4 80
11 86 64 56z m1028 -1 c0 -23 -19 -42 -42 -42 -27 0 -35 30 -13 46 27 20 55
18 55 -4z m1570 -1 c5 -11 10 -40 10 -65 0 -41 -2 -46 -23 -46 -13 0 -28 5
-35 12 -13 13 -17 100 -5 111 13 14 43 7 53 -12z m-2761 -38 c-5 -25 -12 -49
-15 -52 -4 -3 -4 9 0 28 3 18 6 42 6 52 0 11 4 19 9 19 5 0 5 -20 0 -47z
m1035 21 c46 -18 38 -74 -10 -74 -22 0 -54 23 -54 40 0 11 29 40 40 40 5 0 16
-3 24 -6z m1122 -51 c-71 -107 -92 -272 -49 -381 l21 -52 -25 -7 c-50 -12 -75
22 -99 139 -25 118 -1 211 72 279 37 35 95 71 102 64 2 -2 -8 -21 -22 -42z
m208 -16 c73 -74 98 -122 104 -198 6 -78 -23 -133 -83 -160 -24 -10 -50 -16
-60 -13 -22 9 -62 91 -80 166 -18 77 -20 239 -3 256 27 27 60 13 122 -51z
m-2414 11 c0 -42 -9 -55 -43 -63 -28 -7 -28 -7 -25 36 3 42 13 52 61 58 4 1 7
-14 7 -31z m2916 -10 c66 -45 67 -58 7 -58 -27 0 -54 5 -61 12 -14 14 -16 78
-3 78 5 0 30 -15 57 -32z m-3030 -74 c-3 -8 -9 -14 -14 -14 -9 0 -6 46 6 90 5
21 7 17 10 -19 2 -24 1 -50 -2 -57z m1368 70 c29 -28 12 -57 -30 -52 -32 3
-43 30 -24 53 16 19 35 19 54 -1z m-885 -49 c17 -20 31 -44 31 -54 0 -18 -4
-17 -55 7 -35 17 -53 32 -50 40 3 8 5 25 5 38 0 21 3 23 19 15 10 -6 32 -26
50 -46z m1054 0 c-1 -22 -5 -103 -9 -180 -5 -116 -4 -156 11 -230 10 -49 19
-121 19 -160 l1 -70 -30 -3 -30 -3 0 113 c0 70 -6 128 -14 152 -30 87 1 431
38 424 12 -3 16 -14 14 -43z m-1657 -111 c-6 -15 -77 -37 -88 -26 -10 10 23
80 58 122 l29 34 3 -58 c2 -32 1 -65 -2 -72z m1369 116 c13 -20 -24 -60 -54
-60 -31 0 -54 19 -43 36 19 29 84 45 97 24z m-1060 -20 c7 -12 -6 -140 -15
-140 -13 0 -28 134 -16 142 15 10 24 10 31 -2z m2172 -6 c3 -10 -4 -47 -17
-85 -35 -99 -20 -146 54 -172 15 -5 -12 -44 -35 -50 -35 -9 -66 31 -74 95 -8
60 9 194 27 215 15 18 37 16 45 -3z m-2253 -12 c3 -5 8 -32 12 -60 l7 -52 -37
0 c-31 0 -38 5 -56 39 -21 43 -21 44 30 68 31 14 38 15 44 5z m217 -8 c25 -13
30 -20 27 -47 -3 -28 -7 -32 -34 -35 -28 -3 -32 0 -38 29 -14 72 -7 80 45 53z
m1807 -7 c2 -11 -17 -37 -51 -70 -50 -48 -55 -57 -66 -118 -6 -36 -11 -77 -11
-90 0 -33 -19 -56 -52 -64 -27 -7 -27 -6 -18 25 5 18 16 43 25 56 19 30 19 34
-4 34 -15 0 -34 -30 -84 -132 -35 -73 -72 -154 -82 -180 -12 -34 -23 -48 -37
-48 -23 0 -19 21 29 142 59 150 143 284 256 404 59 64 88 77 95 41z m-2201
-19 c-3 -8 -6 -5 -6 6 -1 11 2 17 5 13 3 -3 4 -12 1 -19z m313 -28 c0 -27 -4
-50 -10 -50 -5 0 -10 23 -10 50 0 28 5 50 10 50 6 0 10 -22 10 -50z m1115 0
c0 -20 -6 -26 -28 -28 -29 -4 -44 16 -33 44 4 10 15 14 33 12 22 -2 28 -8 28
-28z m-907 4 c12 -8 29 -29 37 -45 18 -34 35 -30 35 9 l0 27 20 -25 c25 -32
27 -80 2 -80 -9 0 -33 11 -52 24 -19 13 -45 26 -57 30 -18 6 -23 15 -23 42 0
38 6 41 38 18z m609 0 c7 -20 -13 -116 -37 -171 -17 -38 -23 -43 -50 -43 -41
0 -122 -80 -210 -207 -72 -105 -100 -120 -100 -53 0 21 5 50 11 64 9 20 8 32
-10 68 -11 25 -21 57 -21 73 0 27 1 27 31 -16 18 -24 33 -46 35 -48 2 -2 28
18 57 46 61 58 82 70 156 93 l55 17 18 83 c17 80 31 110 50 110 5 0 11 -7 15
-16z m-1064 -31 l17 -38 -25 28 c-25 28 -32 47 -17 47 5 0 16 -17 25 -37z
m1250 16 c8 -13 6 -24 -6 -43 -20 -30 -62 -35 -75 -8 -26 50 51 98 81 51z
m-1281 -63 c7 -13 6 -22 -4 -32 -12 -12 -17 -9 -37 26 -26 46 -20 71 11 43 11
-10 24 -26 30 -37z m-74 -26 c22 -38 22 -39 3 -50 -11 -5 -36 -10 -56 -10 -43
0 -125 19 -125 30 0 4 17 12 38 18 20 7 51 20 67 31 42 27 47 26 73 -19z
m1482 5 c20 -24 8 -50 -24 -50 -36 0 -56 26 -37 49 17 20 45 21 61 1z m-120
-38 c0 -25 -32 -58 -53 -55 -32 4 -35 51 -6 72 24 16 59 6 59 -17z m128 -76
c21 -13 10 -46 -17 -49 -32 -5 -46 11 -32 37 12 22 28 26 49 12z m-108 -36
c10 -12 9 -20 -4 -41 -20 -30 -62 -30 -80 -1 -9 15 -7 22 13 38 28 23 54 24
71 4z m-310 -20 c19 -23 3 -49 -83 -140 -66 -70 -137 -127 -137 -110 0 41 167
265 198 265 5 0 15 -7 22 -15z m78 -39 c6 -46 -28 -117 -81 -173 -43 -46 -55
-53 -88 -53 -21 0 -41 5 -44 10 -4 6 25 43 64 83 39 41 80 94 91 120 25 55 53
61 58 13z m1026 5 c17 -19 50 -111 42 -118 -2 -3 -23 8 -46 23 -37 25 -41 31
-36 57 3 16 6 36 6 43 0 20 14 17 34 -5z m-686 -47 c4 -30 -25 -59 -44 -43
-15 12 -19 51 -7 63 14 14 48 1 51 -20z m599 15 c6 -6 9 -18 6 -26 -7 -18 -74
-64 -85 -57 -16 10 -8 45 17 69 26 27 45 31 62 14z m-713 -15 c36 -14 7 -84
-33 -84 -46 0 -55 69 -11 81 14 4 26 7 27 8 1 1 8 -2 17 -5z m716 -123 l0 -48
-52 -6 c-29 -3 -56 -2 -60 2 -12 11 16 54 51 78 51 35 61 31 61 -26z m117 -4
c20 -21 18 -23 -33 -32 l-42 -6 -4 41 c-2 22 -2 43 1 45 5 6 59 -26 78 -48z
m-707 0 c0 -56 -53 -82 -66 -33 -8 34 12 66 41 66 22 0 25 -5 25 -33z m-94 8
c8 -21 -23 -65 -46 -65 -24 0 -51 27 -44 44 12 31 81 46 90 21z m830 -1031
c15 -25 28 -66 31 -99 9 -85 -4 -79 -179 81 -44 40 -37 62 20 69 26 3 54 7 62
9 21 4 38 -11 66 -60z m-1576 37 c0 -5 -11 -33 -25 -63 -27 -59 -45 -178 -27
-178 10 0 14 13 27 92 3 21 17 62 31 93 24 53 27 55 64 55 70 0 66 -33 -19
-146 -32 -43 -73 -92 -90 -108 l-31 -29 -16 38 c-18 45 -14 97 17 193 18 53
24 62 45 62 13 0 24 -4 24 -9z m1335 -11 c14 -5 24 -14 21 -18 -3 -5 -38 -34
-79 -65 -90 -69 -107 -68 -107 7 0 28 4 56 8 62 13 22 114 30 157 14z m-1067
-14 c18 -18 -127 -151 -221 -201 l-52 -29 48 55 c27 29 63 85 80 122 l32 69
54 -6 c29 -2 56 -7 59 -10z m776 -153 c14 -305 28 -427 84 -698 34 -160 49
-285 34 -270 -15 15 -87 248 -111 358 -50 232 -77 502 -65 670 6 92 8 97 29
97 22 0 22 -3 29 -157z m-571 125 c16 -61 18 -247 6 -398 -23 -275 -21 -292
31 -396 25 -49 47 -92 48 -96 2 -5 -5 -8 -15 -8 -25 0 -55 33 -86 95 -53 107
-72 236 -51 344 9 43 18 164 21 279 5 183 8 202 23 202 10 0 20 -10 23 -22z
m427 -55 c0 -43 -7 -121 -15 -173 -8 -52 -24 -156 -35 -230 -67 -464 -70 -497
-45 -557 29 -69 12 -95 -27 -42 -30 41 -41 131 -34 294 5 129 11 172 44 305
36 142 50 227 67 413 6 57 9 67 26 67 17 0 19 -8 19 -77z m470 -50 c0 -26 -67
-98 -102 -109 -26 -8 -57 13 -64 43 -6 23 -1 32 32 61 21 19 53 43 69 53 30
19 30 19 48 -2 9 -12 17 -32 17 -46z m178 -50 c28 -27 42 -48 42 -65 0 -49
-94 -228 -120 -228 -6 0 -10 46 -10 106 0 106 0 106 23 100 71 -22 72 2 3 53
-54 40 -76 79 -76 134 0 20 38 -8 138 -100z m-1340 1 c-11 -42 -7 -178 12
-416 12 -137 11 -155 -9 -265 -11 -66 -21 -133 -21 -150 0 -36 -17 -53 -31
-32 -11 16 -6 86 10 144 16 60 13 301 -5 413 -21 128 -15 259 15 327 18 40 24
47 31 34 6 -10 5 -31 -2 -55z m1192 -65 c11 -39 10 -43 -16 -70 -39 -41 -61
-45 -90 -18 -13 12 -24 30 -24 38 0 18 85 91 106 91 7 0 18 -19 24 -41z m16
-113 c3 -7 4 -35 2 -61 l-3 -48 -32 27 c-37 31 -41 51 -16 78 19 21 42 23 49
4z m-106 -68 c21 -23 30 -43 30 -68 0 -54 24 -137 63 -218 53 -110 123 -330
110 -343 -19 -19 -34 0 -83 105 -96 204 -160 408 -160 509 0 26 2 47 5 47 3 0
19 -15 35 -32z"/>
<path d="M2627 5348 c-14 -24 -70 -125 -125 -226 l-100 -182 28 -15 29 -15 57
104 58 105 82 -45 82 -44 16 24 16 25 -80 42 c-44 24 -80 47 -80 52 0 17 63
127 72 127 6 0 47 -20 92 -45 l83 -45 12 26 c6 15 10 28 9 29 -2 1 -43 23 -93
50 -49 27 -100 55 -112 62 -20 13 -23 12 -46 -29z"/>
<path d="M7900 5322 c-107 -59 -104 -178 11 -341 88 -126 162 -162 246 -120
66 34 88 67 87 135 -2 86 -87 235 -176 307 -48 39 -118 47 -168 19z m94 -46
c59 -24 176 -196 191 -278 6 -33 3 -41 -23 -68 -34 -34 -59 -37 -102 -15 -56
29 -180 224 -180 284 0 41 34 81 78 90 1 1 18 -5 36 -13z"/>
<path d="M2795 5020 l-115 -230 30 -15 30 -15 115 230 115 230 -30 15 -30 15
-115 -230z"/>
<path d="M2998 5143 c-12 -27 -56 -126 -99 -222 -44 -96 -79 -180 -79 -186 0
-7 11 -17 25 -23 25 -12 26 -10 61 66 20 42 40 87 45 100 10 27 15 27 73 2 68
-31 73 -48 42 -135 -33 -94 -33 -118 -1 -133 34 -16 35 -15 35 8 0 11 11 49
25 86 29 77 32 120 8 146 -15 17 -15 18 9 18 78 0 139 141 91 209 -13 19 -186
111 -208 111 -4 0 -16 -21 -27 -47z m127 -56 c66 -37 76 -85 30 -142 -17 -23
-30 -29 -57 -28 -28 1 -89 23 -107 39 -2 2 11 37 29 79 22 48 39 75 49 75 9 0
34 -10 56 -23z"/>
<path d="M7620 5167 c-88 -46 -101 -135 -41 -278 62 -148 122 -209 205 -209
110 0 169 77 145 189 -11 54 -15 57 -52 40 -23 -10 -23 -13 -11 -47 7 -21 13
-45 14 -55 0 -27 -54 -77 -84 -77 -41 0 -93 55 -136 144 -68 141 -75 209 -25
242 38 25 72 20 109 -15 36 -35 44 -37 71 -17 18 13 18 14 -4 45 -45 63 -116
78 -191 38z"/>
<path d="M8340 5105 l-24 -26 27 -27 27 -27 25 26 25 25 -28 27 -28 27 -24
-25z"/>
<path d="M3345 5016 c-53 -23 -90 -99 -78 -159 4 -22 28 -53 74 -97 79 -75 91
-107 60 -157 -31 -50 -90 -56 -141 -15 -24 19 -30 60 -17 99 7 19 4 25 -18 35
-37 17 -49 -1 -50 -71 0 -45 5 -64 20 -81 31 -35 94 -60 154 -60 47 0 57 4 86
33 38 38 61 102 51 144 -4 16 -36 56 -75 93 -38 36 -71 74 -75 84 -9 26 12 84
34 96 60 32 137 -13 127 -75 -5 -28 -2 -34 20 -44 33 -15 43 -2 43 58 0 35 -6
49 -33 76 -50 50 -124 66 -182 41z"/>
<path d="M7138 4979 c-21 -10 -44 -33 -53 -49 -47 -91 18 -338 111 -420 34
-30 42 -32 91 -28 41 4 60 11 83 33 16 15 31 37 33 49 3 19 4 19 15 -6 8 -20
16 -25 31 -21 12 3 21 9 21 13 0 8 -70 232 -76 242 -2 3 -38 -5 -79 -19 -68
-23 -75 -27 -69 -47 9 -30 8 -30 59 -13 l46 16 9 -25 c13 -33 13 -110 0 -134
-13 -24 -65 -41 -93 -31 -43 17 -80 79 -116 195 -27 88 -28 159 -1 186 42 42
103 35 131 -17 11 -20 18 -24 43 -19 39 8 40 9 22 44 -37 72 -127 94 -208 51z"/>
<path d="M3599 4924 c-5 -14 -9 -27 -9 -28 0 -2 27 -11 61 -21 45 -14 59 -23
56 -34 -2 -9 -33 -105 -68 -214 -54 -168 -61 -200 -49 -207 39 -25 45 -14 114
200 41 127 72 210 80 210 7 0 34 -7 60 -16 52 -18 54 -17 58 15 3 26 1 27
-185 86 l-108 33 -10 -24z"/>
<path d="M6938 4913 c-10 -2 -18 -12 -18 -21 0 -9 20 -94 45 -190 25 -96 45
-178 43 -183 -2 -4 -59 71 -128 167 l-125 174 -35 -6 c-19 -3 -38 -9 -42 -12
-4 -4 21 -115 55 -247 l63 -240 28 2 c16 1 30 4 32 5 2 2 -19 89 -46 193 -27
104 -48 190 -47 192 2 1 59 -74 127 -168 l125 -171 39 7 c22 3 42 8 44 10 8 8
-123 495 -133 494 -5 -1 -18 -3 -27 -6z"/>
<path d="M6568 4823 c-10 -2 -18 -8 -18 -11 0 -4 23 -116 52 -249 54 -252 54
-254 99 -235 16 7 16 9 -76 430 -16 71 -20 75 -57 65z"/>
<path d="M6473 4803 c-18 -3 -27 -18 -43 -72 -11 -38 -20 -71 -20 -74 0 -3 -5
-18 -10 -33 -11 -27 -11 -27 -71 54 -44 60 -65 82 -82 82 -50 0 -46 -14 33
-120 44 -58 80 -110 80 -117 0 -6 -18 -69 -40 -139 -22 -70 -38 -129 -36 -132
3 -2 17 -1 33 2 26 6 31 14 52 89 42 146 32 142 106 43 56 -73 70 -86 95 -86
16 0 31 4 34 8 2 4 -33 56 -80 116 -46 59 -84 114 -84 121 0 6 16 65 35 131
37 127 39 135 28 133 -5 -1 -18 -4 -30 -6z"/>
<path d="M4102 4778 c-57 -29 -86 -145 -49 -198 9 -13 47 -44 84 -69 71 -49
91 -79 79 -125 -12 -49 -42 -69 -94 -63 -58 6 -82 33 -82 92 0 41 -12 54 -52
55 -5 0 -8 -28 -8 -63 0 -51 4 -68 21 -86 48 -52 155 -70 217 -37 60 31 91
137 56 194 -9 15 -46 47 -82 72 -75 51 -98 83 -88 123 17 70 86 88 138 37 23
-23 29 -36 24 -55 -5 -20 -2 -26 18 -31 34 -8 46 2 46 37 0 40 -23 82 -56 104
-33 21 -139 30 -172 13z"/>
<path d="M6127 4742 c-26 -3 -28 -6 -23 -35 3 -18 20 -132 37 -255 26 -178 35
-222 47 -217 7 3 21 5 31 5 15 0 14 22 -20 250 -20 138 -38 252 -40 253 -2 1
-17 1 -32 -1z"/>
<path d="M4357 4493 c-21 -136 -38 -251 -37 -254 0 -4 13 -9 30 -11 28 -4 30
-3 36 41 3 25 11 73 18 106 l11 60 35 -5 c135 -18 195 21 207 132 10 98 -27
137 -147 158 -36 6 -76 13 -90 16 l-26 5 -37 -248z m200 159 c27 -15 38 -50
30 -100 -8 -50 -38 -72 -96 -72 -68 0 -73 6 -61 76 6 32 13 73 15 90 5 30 6
31 48 24 23 -3 52 -12 64 -18z"/>
<path d="M5979 4723 l-47 -4 -10 -72 c-6 -40 -19 -129 -28 -199 -10 -71 -20
-128 -23 -128 -4 0 -36 82 -72 183 l-66 182 -44 3 c-24 1 -49 -1 -55 -5 -7 -6
-3 -81 15 -255 l25 -248 33 0 c33 0 33 1 28 38 -11 78 -35 326 -34 351 0 27
26 -34 108 -260 l42 -116 32 6 32 7 30 207 c16 114 32 207 35 207 3 0 14 -82
24 -182 23 -234 21 -229 55 -222 14 4 27 8 29 9 1 1 -9 109 -23 240 -14 132
-25 245 -25 252 0 7 -3 12 -7 11 -5 -1 -29 -3 -54 -5z"/>
<path d="M4705 4648 c-8 -66 -45 -427 -45 -449 0 -14 7 -19 30 -19 17 0 30 1
30 3 0 1 11 108 25 237 14 129 25 243 25 253 0 12 -8 17 -29 17 -27 0 -30 -3
-36 -42z"/>
<path d="M4894 4661 c-18 -11 -42 -40 -55 -68 -22 -44 -24 -60 -24 -193 0
-134 2 -148 23 -182 16 -25 37 -42 67 -54 100 -38 190 17 210 129 l7 38 -33
-3 c-29 -3 -34 -8 -40 -35 -19 -95 -107 -121 -155 -48 -36 55 -26 289 15 345
38 52 109 52 136 0 8 -16 15 -38 15 -50 0 -16 6 -20 35 -20 l36 0 -7 38 c-10
57 -30 88 -68 106 -47 22 -123 21 -162 -3z"/>
<path d="M5163 4513 c4 -87 7 -202 7 -255 l0 -98 135 0 135 0 0 31 0 30 -102
-2 -103 -2 -3 92 -3 91 96 0 96 0 -3 28 -3 27 -92 -3 -93 -3 0 65 c0 35 -3 71
-6 79 -5 13 12 17 95 22 98 7 101 8 101 31 l0 24 -132 0 -131 0 6 -157z"/>
<path d="M6739 8711 c-57 -12 -101 -43 -127 -91 -20 -38 -23 -56 -20 -112 5
-99 46 -144 171 -190 89 -32 117 -60 117 -113 0 -35 -5 -48 -26 -64 -57 -45
-134 -11 -134 60 l0 39 -71 0 -72 0 6 -57 c10 -92 66 -146 162 -158 108 -14
203 16 247 77 18 26 24 49 26 109 6 121 -16 149 -169 215 -46 19 -91 42 -100
50 -40 36 -27 116 22 133 52 18 99 -15 99 -68 0 -19 6 -21 65 -21 l65 0 0 38
c0 55 -30 103 -81 129 -50 24 -127 35 -180 24z"/>
<path d="M7060 8645 l0 -55 70 0 70 0 0 -280 0 -281 68 3 67 3 3 278 2 277 70
0 70 0 0 55 0 55 -210 0 -210 0 0 -55z"/>
<path d="M5741 1928 c-102 -53 -108 -196 -11 -252 47 -28 133 -28 179 -1 63
37 87 117 57 189 -32 76 -142 108 -225 64z m134 -59 c29 -29 28 -110 -2 -140
-52 -53 -133 -9 -133 72 0 55 46 104 88 94 15 -3 36 -15 47 -26z"/>
<path d="M6063 1943 l-33 -4 0 -140 0 -139 35 0 35 0 0 56 c0 54 0 55 27 52
27 -3 43 -23 63 -80 8 -24 15 -28 49 -28 l40 0 -16 48 c-9 26 -23 55 -32 65
-14 17 -14 20 0 30 9 7 21 23 28 35 16 30 0 75 -33 90 -28 13 -120 21 -163 15z
m108 -53 c41 -23 16 -70 -38 -70 -31 0 -33 2 -33 33 0 19 3 37 7 40 10 10 42
8 64 -3z"/>
<path d="M4280 1800 l0 -140 35 0 35 0 0 97 0 97 61 -97 c60 -96 61 -97 100
-97 l39 0 0 140 0 140 -36 0 -37 0 7 -92 c5 -76 4 -90 -7 -74 -6 10 -33 52
-59 92 l-48 74 -45 0 -45 0 0 -140z"/>
<path d="M4620 1800 l0 -140 105 0 c105 0 105 0 105 25 0 23 -3 24 -67 27
l-68 3 0 30 c0 30 0 30 63 33 58 3 62 4 62 27 0 23 -4 24 -62 27 -60 3 -63 4
-66 31 l-3 27 65 0 c64 0 66 1 66 25 l0 25 -100 0 -100 0 0 -140z"/>
<path d="M4860 1938 c0 -2 18 -64 39 -138 l38 -135 43 0 44 0 22 88 c22 89 34
117 34 81 0 -10 8 -54 17 -96 l16 -78 43 0 43 0 26 88 c14 48 33 107 41 131
19 61 19 61 -25 61 l-38 0 -19 -90 c-10 -49 -20 -90 -24 -90 -3 0 -14 41 -24
90 l-18 90 -42 0 -43 0 -23 -102 -24 -103 -14 65 c-31 145 -28 140 -72 140
-22 0 -40 -1 -40 -2z"/>
<path d="M5380 1935 c0 -2 23 -40 50 -83 45 -71 50 -85 50 -135 l0 -57 35 0
35 0 0 55 c0 49 5 63 55 140 l55 85 -43 0 c-42 0 -43 -1 -71 -57 l-29 -58 -26
57 c-26 57 -27 57 -68 58 -24 0 -43 -2 -43 -5z"/>
<path d="M6320 1800 l0 -140 35 0 c35 0 35 1 35 43 0 40 13 67 32 67 4 0 24
-25 44 -55 35 -53 39 -55 81 -55 l43 0 -56 80 -56 80 52 60 52 60 -49 0 c-46
-1 -49 -3 -88 -55 -22 -30 -43 -55 -47 -55 -5 0 -8 25 -8 55 l0 55 -35 0 -35
0 0 -140z"/>
<path d="M4262 1538 c-28 -14 -39 -53 -21 -74 7 -9 30 -23 51 -31 21 -8 38
-21 38 -28 0 -19 -33 -27 -63 -16 -20 8 -27 7 -31 -5 -10 -26 3 -34 50 -34 52
0 79 12 94 41 16 28 -9 64 -55 79 -49 16 -46 40 4 40 40 0 64 23 35 34 -24 9
-77 6 -102 -6z"/>
<path d="M4465 1538 c-2 -7 -18 -51 -35 -97 -16 -47 -30 -86 -30 -88 0 -2 13
-3 29 -3 23 0 30 5 33 23 2 17 10 23 39 25 32 3 37 0 43 -22 5 -21 13 -26 36
-26 l29 0 -34 95 c-19 53 -35 98 -35 100 0 11 -71 4 -75 -7z m54 -90 c1 -12
-6 -18 -19 -18 -23 0 -24 8 -9 47 10 26 12 27 19 8 5 -11 9 -28 9 -37z"/>
<path d="M4637 1543 c-4 -3 -7 -48 -7 -100 0 -92 0 -93 25 -93 23 0 24 3 27
67 l3 68 40 -67 c34 -57 44 -68 68 -68 l27 0 0 100 c0 93 -1 100 -20 100 -18
0 -20 -7 -20 -67 l0 -68 -43 68 c-34 55 -47 67 -68 67 -14 0 -29 -3 -32 -7z"/>
<path d="M4930 1450 l0 -100 25 0 c23 0 25 4 25 40 l0 40 40 0 c33 0 40 3 40
20 0 17 -7 20 -40 20 -33 0 -40 3 -40 20 0 17 7 20 46 20 38 0 45 3 42 18 -3
14 -16 18 -71 20 l-67 3 0 -101z"/>
<path d="M5107 1543 c-4 -3 -7 -48 -7 -100 0 -93 0 -93 25 -93 23 0 25 4 25
40 0 57 38 54 57 -5 7 -22 17 -31 37 -33 25 -3 26 -1 20 25 -3 15 -12 38 -20
50 -11 18 -11 22 2 27 25 10 14 68 -16 83 -26 13 -112 18 -123 6z m98 -58 c0
-14 -8 -21 -27 -23 -24 -3 -28 0 -28 23 0 23 4 26 28 23 19 -2 27 -9 27 -23z"/>
<path d="M5335 1498 c-10 -29 -26 -74 -36 -100 l-19 -48 30 0 c23 0 31 5 36
25 5 20 12 25 40 25 28 0 35 -5 40 -25 5 -20 13 -25 36 -25 33 0 34 -8 -11
117 -28 76 -30 78 -64 81 -34 3 -35 2 -52 -50z m65 -62 c-5 -5 -16 -6 -24 -3
-13 5 -13 12 -4 39 l12 33 12 -30 c7 -17 9 -34 4 -39z"/>
<path d="M5520 1451 c0 -94 1 -101 20 -101 17 0 19 8 22 67 l3 67 44 -67 c37
-57 48 -67 73 -67 l29 0 -3 98 c-3 92 -4 97 -25 100 -22 3 -23 0 -23 -64 l0
-68 -39 65 c-33 54 -43 64 -70 67 l-31 3 0 -100z"/>
<path d="M5793 1535 c-39 -17 -53 -42 -53 -93 0 -59 42 -92 116 -92 47 0 54 3
54 19 0 16 -7 20 -40 19 -47 0 -80 23 -80 59 0 36 34 63 79 63 36 0 59 18 44
34 -11 11 -88 5 -120 -9z"/>
<path d="M5947 1544 c-4 -4 -7 -49 -7 -101 l0 -93 30 0 31 0 -3 98 c-3 89 -5
97 -23 100 -12 2 -24 0 -28 -4z"/>
<path d="M6062 1540 c-53 -22 -41 -81 23 -106 25 -9 45 -20 45 -25 0 -16 -35
-27 -68 -22 -29 5 -33 3 -30 -13 2 -15 14 -20 51 -22 63 -4 97 17 97 58 0 26
-7 33 -46 53 -26 12 -47 27 -48 32 0 6 18 11 42 13 34 3 43 7 40 20 -4 20 -69
27 -106 12z"/>
<path d="M6250 1528 c-43 -29 -58 -74 -40 -118 17 -40 57 -60 120 -60 44 0 51
3 48 18 -2 12 -14 17 -41 18 -45 1 -77 28 -77 64 0 38 29 60 79 60 35 0 42 3
39 18 -5 28 -85 29 -128 0z"/>
<path d="M6441 1536 c-57 -32 -68 -111 -22 -157 25 -24 38 -29 79 -29 85 0
133 66 102 141 -22 53 -103 76 -159 45z m97 -38 c7 -7 12 -29 12 -50 0 -70
-75 -88 -100 -22 -10 24 -5 48 13 72 12 15 59 16 75 0z"/>
<path d="M4320 1180 c0 -29 2 -30 45 -30 l45 0 0 -115 0 -115 35 0 35 0 0 115
0 115 45 0 c43 0 45 1 45 30 l0 30 -125 0 -125 0 0 -30z"/>
<path d="M4675 1196 c-52 -23 -78 -60 -83 -119 -8 -102 46 -157 153 -157 100
0 157 49 158 138 1 60 -25 108 -73 133 -40 22 -112 24 -155 5z m107 -47 c27
-14 50 -73 42 -107 -17 -71 -93 -97 -133 -46 -31 39 -29 107 4 139 26 27 54
31 87 14z"/>
<path d="M4978 1203 c-16 -4 -18 -20 -18 -144 l0 -139 35 0 35 0 0 56 c0 54 0
55 27 52 27 -3 43 -23 63 -80 8 -24 15 -28 49 -28 l40 0 -16 48 c-9 26 -23 55
-31 65 -14 16 -13 19 5 40 29 32 33 49 18 84 -10 24 -23 34 -52 42 -38 11
-122 13 -155 4z m123 -53 c42 -23 12 -70 -45 -70 -24 0 -26 4 -26 40 0 36 2
40 26 40 14 0 34 -5 45 -10z"/>
<path d="M5324 1196 c-97 -43 -120 -168 -44 -241 27 -25 40 -30 99 -33 80 -5
122 12 151 61 27 43 26 119 0 162 -35 57 -135 81 -206 51z m121 -61 c33 -32
35 -100 4 -139 -56 -71 -159 7 -129 99 21 65 82 84 125 40z"/>
<path d="M5607 1203 c-4 -3 -7 -69 -7 -145 l0 -138 35 0 34 0 3 99 3 99 60
-96 c59 -96 60 -97 103 -100 l42 -3 0 145 0 146 -35 0 -35 0 0 -92 0 -92 -60
92 c-58 90 -60 92 -98 92 -21 0 -42 -3 -45 -7z"/>
<path d="M5920 1180 c0 -29 2 -30 45 -30 l45 0 0 -115 0 -115 40 0 40 0 0 115
0 115 46 0 c44 0 45 1 42 28 l-3 27 -127 3 -128 3 0 -31z"/>
<path d="M6270 1192 c-71 -35 -99 -118 -66 -197 24 -56 68 -77 153 -73 64 3
76 7 103 33 77 74 58 202 -36 241 -46 19 -112 17 -154 -4z m123 -52 c47 -37
44 -135 -4 -160 -89 -48 -163 77 -90 151 35 34 59 36 94 9z"/>
</g>
</svg>
