<?xml version="1.0" encoding="UTF-8"?>
<svg id="Layer_1" data-name="Layer 1" xmlns="http://www.w3.org/2000/svg" version="1.1" viewBox="0 0 306 128">
  <g>
    <path d="M158.83,89.63c.51-1.52,3-2.53,2.7-4.6-.09-.65-.61-1.22-1.42-1.77-3.96,1.7-7.85,5.73-11.23,9.96-1.11,1.39-2.17,2.84-3.28,4.59-1.32,2.08-3.76,5.66-4.8,8.34-1.07,2.76-1.81,6.38-.16,8.71,3.52-.23,5.49-2.16,7.34-4.22,1.72-1.91,2.51-5.58,5.91-5.7.04,1.75-1.79,3.82-3.3,5.75-2.76,3.53-9.47,10.74-13.14,3.54.14-1.65-.16-4.15.41-6.39,1.14-4.5,5.11-10.5,8.41-14.96,1.63-2.19,3.48-4.36,5.34-6.29,2.32-2.41,5.71-5.65,8.53-5.37,4.67.47,3.96,9.58-1.32,8.4h.01Z" fill="#fff" fill-rule="evenodd" stroke-width="0"/>
    <path d="M239.05,88.48c-.65.8-1.97.92-2.93,1.4-2.46,2.28-4.03,5.49-5.68,8.61,1,.73,1.5-1.59,3.21-1.1.62,2.82-2.9,3.62-5.02,4.56-2.14,3.27-4.82,9.81-7.79,12.64-.75.71-3.98,1.78-5.54,1.06-3.12-1.44-2.17-9.48,2.76-8.09-.45,2.3-3.17,2.23-2.71,5.47-.1.67.83.34.85.89,2.03.25,3.8-1.35,4.7-2.53,1.89-2.47,3.19-5.95,4.81-8.63-1.22-1.9-3.76-2.03-3.98-4.72-.6-7.33,11.12-10.24,16.77-11.6.23.63.73,1,.55,2.04h0ZM224.39,95.77c-.31,2.48.33,4.06,2.24,4.4,2.03-2.93,3.69-6.23,5.69-9.2-3.56.64-6.07,2.39-7.93,4.8h0Z" fill="#fff" fill-rule="evenodd" stroke-width="0"/>
    <path d="M100.26,98.73c1.1,1.66.31,4.31-2.39,3.73-1.04-1.58-.32-4.32,2.39-3.73Z" fill="#fff" fill-rule="evenodd" stroke-width="0"/>
    <path d="M113.91,99.27c2.19.37,1.03,4.42-1.52,3.46-.75-1.4.11-3.34,1.52-3.46Z" fill="#fff" fill-rule="evenodd" stroke-width="0"/>
    <path d="M248.05,105.21c.02,1.31.02,2.58-.93,2.89-1.34.25-1.18-.95-1.72-1.48-2.67,1.47-5,3.29-5.36,7.17,2.26,2.33,3.4-2.33,5.54-1.06-.36,3.08-5.47,4.67-7.3,1.9-1.28.25-1.6,1.49-3.22,1.39-4.07-2.79,1.5-6.35,2.21-9.55-3.26.74-4.49,3.97-6.23,6.86-.72,1.2-1.26,3.51-3.53,2.26,1.07-3.33,3.88-4.85,4.52-8.63-2.06.22-3,2.91-4.45,4.86-1.33,1.8-2.98,4.36-5.3,3.97-.59-1.69,1.23-1.91,2.09-2.87,2.43-2.69,3.72-7.3,7.42-8.58,1.42-.13,1.34,1.18,2.3,1.49,1.03-.7,1.82-1.66,3.8-1.38,0,.28.35.23.58.3,1.92,3.8-2.39,5.65-2.78,8.96,2.63.06,3.25-4.03,5.35-6.3,1.77-1.92,4.96-4.19,7.01-2.2h0Z" fill="#fff" fill-rule="evenodd" stroke-width="0"/>
    <path d="M181.53,103.7c.95-.06,1.39.37,1.43,1.19.58-.56,1.66-.15,2.32.04.25.99.78,1.72.52,3.2,1.57-1.5,5.21-4.59,9.07-3.03-1.44,3.15-3.63,5.51-4.81,8.92,3.52-1.35,4.48-12.14,10.03-8.24,1.52-.41,2.96-1.38,4.07.07-.04,4-3.06,4.91-3.64,8.36,2.77-.79,3.41-3.64,5.06-6.3.82-1.32,1.46-3.6,3.55-3.42,0,2.97-3.14,5.21-3.64,8.65,1.96-.59,2.96-2.86,4.15-4.57,1.12-1.6,1.92-4.52,4.43-3.7-2.88,5.16-6.33,10.11-9.29,15.52-.9,1.64-1.32,4.02-3.29,4.88-1.39-3.51,2.53-6.11,3.65-8.94-1.65-1.17-2.73-1.01-5.22-.39-.28-.4-.76-.59-1.14-.89-.24-4,2.6-4.79,3.34-7.78-2.29.32-3.25,3.44-4.76,6.02-.62,1.06-1.35,2.89-2.95,2.56-.21-3.1,2.94-5.22,3.64-8.36-3.52,1.57-3.89,6.95-7.71,8.58-.86-.12-1.47-.49-2.02-.91-1.17.56-2.7,1.65-4.37.79-.33-.82-.28-2.01-.23-3.2-1.39,1.54-3.92,4.88-6.44,2.5-2.26,1.84-2.41,7.31-6.22,6.57-.14-1.78,2.02-3.58,2.71-5.47-.51-.96-1.76.58-2.32-.33-.24-.24-.16-.8-.56-.88.37-3.66,3.19-4.78,3.92-8.07-2.84.75-4.3,3.66-5.92,6.29-.76,1.23-1.32,3.57-3.25,2.85.8-3.41,3.09-5.28,4.22-8.35-4,1.48-4.71,6.36-7.43,9.16-.91.12-.75-.79-1.43-.9,1.11-3.09,3.34-5.02,4.22-8.35-1.4.52-1.95,1.92-3.53,2.26-1.81,3.06-3.53,6.21-7.4,7.13-6.87-2.15.42-12.98,6.62-12.08.54.62.81,1.5,1.12,2.34,1.59-.62,2.27-2.18,4.11-2.54,1.06,1.15,2.92,1,3.78-.22,1.34-.32,1.25,1.42,2.01,1.49.9.08,1.67-1.95,3.23-1.98,4.57,2.47-.81,6.5-1.63,9.56,3.94-.84,5.9-6.31,8.03-10.02h-.03ZM178.73,114.11c3.24-.88,4.54-3.77,5.36-7.16-2.84-.05-5.45,4.17-5.36,7.16ZM185.99,113.95c3.07,0,3.92-4.79,5.65-7.16-3.49.72-4.88,3.62-5.65,7.16ZM160.25,107.67c.36-.86-1.2-1.27-1.44-.61.68.14.76,1.3,1.44.61ZM153.72,114.82c2.8-.55,4.18-2.57,5.32-4.84-.58-.67-1.11-1.4-1.41-2.35-1.55,2.14-3.78,3.58-3.91,7.19Z" fill="#fff" fill-rule="evenodd" stroke-width="0"/>
    <path d="M134.72,105.17c-1.28,3.91-3.65,7.87-5.73,11.52-.95,1.66-2.29,3.49-3.29,5.17-.82,1.38-1.71,4.79-4.13,3.7.98-3.33,2.96-5.61,4.51-8.34-1.02-.54-2.17-.96-2.87-1.8-1.04.7-1.82,1.66-3.8,1.39-2.72-3.79,2.24-6.28,2.5-9.83-3.18,1.45-4.19,5.19-6.25,8.02-.59.81-1.36,2.28-2.65,1.99-.09-3.86,4.08-5.82,4.54-10.09-2.24.6-3.07,3.22-4.45,5.15-1.19,1.65-3,4.29-4.73,4.56-1.46.23-1.82-.87-2.89-.92-1.3-.07-1.8,1.38-3.5.81-.51-.74-.97-1.54-.82-2.92-2.43.15-2.55,3.92-5,3.1.69-4.14,5.78-5.23,5.97-8.9-3.22.29-5.56,9.69-10.04,8.82-1.05-.2-1.38-.5-1.71-1.77-1.31.77-2.65,2.56-4.68,1.66.3-1.61,2.13-1.92,3.25-2.85.94-.78,2.18-1.89,2.96-2.85,1.56-1.93,1.95-5.06,4.17-5.73,1.78,1.29-.35,3.07-1.24,4.33-1.03,1.47-2.2,3.12-2.7,4.6,4.58-.15,4.87-8.29,10.33-8.82.97.11,1.14.99,1.42,1.77,1.73-.48,2.08-2.38,4.11-2.54.44,4.26-6.83,4.51-4.84,10.37,1-.35,1.97-.86,2.64-1.69,1.92-2.37,2.24-6.87,5.38-8.04,1.25,3.65-3.3,5.92-3.67,9.81,4.83-1.89,4.68-8.96,10.07-10.28.97.11,1.14.99,1.42,1.77,1.54-.31,2.17-1.8,4.09-1.09,4,1.49-2.06,6.78-2.49,9.25.59.88,1.2-.71,2.05-.55,1.1-4.39,3.45-7.47,7.14-9.17,2.16-.39,3.06,1.36,4.07-.22.38.11.45.52.86.6h0ZM125.25,114.88c2.11.37,3.29-1.88,4.13-3.12.93-1.38,2.26-3.26,1.83-4.91-3.46,1.02-6.17,4.15-5.96,8.03Z" fill="#fff" fill-rule="evenodd" stroke-width="0"/>
    <path d="M247.41,113.53c0,.28.35.23.57.3.05,2.22-.89,3.41-2.4,4.02-.44-1.44.21-4.06,1.82-4.32h0Z" fill="#fff" fill-rule="evenodd" stroke-width="0"/>
    <path d="M92.57,90.16c-5.02,6.72-10.04,13.88-14.63,21.23-1.51,2.43-2.58,5.25-4.78,7.18-1.6-2.54.61-5.45,1.6-7.81,3.07-7.39,6.66-15.73,9.44-23.66-7.35,10.94-14.05,23.34-21.55,34.77-1.01,1.54-2.3,3.6-4.7,2.53,1.01-.43.59-1.27,1.51-2.88,1.75-3.09,4.44-6.44,6.57-9.76,6.92-10.8,14.01-21.97,20.66-33.33.61-1.04,1.3-2.27,2.1-3.45.7-1.03.77-3.15,2.95-2.27-1.57,5.44-3.69,11.15-5.83,16.75-2.11,5.52-4.63,10.87-6.69,16.15,2.38-2.3,3.69-5.64,5.68-8.61,4.73-7.08,10.01-14.23,14.92-21.52.9-1.34,1.73-3.36,3.55-3.71.77,1.79-1.04,4.07-2.14,6.06-1.11,2-2.26,3.99-3.31,6.04-2.06,4.07-3.84,8.31-5.75,12.68-2.83,6.48-5.22,12.73-7.63,20.2-.34,1.06-.55,2.6-.94,3.76-.29.87-.27,2.61-1.79,2.58-1.26-1.23-.2-3.11.08-4.36,2.18-9.87,6.19-19.35,10.38-27.41,0-.2,0-.39.01-.58.06-.23.3-.28.3-.57h-.01Z" fill="#fff" fill-rule="evenodd" stroke-width="0"/>
  </g>
  <g>
    <g>
      <path d="M159.15,73.3s-1.63-.24-1.55-1.06l.08-55.04h-17.91s.33,2.77-5.37,3.18v4.15h5.29v47.55s.08,1.06-.89,1.14h-4.4v5.37h28.25v-5.29h-3.5Z" fill="none" stroke="#fff" stroke-miterlimit="10" stroke-width=".25"/>
      <path d="M149.37,27.91s1.25-2.84-3.88-2.87c0,0-.67,1.04,1.1,2.35,0,0,.67.46,1.65.52,0,0,.73.24,1.31,1.19,0,0-3.79-.64-4.06.7,0,0,3.21-.12,4.34,1.04,0,0,.55,1.19.03,4.18,0,0-1.07-1.74-3.54-2.93,0,0-2.2-.95-2.96.4,0,0,.18.15.46-.06.27-.21,1.5-.43,2.53.06,1.04.49,3.51,2.29,3.54,3.97,0,0,.06,3.02-.55,4.61,0,0,.37.43.46.58.22-1.23.46-2.48.49-3.73.03-1.06-.09-2.02.29-3.04.16-.45.45-1.12.83-1.43,0,0,.73-.61,1.1-.83.37-.21.03-.52-.58-.33-.61.18-1.1.43-1.37,1.5,0,0-.16-.83-.03-1.71.12-.82.06-1.53-.21-2.18-.2-.48-1.19-1.42-.95-1.98h0Z" fill="none" stroke="#fff" stroke-miterlimit="10" stroke-width=".25"/>
      <path d="M151.51,27.36s.28,1.83-.7,2.53l-.52-.79s-.61-.52,1.22-1.74Z" fill="none" stroke="#fff" stroke-miterlimit="10" stroke-width=".25"/>
      <path d="M148.45,28.46s-1.86-.34-2.44-1.04-1.1-1.16-2.08-.21c0,0-.49.27-.52.73s.61,0,.61,0c0,0,.64-.46,1.95.24s1.74.4,2.47.27h.01Z" fill="none" stroke="#fff" stroke-miterlimit="10" stroke-width=".25"/>
      <path d="M143.26,28.37s-.21.92.21.85c.43-.06,1.31-.49,1.47-.64.15-.15.03-.46-.7-.28s-.67.21-.98.06h0Z" fill="none" stroke="#fff" stroke-miterlimit="10" stroke-width=".25"/>
      <path d="M155.49,28.78c-.47-.62-1.51-.4-2.03-.02-1.16.85-2.5,1.89-2.59,3.57.36-.17.73-.32,1.1-.47.31-.12.62-.23.93-.33.35-.11.64-.05.81-.42.14-.28.16-.61.3-.89.36-.72.82-1.04,1.48-1.44Z" fill="none" stroke="#fff" stroke-miterlimit="10" stroke-width=".25"/>
      <path d="M142.47,34.9s.76-1.47,2.6-1.47c.23,0,1.11.04,1.09-.33-.02-.56-1.55-.3-1.85-.29-.61.02-1.42.12-1.85.6-.32.36-.16.67-.2,1.08,0,0-.03.34.21.4h0Z" fill="none" stroke="#fff" stroke-miterlimit="10" stroke-width=".25"/>
      <path d="M153.58,34.32s.21-2.05-.94-1.37c-.2.12-.67.2-.77.44-.11.27.52.38.68.43.16.05,1.06.34,1.04.51h0Z" fill="none" stroke="#fff" stroke-miterlimit="10" stroke-width=".25"/>
      <path d="M146.65,34.84s-1.01,2.08-.82,3.73c0-.11-.29-.35-.34-.49-.19-.56-.03-1.42.12-1.98.07-.28.19-.56.37-.79.13-.17.62-.34.68-.46h0Z" fill="none" stroke="#fff" stroke-miterlimit="10" stroke-width=".25"/>
      <path d="M146.96,34.99s.24-.46.4.06c0,0,.27,2.93-.58,5.19,0,0,0,.31-.37.27-.2-.03-.33-.67-.32-.82,0-.3.06-.63.1-.93.1-.86.2-1.73.4-2.58.09-.4.18-.83.38-1.19h0Z" fill="none" stroke="#fff" stroke-miterlimit="10" stroke-width=".25"/>
      <path d="M147.81,35.15s-.09-.43.34-.18c0,0,1.31,1.4.46,2.99,0,0-.49,1.28-.76,1.44-.28.15-.34.06-.28-.24.06-.31.31-.43.24-4h0Z" fill="none" stroke="#fff" stroke-miterlimit="10" stroke-width=".25"/>
      <path d="M144.91,38.84s0-.37.24-.12c0,0,.79,1.1.4,2.87-.12.52-.54,1.05-.91,1.42-.15.15-1,1.05-.93.38,0,0,1.16-2.47,1.19-4.55h0Z" fill="none" stroke="#fff" stroke-miterlimit="10" stroke-width=".25"/>
      <path d="M143.97,38.29c-.12.18-.18.39-.28.59-.15.29-.3.58-.44.87-.29.6-.55,1.23-.69,1.88-.03.12-.26,1.24-.04,1.26.18.02.5-1.44.54-1.58.28-.88.68-1.98,1.29-2.69-.05.31.09.59.07.9-.06.9-.25,1.86-.6,2.69-.13.32-.29.62-.41.95-.08.22-.02.55-.17.74-.14.19-.58.36-.72.1,0,0-.67-1.25-.37-2.05.18-.46.15-1,.26-1.48.21-.92.89-1.56,1.56-2.19h0Z" fill="none" stroke="#fff" stroke-miterlimit="10" stroke-width=".25"/>
      <path d="M153.58,38.93s3.66.18,3.54,4.18c0,0-.09.31-.21,0,0,0-1.13-2.41-2.66-3.3,0,0-.82-.46-.67-.89h0Z" fill="none" stroke="#fff" stroke-miterlimit="10" stroke-width=".25"/>
      <path d="M151.57,53.68s-.06-3.45,3.57-7.17c0,0,1.43-1.19,1.8-2.38.07-.23-.45-1.01-.57-1.23-.23-.42-.5-.82-.79-1.19-.31-.39-.63-.78-1-1.12-.27-.26-.61-.43-.91-.66-.2-.15-.41-.42-.49,0,0,0-.46,1.07,1.34,2.41s1.77,1.1,2.08,1.68c0,0-.09.46-.64.85,0,0-.24.4-.7.03-.46-.37-.58-1.07-2.02-.37,0,0-1.4,1.22-2.56,1.68,0,0,.52.46,2.23-.64,1.71-1.1,2.23-.46,2.57-.09,0,0-.49.55-1.13,1.19s-3.05,3.27-3.08,6.99" fill="none" stroke="#fff" stroke-miterlimit="10" stroke-width=".25"/>
      <path d="M152.15,53.62s.46-3.02,3.42-5.8c0,0,.46,0,.34.31,0,0-.52.55-.83.79-.27.21-.28.68-.35.99-.03.11-.15,1.15-.14,1.15l-.64.24s.18-.76.4-.98c.21-.21-.25-.3-.34-.15s-1.44,2.75-1.59,3.51l-.27-.06h0Z" fill="none" stroke="#fff" stroke-miterlimit="10" stroke-width=".25"/>
      <path d="M142.1,53.4s-.15-1.04.21-1.28c.09-.06-.24-.49-.27-.59-.1-.27-.19-.62-.12-.91-.03.16.3.53.38.66.1.15.22.41.41.19,0,0,.82-1.16,2.2-1.34,0,0,.15,0,.18-.21,0,0,.24-1.43.36-1.53.38-.29.34.17.32.4,0,.16-.37,1.79-.66,1.58,0,0-.64-.49-2.75,2.9l-.27.12h0Z" fill="none" stroke="#fff" stroke-miterlimit="10" stroke-width=".25"/>
      <path d="M143.41,53.53s.7-1.01,1.13-1.28c.23-.15.38-.41.5-.65.08-.16.1-.36.22-.5.18-.21.39-.08.4.15,0,.17-.06.38-.11.55-.21.72-.78,1.32-1.35,1.77l-.79-.03h0Z" fill="none" stroke="#fff" stroke-miterlimit="10" stroke-width=".25"/>
      <path d="M142.8,53.34s.21-.89,1.68-2.41c.22-.23.5,0,.46.26-.04.23-.27.41-.41.59-.48.62-1.04,1.18-1.73,1.57h0Z" fill="none" stroke="#fff" stroke-miterlimit="10" stroke-width=".25"/>
      <path d="M154.5,53.43l-.03-1.04s-1.16.15-1.04,1.16l1.07-.12h0Z" fill="none" stroke="#fff" stroke-miterlimit="10" stroke-width=".25"/>
      <path d="M154.83,52.43l.06.95.98-.12s-.7-.85-1.04-.82h0Z" fill="none" stroke="#fff" stroke-miterlimit="10" stroke-width=".25"/>
      <path d="M154.92,51.91s.58.37.73.52c0,0,0-1.07-.7-1.4l-.03.89h0Z" fill="none" stroke="#fff" stroke-miterlimit="10" stroke-width=".25"/>
      <path d="M153.73,52.4s.64-.4.76-.61-.12-.33-.33-.27c-.21.06-.64.33-.43.88Z" fill="none" stroke="#fff" stroke-miterlimit="10" stroke-width=".25"/>
      <path d="M140.82,61.68s-1.13,2.14-.46,3.05c.14.19.91-.85.98-.98.15-.27,1.04-1.04.79-1.83l-1.31-.24h0Z" fill="none" stroke="#fff" stroke-miterlimit="10" stroke-width=".25"/>
      <path d="M142.53,61.92s-.09,1.34-1.53,2.59c0,0,2.26-1.07,2.69-2.41,0,0-1.16-.18-1.16-.18Z" fill="none" stroke="#fff" stroke-miterlimit="10" stroke-width=".25"/>
      <path d="M140.58,64.39s0-.86.27-1.46c.28-.61.46-.86.37-1.13" fill="none" stroke="#fff" stroke-miterlimit="10" stroke-width=".25"/>
      <path d="M152.36,61.86s-.43.58-.3,1.53c0,0,.24.28.46.06.21-.21,1.1-.85,1.1-.85,0,0,.67-.28-.67-.46l-.58-.27h-.01Z" fill="none" stroke="#fff" stroke-miterlimit="10" stroke-width=".25"/>
      <path d="M155.17,61.74s1.01.73,1.01,1.99c0,0,.06.37-.28.18-.34-.18-.67-.7-1.1-.95-.43-.24-.92-.82-.21-1.22h.58Z" fill="none" stroke="#fff" stroke-miterlimit="10" stroke-width=".25"/>
      <path d="M154.8,66.93s.11-.1.14-.13c.13-.13.25-.29.35-.44.17-.25.31-.53.42-.81.21-.54.5-.91-.03-1.33-.48-.38-.91-.82-1.4-1.19.1.39.07.96.41,1.19.27.18.56.35.81.55,0,0,.12.33-.15.33-.18,0-.34-.23-.55-.21.03,0,.06,1.85,0,2.04h0Z" fill="none" stroke="#fff" stroke-miterlimit="10" stroke-width=".25"/>
      <path d="M154.35,66.77c-.18-.16-.41-.3-.56-.48-.2-.23.1-.47.32-.62.18-.12.27.18.27.18,0,0,0,.7-.03.92h0Z" fill="none" stroke="#fff" stroke-miterlimit="10" stroke-width=".25"/>
      <path d="M152.45,63.88s-.25.24-.09.4c0,0,.3.73.85.21l.58-.49s.09-.12.09-.33c0,0-.03-.86-.55-.49l-.88.7Z" fill="none" stroke="#fff" stroke-miterlimit="10" stroke-width=".25"/>
      <path d="M153.18,64.91s-.4.18-.12.46l.24.27s.3.12.46-.06c0,0,.49-.27.49-.55l-.12-.52s-.09-.37-.43-.03l-.52.43h0Z" fill="none" stroke="#fff" stroke-miterlimit="10" stroke-width=".25"/>
      <path d="M153.03,66.07s-.4,1.37,1.56,5.43c0,0,.55,1.4.73.7-.27-.89-.56-1.77-.89-2.64-.19-.5-.5-.93-.64-1.46-.11-.43-.18-.89-.18-1.33l-.58-.7Z" fill="none" stroke="#fff" stroke-miterlimit="10" stroke-width=".25"/>
      <path d="M151.99,73.04s-2.14-4.98-1.59-10.93h.4s0,5.01.64,7.36c0,0,.64,2.84.55,3.57Z" fill="none" stroke="#fff" stroke-miterlimit="10" stroke-width=".25"/>
      <path d="M149.16,62.1c-.05,1.18-.16,2.35-.34,3.52-.14.9-.52,1.74-.65,2.65-.13.94-.13,1.88-.11,2.83,0,.44.02.93.23,1.34.04.09.29.5.44.37.11-.09-.12-.49-.15-.58-.3-.89-.02-1.85.09-2.75.14-1.05.26-2.09.42-3.13.22-1.41.58-2.84.31-4.28l-.24.03Z" fill="none" stroke="#fff" stroke-miterlimit="10" stroke-width=".25"/>
      <path d="M145.12,62.13s.03,3.85-.24,4.76c-.23.75-.06,1.65.13,2.39.09.37.23.72.42,1.06.12.21.37.67.62.74,0,0,.43.12.12-.3-.3-.43-1-1.62-.79-2.72s.4-4.82-.03-5.92h-.23Z" fill="none" stroke="#fff" stroke-miterlimit="10" stroke-width=".25"/>
      <path d="M142.99,63.51s-.95.76-.27,4.12c0,0,.24,2.72-.18,3.67-.11.24-.07.59-.02.85.05.27.16.26.29,0,0,0,0-.98.24-1.8.24-.83-.03-3.73-.12-4.09-.09-.37-.12-2.02.15-2.44l-.09-.3h0Z" fill="none" stroke="#fff" stroke-miterlimit="10" stroke-width=".25"/>
      <path d="M150.1,44.61s-1.62.46-2.5-.52c-.89-.98-1.53-1.89-1.41-2.59,0,0,1.65,2.29,2.26,2.53,0,0,.18.28.67.21,0,0-1.98-2.44-2.32-2.84,0,0-.27-.4.34-.28,0,0,1.74,1.8,2.5,2.99,0,0,.27.03.15-.37,0,0-1.28-2.11-2.38-3.14,0,0-.21-.34.18-.27.38.27.75.56,1.1.87.47.41.86.87,1.07,1.47.17.49.6,1.44.33,1.94h.01Z" fill="none" stroke="#fff" stroke-miterlimit="10" stroke-width=".25"/>
      <path d="M150.44,45.77s1.07-.4,1.89-.95c.82-.55.91-.85,1.47-1.01,0,0,.33-.09-.03-.27-.37-.18-1.53-.15-2.54.95s-.79,1.28-.79,1.28h0Z" fill="none" stroke="#fff" stroke-miterlimit="10" stroke-width=".25"/>
      <path d="M145.77,45.65s.98,1.83-1.95,3.69c0,0-.43.15-.18-.27,0,0,1.47-1.53,2.14-3.42h-.01Z" fill="none" stroke="#fff" stroke-miterlimit="10" stroke-width=".25"/>
      <path d="M145.19,45.22s.34,1.62-2.75,4.58c0,0-.43.46-.76-.03-.29-.42.19-.69.4-.97.17-.22.29-.49.45-.73.49-.72.97-1.46,1.6-2.08.31-.31.65-.62,1.06-.78h0Z" fill="none" stroke="#fff" stroke-miterlimit="10" stroke-width=".25"/>
      <path d="M144.7,44.49s.58.03.21.28c0,0-2.23,1.89-2.93,3.66,0,0-.18.4-.28.09-.09-.31.67-2.72,2.99-4.03h0Z" fill="none" stroke="#fff" stroke-miterlimit="10" stroke-width=".25"/>
      <path d="M146.01,43.05s.46,1.4,1.13,2.17c.14.16.36.42.19.63-.44.51-.72-.84-.84-1.07-.17-.32-.44-.6-.59-.94-.08-.2-.31-1.4.11-.79h0Z" fill="none" stroke="#fff" stroke-miterlimit="10" stroke-width=".25"/>
      <path d="M150.41,53.74s.3-.7-.18-2.5c-.1-.8-.12-1.6-.07-2.41.03-.4.09-.79.14-1.19,0-.1.08-.34,0-.43-.02-.03-.26-.13-.26-.06,0,0-.64,2.56-.25,3.91.4,1.34.06,2.81.06,2.81l.55-.12h0Z" fill="none" stroke="#fff" stroke-miterlimit="10" stroke-width=".25"/>
      <path d="M151.96,39.3s.27-.21.34.09c0,0-.95,3.21-1.19,4.64,0,0-.12.58-.43.31,0,0,.15-2.38,1.28-5.04Z" fill="none" stroke="#fff" stroke-miterlimit="10" stroke-width=".25"/>
      <path d="M152.76,36.58s.06-.67-.82-.4c0,0-.28.43.3.64,0,0,.37-.09.52-.24Z" fill="none" stroke="#fff" stroke-miterlimit="10" stroke-width=".25"/>
      <path d="M153.24,36.27s1.19,0,.92.82c0,0-.43.12-.64-.06s-.43-.21-.28-.76Z" fill="none" stroke="#fff" stroke-miterlimit="10" stroke-width=".25"/>
      <path d="M154.06,38.34c-.19.11-.67-.09-.78-.24-.17-.22-.12-.46.17-.52.24-.05.76.4.68.66,0,.04-.04.07-.07.09h0Z" fill="none" stroke="#fff" stroke-miterlimit="10" stroke-width=".25"/>
      <path d="M153.13,37.05c.13.14.14.39-.16.47-.33.09.06,1.43-1.16,1.19,0,0-.28-.64.49-1.01.35-.17.2-.3.33-.54.15-.29.38-.25.51-.11h0Z" fill="none" stroke="#fff" stroke-miterlimit="10" stroke-width=".25"/>
      <path d="M157.49,37.44s.79-.76.86-2.41c.06-1.65.58-1.89.58-1.89,0,0,.06-.4-.46-.34,0,0-.4.64-1.04.43l.06,4.21Z" fill="none" stroke="#fff" stroke-miterlimit="10" stroke-width=".25"/>
      <path d="M157.43,33.53s-.7,1.44-2.66,3.05c0,0-.46-.49-.64-.58,0,0-.33-.18-.15-.4.18-.21.46-1.62,3.45-2.08h0Z" fill="none" stroke="#fff" stroke-miterlimit="10" stroke-width=".25"/>
      <path d="M158.22,33.65s-.67.58-3.72,3.91c0,0,.18.67.06,1.01,0,0,.64.27,1.65-.49.68-.52,1.4-.97,1.59-1.86.18-.85.23-1.72.43-2.57h0Z" fill="none" stroke="#fff" stroke-miterlimit="10" stroke-width=".25"/>
      <path d="M157.55,45.53s.09.58.46.4c.37-.18.73-.73.7-.89-.03-.15-.64-2.14-.55-3.27,0,0,.06-.31-.06-.7-.12-.4-.58-3.17,2.07-4.67,0,0,.28.09.55-.46,0,0,.21-.28.37.18,0,0,.09.73.21.95.12.21.4,2.93-1.31,3.91,0,0-.89.37-.73,1.71,0,0-.06,1.04.15,1.16,0,0,.46-1.22.58-1.56s1.71-3.02,5.1-1.31c0,0,.4.18.89.03,0,0,.58.03.27.21,0,0-.79.34-1.07.76-.28.43-1.44,1.71-4.52,1.92,0,0-.88-.15-.92.64,0,0,4.58-1.53,5.98,2.29,0,0,0,.4.64.98,0,0,.21.34-.18.21-.4-.12-.86-.15-1.1-.12,0,0-2.69.61-3.88-2.08,0,0-.61-1.13-1.25-.61,0,0-.67.46-.97.64,0,0,2.66,1.98,1.98,3.51-.67,1.53-1.8,1.83-2.32,1.37,0,0-.34.52-1.1.79v-6.02.03h.01Z" fill="none" stroke="#fff" stroke-miterlimit="10" stroke-width=".25"/>
      <path d="M157.89,46.5s-1.74,2.05-.52,4.46c0,0-.49.21-.76-.06,0,0-1.65-3.27,1.28-4.4Z" fill="none" stroke="#fff" stroke-miterlimit="10" stroke-width=".25"/>
      <path d="M160.33,36.86s-.46-.06-.91.49l.21.79s.49-.82.7-1.28Z" fill="none" stroke="#fff" stroke-miterlimit="10" stroke-width=".25"/>
      <path d="M159.02,37.89l.46.76s-.06.67-.31.89c0,0-.82-.52-.15-1.65h0Z" fill="none" stroke="#fff" stroke-miterlimit="10" stroke-width=".25"/>
      <path d="M158.47,39.08s.95.95.18,1.71c0,0-.4-.61-.18-1.71Z" fill="none" stroke="#fff" stroke-miterlimit="10" stroke-width=".25"/>
      <path d="M158.56,41.28s-.06.4.09.52c0,0,.4-.3-.09-.52Z" fill="none" stroke="#fff" stroke-miterlimit="10" stroke-width=".25"/>
      <path d="M159.2,40.98s1.74,0,1.83-2.9l-1.01.7s-.4.03-.37.67c0,0,0,.34.37.06,0,0,.4-.21.46-.33,0,0,.15.15.03.27s-.76.46-.91.58c-.15.12-.4.18-.4.95h0Z" fill="none" stroke="#fff" stroke-miterlimit="10" stroke-width=".25"/>
      <path d="M160.66,36.82s.49.46.33,1.07c0,0-.55.49-1,.49,0,0,.06-.58.67-1.56Z" fill="none" stroke="#fff" stroke-miterlimit="10" stroke-width=".25"/>
      <path d="M164.39,41.19s-.7-.58-1.16-.18l-.03.46s.89-.34,1.19-.27h0Z" fill="none" stroke="#fff" stroke-miterlimit="10" stroke-width=".25"/>
      <path d="M164.91,41.56s.12.43-.7.89l-.64-.34s-.21-.18-.03-.21c0,0,.4-.37,1.37-.34Z" fill="none" stroke="#fff" stroke-miterlimit="10" stroke-width=".25"/>
      <path d="M163.75,42.66s-.7-1.01-1.83-.18c0,0,.46.49.61.67.15.18.43-.03.43-.03,0,0,.67-.18.79-.46h0Z" fill="none" stroke="#fff" stroke-miterlimit="10" stroke-width=".25"/>
      <path d="M162.22,43.36l-.64-.7s-1.34.46-1.16.79c0,0,.46.06,1.8-.09Z" fill="none" stroke="#fff" stroke-miterlimit="10" stroke-width=".25"/>
      <path d="M162.07,40.86s-.23.1-.28.12c-.21.1-.42.22-.61.35-.24.16-.51.39-.62.67-.04.11-.09.33,0,.44.15.18.44.15.61.07.16-.08.54-.22.57-.43,0,0,.12-.85.34-1.22h-.01Z" fill="none" stroke="#fff" stroke-miterlimit="10" stroke-width=".25"/>
      <path d="M162.13,41.8s-.09-.67.43-1.01c.45-.29.39.24.33.52-.04.19-.05.32-.25.39-.04,0-.51.08-.51.09h0Z" fill="none" stroke="#fff" stroke-miterlimit="10" stroke-width=".25"/>
      <path d="M165.18,47.21s.34-.98-.98-1.74c0,0-.52-.24-.76.03,0,0-.18.15-.03.27l.4.27.67-.06s.27.21.09.24c-.18.03-.21.18-.12.27l.73.7v.02h0Z" fill="none" stroke="#fff" stroke-miterlimit="10" stroke-width=".25"/>
      <path d="M164.91,47.51s-.79.18-1.13-.06l-.03-.73s.76.37,1.16.79Z" fill="none" stroke="#fff" stroke-miterlimit="10" stroke-width=".25"/>
      <path d="M162.44,46.72c-.05.04-.34-.17-.37-.2-.18-.14-.21-.36-.31-.55-.09-.18-.22-.37-.35-.53-.15-.18.03-.24.12-.21s1.07.09,1.04.85c0,0,.06.52-.12.64h0Z" fill="none" stroke="#fff" stroke-miterlimit="10" stroke-width=".25"/>
      <path d="M163.63,45.04s-1.31-.64-1.98-.34c0,0,.43.31,1.13.61,0,0,.36.3.85-.28h0Z" fill="none" stroke="#fff" stroke-miterlimit="10" stroke-width=".25"/>
      <path d="M162.77,47.02s0-.58.03-.73.21-.24.4-.15c0,0,.21.15.18.49,0,.16.11.52-.02.64-.14.13-.59-.06-.59-.24h0Z" fill="none" stroke="#fff" stroke-miterlimit="10" stroke-width=".25"/>
      <path d="M159.05,46.56s-.4-.4-.7.21c0,0-.18,2.17.67,3.48,0,0,.09.55.92.09.88-.49.79-1.9.26-2.59-.18-.24-.35-.49-.55-.71-.18-.21-.42-.3-.6-.48h0Z" fill="none" stroke="#fff" stroke-miterlimit="10" stroke-width=".25"/>
      <path d="M158.04,47.72s-.4-.34-.52.18c0,0-.55,2.47.37,2.72,0,0,.43.06.52-.43,0,0,0-.12-.46-.15,0,0-.61-.64,0-1.74,0,0,.09-.21.09-.58h0Z" fill="none" stroke="#fff" stroke-miterlimit="10" stroke-width=".25"/>
      <path d="M138.96,37.74c0,.12-.33-.02-.36-.04-.11-.08-.14-.23-.25-.31-.34-.28-1.25-.35-1.65-.2-.58.21-1.86-.95-3.05.03,0,0-.34.12-.58.09-.36-.04-.35.49-.19.67.26.29.63.51.99.65,0,0,1.28.49,1.01,1.1-.28.61.64,2.17,1.53,2.66.89.49,1.07.88,1.07.88,0,0-.92.21-1.5.55,0,0,.03-.64-.98-1.74,0,0,.09-.55-.34-1.01l-.58-.49s-.52-.31-.61.55c0,0-.4.06-.43.08-.31.15.05.58.19.76.26.34.68.54,1.1.57l.21.28s-.61.24-.76.06c-.39-.47-2.24-.09-2.11.64.04.23.42.56.64.61.64.15-.88,1.22.98,1.25,0,0-1.56,1.5.82,1.13,0,0-.18.67.21.76,0,0-.37.61-.7,1.16-.34.55-.82.64-.82.64,0,0-.58.49-.12.82.46.34,1.83,1.07,3.36-.46,0,0,.42-.12,1.01-.06.58.06.82.03,1.25-.21s1.4-.03,1.68.49l.06-14.17s-1.16.79-1.07,2.26h-.01ZM136.64,43.88s.79-.27,1.16-.18c0,0,.21.58.12.7,0,0-.46-.09-.55-.18-.09-.09-.79-.18-.79-.18l.06-.15h0ZM135.42,43.82s-.46.09-.58.21-.52-.24-1.31-.09c0,0,.4-.58.95-.46l.89-.09s.24.43.06.43h0ZM136.91,46.23s-.55.43-.79.27c0,0-.12-.06-.4-.24,0,0,.46-1.04.4-1.95,0,0,2.05.31,2.32,1.19,0,0-1.01.34-1.53.73h0Z" fill="none" stroke="#fff" stroke-miterlimit="10" stroke-width=".25"/>
      <path d="M134.5,45.01h0c.5.15.94-.32,1.06-.77-.11-.02-.26-.01-.37.02-.32.09-.63.44-.7.75h0Z" fill="none" stroke="#fff" stroke-miterlimit="10" stroke-width=".25"/>
      <path d="M135.59,45.52c.02.52-.36,1.13-.88,1.28,0,0-.52.15-.28-.27.24-.28.74-1.03,1.15-1.01h.01Z" fill="none" stroke="#fff" stroke-miterlimit="10" stroke-width=".25"/>
      <path d="M134.74,42.47s-.06-.76-.3-1.01c-.24-.24-.7-.64-.49,0,0,0,.37.46.15.49l-.52-.12s.21.4.43.4.39.03.73.24h0Z" fill="none" stroke="#fff" stroke-miterlimit="10" stroke-width=".25"/>
      <path d="M134.54,45.57v.06c-.07.26-.66.51-.89.54-.55.06-.4-.24-.15-.52.14-.15.34-.24.54-.25.15-.01.48.01.51.17h0Z" fill="none" stroke="#fff" stroke-miterlimit="10" stroke-width=".25"/>
      <path d="M133.46,43.24s.18.37-.18.46c-.37.09-.98.18-1.16-.15-.18-.34.43-.52.43-.52,0,0,.67-.06.92.21h0Z" fill="none" stroke="#fff" stroke-miterlimit="10" stroke-width=".25"/>
      <path d="M133.86,44.24c.2-.02.38.17.33.36s-.25.22-.41.27c-.27.08-.55.12-.83.13,0,0-.46-.21.06-.49.52-.27.61-.24.85-.28h0Z" fill="none" stroke="#fff" stroke-miterlimit="10" stroke-width=".25"/>
      <path d="M133.06,49.65s1.22.58,2.02.06c.79-.52.89-1.1,1.98-.76,1.1.34,1.13-.92,3.24.15,0,0,.67.52.82.34,0,0,.12-.46-.37-.88,0,0,.18.55-.21.55,0,0-.27-.79-.95-.88-.67-.09-1.62-1.19-3.63-.06-2.02,1.13-1.65,1.1-2.9,1.5v-.02h0Z" fill="none" stroke="#fff" stroke-miterlimit="10" stroke-width=".25"/>
      <path d="M133.83,48.85s.8,0,1.31-.58c.37-.41,1-.63,1.51-.81.45-.15,1.02-.42,1.51-.29.22.06.39.23.59.33.27.14.51.15.79.22,0,0,.79.18,1.07.52,0,0,.15,0,0-.37s-.73-.82-.95-.85c-.21-.03-.55-1.1-1.74-.98-1.19.12-.52.85-2.23.79,0,0-1.41.37-1.86,2.02h0Z" fill="none" stroke="#fff" stroke-miterlimit="10" stroke-width=".25"/>
      <path d="M133.62,37.8s.88.7,1.34,1.07c0,0,.64.61.49,1.25s1.07,1.98,2.02,2.41.64,2.9,2.66,4.18c0,0,.24.15.37-.18,0,0-.03-.95-.43-1.43-.4-.49-.85-2.29-1.4-3.05-.55-.76-1.77-4.43-5.04-4.24h-.01Z" fill="none" stroke="#fff" stroke-miterlimit="10" stroke-width=".25"/>
      <path d="M140.88,46.56c.02-.26.3-.64.39-.9.11-.34.19-.7.25-1.05.07-.42.19-.86,0-1.26-.22-.45-.52-.83-.64-1.34-.15-.67-1.62-2.02-2.11-3.69-.07-.25-.51-.52-.71-.64-.35-.2-.74-.26-1.13-.16-.17.04-.41.22-.57.23-.27,0-.33-.34-.61-.39-.4-.06-.79-.31-1.16-.09.38.23.76.45,1.17.63.07.03,1.06.34,1.06.29,0,0,.03.49.31.7,0,0,1.59,1.62,2.05,2.9.37.94.74,1.87,1.16,2.78.16.34.4.59.46.97.05.33.11.68.09,1.01h0Z" fill="none" stroke="#fff" stroke-miterlimit="10" stroke-width=".25"/>
      <path d="M141.31,35.72s1.22,1.25.64,2.14c-.33.51-.22,1.34-.23,1.92,0,.43.1,1.34-.36,1.59-.62.33-.71-.56-.67-.92.08-.62.11-1.29.04-1.92,0,0,.03-.49.27-.73.24-.24-.03-1.65.3-2.08h0Z" fill="none" stroke="#fff" stroke-miterlimit="10" stroke-width=".25"/>
      <path d="M140.67,35.36s.21.64,0,.89c0,0,.09,1.01-.25,1.59-.33.58.12,1.43-.06,2.47l-.85-1.13s-.52-1.47-.24-1.92c.27-.46.76-1.5,1.4-1.89h0Z" fill="none" stroke="#fff" stroke-miterlimit="10" stroke-width=".25"/>
      <path d="M148.56,46.25c.05-.23-.43-.09-.51-.04-.3.19-.08.43.2.41,0,0,.23-.02.31-.37Z" fill="none" stroke="#fff" stroke-miterlimit="10" stroke-width=".25"/>
      <path d="M147.34,46.63c-.07-.22-.54-.27-.69-.15-.2.16-.09.51.14.58,0,0,.73.2.55-.43Z" fill="none" stroke="#fff" stroke-miterlimit="10" stroke-width=".25"/>
      <path d="M148.22,47.04s.35-.22.55.14c0,0,.16.53-.49.41,0,0-.3-.16-.06-.55Z" fill="none" stroke="#fff" stroke-miterlimit="10" stroke-width=".25"/>
      <path d="M148.57,48.23c-.15-.12-.49-.1-.54.1,0,0-.22.39.32.39.19,0,.36-.23.27-.42,0-.03-.03-.05-.06-.07h0Z" fill="none" stroke="#fff" stroke-miterlimit="10" stroke-width=".25"/>
      <path d="M147.49,47.44s-.1-.04-.18-.04c-.19.02-.7.18-.66.45,0,0,.1.35.63.16.24-.08.37-.45.21-.58h0Z" fill="none" stroke="#fff" stroke-miterlimit="10" stroke-width=".25"/>
      <path d="M147.5,48.45c-.19-.18-.66,0-.73.22,0,0-.16.51.33.53.28.01.61-.49.42-.72,0,0,0-.02-.02-.02h0Z" fill="none" stroke="#fff" stroke-miterlimit="10" stroke-width=".25"/>
      <path d="M148.23,49.29c.07-.08.18-.12.31-.1.38.06.43.89-.22.6-.23-.1-.22-.36-.09-.5Z" fill="none" stroke="#fff" stroke-miterlimit="10" stroke-width=".25"/>
      <path d="M147.57,49.85c.15-.26-.13-.48-.38-.39-.23.08-.48.49-.21.68,0,0,.2.39.59-.28h0Z" fill="none" stroke="#fff" stroke-miterlimit="10" stroke-width=".25"/>
      <path d="M147.22,50.71c.18-.11.59-.15.63.12.05.34-.35.61-.65.47,0,0-.47-.3.02-.59h0Z" fill="none" stroke="#fff" stroke-miterlimit="10" stroke-width=".25"/>
      <path d="M147.19,51.79s-.05.03-.06.05c-.15.23.02.59.29.63.33.04.48-.34.47-.62,0-.21-.52-.17-.71-.06h.01Z" fill="none" stroke="#fff" stroke-miterlimit="10" stroke-width=".25"/>
      <path d="M148.06,52.94s.12-.29-.27-.29c0,0-.88.27-.49.63,0,0,.47.43.75-.35h.01Z" fill="none" stroke="#fff" stroke-miterlimit="10" stroke-width=".25"/>
      <path d="M148.43,50.39h0c.14-.12.47,0,.49.19,0,0,.04.35-.43.31-.22-.02-.19-.38-.07-.5h0Z" fill="none" stroke="#fff" stroke-miterlimit="10" stroke-width=".25"/>
      <path d="M148.39,51.53c.14-.13.4-.16.42.09,0,0,.08.49-.3.51-.22.01-.24-.35-.19-.49,0-.04.04-.08.07-.11Z" fill="none" stroke="#fff" stroke-miterlimit="10" stroke-width=".25"/>
      <path d="M148.5,52.63l.06-.03c.1-.04.4-.03.38.15,0,0,.06.65-.39.65-.29,0-.29-.35-.21-.55.04-.1.07-.17.15-.22h.01Z" fill="none" stroke="#fff" stroke-miterlimit="10" stroke-width=".25"/>
      <line x1="141.05" y1="36.95" x2="142.34" y2="37.03" fill="none" stroke="#fff" stroke-miterlimit="10" stroke-width=".25"/>
      <line x1="136.15" y1="38.33" x2="135.11" y2="39.15" fill="none" stroke="#fff" stroke-miterlimit="10" stroke-width=".25"/>
      <line x1="136.72" y1="38.86" x2="135.4" y2="39.69" fill="none" stroke="#fff" stroke-miterlimit="10" stroke-width=".25"/>
      <line x1="135.72" y1="40.63" x2="137.31" y2="39.41" fill="none" stroke="#fff" stroke-miterlimit="10" stroke-width=".25"/>
      <path d="M137.55,39.78s-1.18.96-1.45,1.04" fill="none" stroke="#fff" stroke-miterlimit="10" stroke-width=".25"/>
      <line x1="137.86" y1="40.28" x2="136.13" y2="41.47" fill="none" stroke="#fff" stroke-miterlimit="10" stroke-width=".25"/>
      <line x1="138.29" y1="40.98" x2="136.56" y2="42.14" fill="none" stroke="#fff" stroke-miterlimit="10" stroke-width=".25"/>
      <line x1="138.57" y1="41.4" x2="137.13" y2="42.48" fill="none" stroke="#fff" stroke-miterlimit="10" stroke-width=".25"/>
      <line x1="138.73" y1="41.79" x2="137.55" y2="42.69" fill="none" stroke="#fff" stroke-miterlimit="10" stroke-width=".25"/>
      <line x1="136.45" y1="38.21" x2="137.07" y2="37.66" fill="none" stroke="#fff" stroke-miterlimit="10" stroke-width=".25"/>
      <line x1="136.76" y1="38.33" x2="138.04" y2="37.58" fill="none" stroke="#fff" stroke-miterlimit="10" stroke-width=".25"/>
      <line x1="139" y1="38.57" x2="137.59" y2="39.53" fill="none" stroke="#fff" stroke-miterlimit="10" stroke-width=".25"/>
      <line x1="137.88" y1="39.92" x2="139.22" y2="39.19" fill="none" stroke="#fff" stroke-miterlimit="10" stroke-width=".25"/>
      <line x1="139.53" y1="39.57" x2="138.27" y2="40.26" fill="none" stroke="#fff" stroke-miterlimit="10" stroke-width=".25"/>
      <line x1="138.78" y1="41.32" x2="140.04" y2="40.41" fill="none" stroke="#fff" stroke-miterlimit="10" stroke-width=".25"/>
      <line x1="140.44" y1="40.92" x2="139.02" y2="41.75" fill="none" stroke="#fff" stroke-miterlimit="10" stroke-width=".25"/>
      <line x1="139.1" y1="42.22" x2="140.26" y2="41.63" fill="none" stroke="#fff" stroke-miterlimit="10" stroke-width=".25"/>
      <line x1="141.14" y1="42.36" x2="139.65" y2="43.22" fill="none" stroke="#fff" stroke-miterlimit="10" stroke-width=".25"/>
      <line x1="141.28" y1="42.69" x2="139.85" y2="43.62" fill="none" stroke="#fff" stroke-miterlimit="10" stroke-width=".25"/>
      <line x1="139.93" y1="44.01" x2="141.12" y2="43.32" fill="none" stroke="#fff" stroke-miterlimit="10" stroke-width=".25"/>
      <line x1="139.24" y1="45.21" x2="140" y2="44.78" fill="none" stroke="#fff" stroke-miterlimit="10" stroke-width=".25"/>
      <line x1="140.36" y1="45.15" x2="139.59" y2="45.5" fill="none" stroke="#fff" stroke-miterlimit="10" stroke-width=".25"/>
      <line x1="138.39" y1="44.6" x2="139.63" y2="43.81" fill="none" stroke="#fff" stroke-miterlimit="10" stroke-width=".25"/>
      <line x1="139.47" y1="43.24" x2="138.27" y2="44.01" fill="none" stroke="#fff" stroke-miterlimit="10" stroke-width=".25"/>
      <line x1="138.02" y1="43.6" x2="139.3" y2="42.89" fill="none" stroke="#fff" stroke-miterlimit="10" stroke-width=".25"/>
      <line x1="139.34" y1="46.49" x2="139.22" y2="47.8" fill="none" stroke="#fff" stroke-miterlimit="10" stroke-width=".25"/>
      <line x1="139.47" y1="47.88" x2="139.57" y2="46.72" fill="none" stroke="#fff" stroke-miterlimit="10" stroke-width=".25"/>
      <line x1="139.39" y1="48.02" x2="139.28" y2="48.77" fill="none" stroke="#fff" stroke-miterlimit="10" stroke-width=".25"/>
      <line x1="139.51" y1="48.87" x2="139.59" y2="48.02" fill="none" stroke="#fff" stroke-miterlimit="10" stroke-width=".25"/>
      <line x1="138.22" y1="45.88" x2="137.98" y2="47.31" fill="none" stroke="#fff" stroke-miterlimit="10" stroke-width=".25"/>
      <line x1="138.22" y1="47.59" x2="138.31" y2="48.83" fill="none" stroke="#fff" stroke-miterlimit="10" stroke-width=".25"/>
      <line x1="137.72" y1="49.1" x2="137.84" y2="47.45" fill="none" stroke="#fff" stroke-miterlimit="10" stroke-width=".25"/>
      <line x1="136.98" y1="47.53" x2="137.25" y2="49.06" fill="none" stroke="#fff" stroke-miterlimit="10" stroke-width=".25"/>
      <line x1="136.25" y1="49.1" x2="135.72" y2="48.12" fill="none" stroke="#fff" stroke-miterlimit="10" stroke-width=".25"/>
      <line x1="135.19" y1="48.43" x2="135.86" y2="49.28" fill="none" stroke="#fff" stroke-miterlimit="10" stroke-width=".25"/>
      <line x1="135.21" y1="49.73" x2="134.7" y2="48.81" fill="none" stroke="#fff" stroke-miterlimit="10" stroke-width=".25"/>
      <line x1="134.87" y1="48.59" x2="134.97" y2="47.04" fill="none" stroke="#fff" stroke-miterlimit="10" stroke-width=".25"/>
      <line x1="135.58" y1="46.66" x2="135.42" y2="48.1" fill="none" stroke="#fff" stroke-miterlimit="10" stroke-width=".25"/>
      <line x1="135.23" y1="46.8" x2="135.17" y2="47.8" fill="none" stroke="#fff" stroke-miterlimit="10" stroke-width=".25"/>
      <line x1="136.09" y1="46.72" x2="136.03" y2="47.8" fill="none" stroke="#fff" stroke-miterlimit="10" stroke-width=".25"/>
      <line x1="137.65" y1="45.94" x2="137.43" y2="47.31" fill="none" stroke="#fff" stroke-miterlimit="10" stroke-width=".25"/>
      <line x1="137.07" y1="46.37" x2="137.02" y2="47.39" fill="none" stroke="#fff" stroke-miterlimit="10" stroke-width=".25"/>
      <line x1="139.67" y1="36.27" x2="140.83" y2="36.42" fill="none" stroke="#fff" stroke-miterlimit="10" stroke-width=".25"/>
      <line x1="140.81" y1="36.74" x2="139.37" y2="36.66" fill="none" stroke="#fff" stroke-miterlimit="10" stroke-width=".25"/>
      <line x1="140.69" y1="37.54" x2="139.14" y2="37.54" fill="none" stroke="#fff" stroke-miterlimit="10" stroke-width=".25"/>
      <line x1="140.49" y1="38.53" x2="139.2" y2="38.57" fill="none" stroke="#fff" stroke-miterlimit="10" stroke-width=".25"/>
      <line x1="140.44" y1="38.13" x2="139.06" y2="37.98" fill="none" stroke="#fff" stroke-miterlimit="10" stroke-width=".25"/>
      <line x1="141.77" y1="37.62" x2="140.95" y2="37.39" fill="none" stroke="#fff" stroke-miterlimit="10" stroke-width=".25"/>
      <line x1="141.99" y1="38.07" x2="140.93" y2="37.6" fill="none" stroke="#fff" stroke-miterlimit="10" stroke-width=".25"/>
      <line x1="141.46" y1="39.12" x2="140.61" y2="38.8" fill="none" stroke="#fff" stroke-miterlimit="10" stroke-width=".25"/>
      <line x1="141.42" y1="39.53" x2="140.63" y2="39.51" fill="none" stroke="#fff" stroke-miterlimit="10" stroke-width=".25"/>
      <line x1="141.3" y1="40.12" x2="140.59" y2="39.78" fill="none" stroke="#fff" stroke-miterlimit="10" stroke-width=".25"/>
      <path d="M125.58,23.3c3.34,0,4.57,4.75,4.58,4.76.67,6.18-1.52,8.83-5.01,10.91-3.82,2.28-6.07,5.16-6.09,5.19l-.13.17.15.16c5.2,5.26,18.28,9.39,29.8,9.39,3.1,0,6.03-.29,8.7-.85,13.75-2.91,19.6-8.07,19.65-8.12l.17-.15-.13-.18c-2.52-3.47-6.33-5.11-6.75-5.28-4.98-3.85-3.08-11.53-3.06-11.6.87-3.23,4.38-3.58,5.85-3.58h.19c-.44,1.86-.23,4.53-.13,5.48-.43-.08-.85-.12-1.26-.12-2.26,0-3.47,1.18-3.52,1.23l-.05.05-.02.07c-.04.17-.22,1.73,4.66,4.98,4.71,3.14,4.77,8.37,4.77,8.42l-.08,8.45c-.79.81-8.96,8.62-28.01,9.46-.87.04-1.75.06-2.61.06-17.47,0-27.39-7.96-28.39-8.8l-.08-9.25c-.08-5.55,5.03-9.2,5.4-9.46,3.45-1.33,5.01-4.38,5.07-4.51l.1-.21-.2-.12c-1.17-.69-2.43-1.04-3.75-1.04-.8,0-1.45.13-1.84.24.37-2.23,0-4.52-.12-5.19.75-.37,1.47-.56,2.14-.56h0M125.58,23.05c-.71,0-1.52.2-2.42.67,0,0,.65,3.01.08,5.7,0,0,.87-.36,2.16-.36,1.02,0,2.29.22,3.62,1.01,0,0-1.55,3.09-4.97,4.4,0,0-5.62,3.74-5.54,9.69l.08,9.36s9.97,8.93,28.64,8.93c.86,0,1.73-.02,2.62-.06,20.35-.9,28.25-9.61,28.25-9.61l.08-8.55s0-5.37-4.88-8.63c-4.89-3.26-4.56-4.72-4.56-4.72,0,0,1.16-1.16,3.34-1.16.47,0,.98.05,1.54.18,0,0-.49-3.83.16-6.03,0,0-.19-.02-.51-.02-1.38,0-5.16.32-6.09,3.76,0,0-2.03,7.9,3.18,11.89,0,0,4.07,1.63,6.68,5.21,0,0-5.7,5.13-19.54,8.06-2.75.58-5.68.85-8.65.85-11.97,0-24.66-4.29-29.62-9.31,0,0,2.2-2.85,6.02-5.13,3.83-2.28,5.78-5.13,5.13-11.15,0,0-1.25-4.98-4.83-4.98,0,0,.03,0,.03,0Z" fill="#fff" stroke-width="0"/>
      <path d="M124.36,23.47s.33,4.62.08,5.35" fill="none" stroke="#fff" stroke-miterlimit="10" stroke-width=".25"/>
      <line x1="125.14" y1="23.43" x2="125.2" y2="28.62" fill="none" stroke="#fff" stroke-miterlimit="10" stroke-width=".25"/>
      <line x1="125.83" y1="23.39" x2="125.87" y2="28.62" fill="none" stroke="#fff" stroke-miterlimit="10" stroke-width=".25"/>
      <line x1="126.64" y1="23.57" x2="126.58" y2="28.7" fill="none" stroke="#fff" stroke-miterlimit="10" stroke-width=".25"/>
      <line x1="127.52" y1="24.06" x2="127.44" y2="28.87" fill="none" stroke="#fff" stroke-miterlimit="10" stroke-width=".25"/>
      <line x1="128.27" y1="27.42" x2="128.23" y2="29.11" fill="none" stroke="#fff" stroke-miterlimit="10" stroke-width=".25"/>
      <line x1="129.27" y1="30.47" x2="129.43" y2="34.28" fill="none" stroke="#fff" stroke-miterlimit="10" stroke-width=".25"/>
      <line x1="128.66" y1="31.35" x2="128.84" y2="35.42" fill="none" stroke="#fff" stroke-miterlimit="10" stroke-width=".25"/>
      <line x1="127.84" y1="32.35" x2="128.09" y2="36.5" fill="none" stroke="#fff" stroke-miterlimit="10" stroke-width=".25"/>
      <line x1="127.29" y1="37.25" x2="127.03" y2="33.06" fill="none" stroke="#fff" stroke-miterlimit="10" stroke-width=".25"/>
      <line x1="123.39" y1="37.56" x2="123.45" y2="39.84" fill="none" stroke="#fff" stroke-miterlimit="10" stroke-width=".25"/>
      <line x1="122.57" y1="40.61" x2="122.25" y2="36.52" fill="none" stroke="#fff" stroke-miterlimit="10" stroke-width=".25"/>
      <line x1="121.35" y1="37.48" x2="121.64" y2="41.32" fill="none" stroke="#fff" stroke-miterlimit="10" stroke-width=".25"/>
      <line x1="120.72" y1="42.2" x2="120.52" y2="38.62" fill="none" stroke="#fff" stroke-miterlimit="10" stroke-width=".25"/>
      <line x1="119.85" y1="39.86" x2="119.99" y2="42.85" fill="none" stroke="#fff" stroke-miterlimit="10" stroke-width=".25"/>
      <line x1="119.15" y1="41.85" x2="119.34" y2="43.66" fill="none" stroke="#fff" stroke-miterlimit="10" stroke-width=".25"/>
      <line x1="177.53" y1="42.2" x2="177.39" y2="44.66" fill="none" stroke="#fff" stroke-miterlimit="10" stroke-width=".25"/>
      <line x1="176.73" y1="43.68" x2="176.92" y2="40.51" fill="none" stroke="#fff" stroke-miterlimit="10" stroke-width=".25"/>
      <line x1="176.2" y1="39.11" x2="176.04" y2="42.93" fill="none" stroke="#fff" stroke-miterlimit="10" stroke-width=".25"/>
      <line x1="175.43" y1="37.96" x2="175.19" y2="42.1" fill="none" stroke="#fff" stroke-miterlimit="10" stroke-width=".25"/>
      <line x1="174.41" y1="36.97" x2="174.25" y2="41.32" fill="none" stroke="#fff" stroke-miterlimit="10" stroke-width=".25"/>
      <line x1="173.36" y1="38.76" x2="173.28" y2="40.69" fill="none" stroke="#fff" stroke-miterlimit="10" stroke-width=".25"/>
      <line x1="170.34" y1="35.68" x2="170.22" y2="38.88" fill="none" stroke="#fff" stroke-miterlimit="10" stroke-width=".25"/>
      <line x1="169.55" y1="32.9" x2="169.47" y2="38.03" fill="none" stroke="#fff" stroke-miterlimit="10" stroke-width=".25"/>
      <line x1="168.9" y1="32.29" x2="168.71" y2="37.25" fill="none" stroke="#fff" stroke-miterlimit="10" stroke-width=".25"/>
      <line x1="168.19" y1="30.66" x2="167.92" y2="35.44" fill="none" stroke="#fff" stroke-miterlimit="10" stroke-width=".25"/>
      <line x1="169.2" y1="25.24" x2="169.29" y2="29.98" fill="none" stroke="#fff" stroke-miterlimit="10" stroke-width=".25"/>
      <line x1="170.34" y1="29.44" x2="170.2" y2="24.61" fill="none" stroke="#fff" stroke-miterlimit="10" stroke-width=".25"/>
      <line x1="171.18" y1="24.41" x2="171.2" y2="29.42" fill="none" stroke="#fff" stroke-miterlimit="10" stroke-width=".25"/>
      <line x1="171.95" y1="29.4" x2="171.97" y2="24.25" fill="none" stroke="#fff" stroke-miterlimit="10" stroke-width=".25"/>
      <line x1="172.73" y1="24.16" x2="172.66" y2="29.37" fill="none" stroke="#fff" stroke-miterlimit="10" stroke-width=".25"/>
      <path d="M168.6,30.78s-1.35-1.4-.98-3.4" fill="none" stroke="#fff" stroke-miterlimit="10" stroke-width=".25"/>
      <path d="M129.98,27.81s-.16,1.42-.63,2.12" fill="none" stroke="#fff" stroke-miterlimit="10" stroke-width=".25"/>
      <path d="M147.93,4.5c19.46,0,35.29,20.1,35.29,44.82s-15.83,44.81-35.29,44.81-35.29-20.1-35.29-44.81,15.83-44.82,35.29-44.82M147.93,4.25c-19.62,0-35.54,20.18-35.54,45.07s15.92,45.06,35.54,45.06,35.54-20.17,35.54-45.06-15.92-45.07-35.54-45.07h0Z" fill="#fff" stroke-width="0"/>
      <path d="M147.93,2.48c20.33,0,36.88,21.01,36.88,46.83s-16.54,46.83-36.88,46.83-36.88-21.01-36.88-46.83S127.59,2.48,147.93,2.48M147.93,2.23c-20.5,0-37.13,21.08-37.13,47.08s16.63,47.08,37.13,47.08,37.13-21.08,37.13-47.08S168.43,2.23,147.93,2.23h0Z" fill="#fff" stroke-width="0"/>
      <path d="M177.3,44.85s.43-.15.61-1.4" fill="none" stroke="#fff" stroke-miterlimit="10" stroke-width=".25"/>
      <g>
        <path d="M160.93,21.97v.18c0,.59.17.97.84.97.39,0,.76-.25.76-.77,0-.57-.29-.78-1.12-1.07-1.13-.39-1.65-.85-1.65-1.9,0-1.22.75-1.85,1.94-1.85s1.95.48,1.95,1.69v.18h-1.21c0-.59-.2-.93-.69-.93-.57,0-.72.36-.72.73s.11.62.65.85l.98.42c.95.41,1.2.9,1.2,1.66,0,1.33-.81,1.92-2.18,1.92s-2-.67-2-1.83v-.25h1.27-.02,0Z" fill="none" stroke="#fff" stroke-miterlimit="10" stroke-width=".25"/>
        <path d="M168.15,17.65v1.04h-1.37v5.24h-1.27v-5.24h-1.37v-1.04s4.01,0,4.01,0Z" fill="none" stroke="#fff" stroke-miterlimit="10" stroke-width=".25"/>
      </g>
      <g>
        <path d="M122.69,48.83l2.17,1.2-.25.46-1.65-.91-.73,1.32,1.56.86-.25.46-1.56-.86-1.08,1.97-.52-.29,2.31-4.2h0Z" fill="none" stroke="#fff" stroke-miterlimit="10" stroke-width=".25"/>
        <path d="M125.14,50.14l.53.26-2.14,4.29-.53-.26,2.14-4.29Z" fill="none" stroke="#fff" stroke-miterlimit="10" stroke-width=".25"/>
        <path d="M126.19,50.67l1.42.64c.69.31.94.91.63,1.6-.22.48-.61.91-1.17.8h0c.36.23.43.63.29,1.02l-.3.76c-.19.5-.17.65-.08.79l-.65-.29c-.05-.13.05-.48.13-.7l.27-.7c.23-.62-.09-.8-.36-.93l-.73-.33-.87,1.95-.54-.24,1.96-4.38h0ZM125.84,52.9l.53.24c.32.14.9.4,1.28-.44.19-.43.02-.83-.48-1.05l-.64-.29s-.69,1.54-.69,1.54Z" fill="none" stroke="#fff" stroke-miterlimit="10" stroke-width=".25"/>
        <path d="M130.59,53.86c.18-.47.13-.86-.39-1.06-.46-.18-.84-.03-1.02.44-.48,1.26,1.92,1.32,1.29,2.95-.4,1.04-1.27,1.04-1.9.8-1.05-.4-1.15-1.06-.78-2.01l.55.21c-.19.5-.37,1.05.44,1.36.44.17.9-.02,1.08-.49.48-1.27-1.91-1.34-1.28-2.99.16-.41.65-1.17,1.78-.73.85.33,1.08.9.78,1.73,0,0-.55-.21-.55-.21Z" fill="none" stroke="#fff" stroke-miterlimit="10" stroke-width=".25"/>
        <path d="M131.95,58.07l-.56-.18,1.3-4.07-1.14-.37.16-.5,2.86.91-.16.5-1.15-.37-1.3,4.07h-.01Z" fill="none" stroke="#fff" stroke-miterlimit="10" stroke-width=".25"/>
        <path d="M137.86,55.95c.11-.49,0-.87-.54-1-.49-.11-.83.09-.95.59-.29,1.32,2.09,1.02,1.71,2.74-.24,1.08-1.1,1.21-1.77,1.06-1.09-.25-1.29-.88-1.07-1.88l.58.13c-.12.53-.21,1.1.63,1.29.46.1.89-.14,1-.64.3-1.32-2.08-1.05-1.7-2.77.1-.43.47-1.25,1.66-.99.89.2,1.2.74,1.02,1.6l-.57-.13h0Z" fill="none" stroke="#fff" stroke-miterlimit="10" stroke-width=".25"/>
        <path d="M139.11,54.95l1.21.19c.41.06,1.47.23,1.26,1.59-.14.88-.78,1.29-1.58,1.16l-.72-.11-.31,2-.58-.09.73-4.74h0ZM139.34,57.29l.7.11c.43.07.83-.17.93-.8.08-.52-.11-.89-.69-.98l-.66-.1-.27,1.78h0Z" fill="none" stroke="#fff" stroke-miterlimit="10" stroke-width=".25"/>
        <path d="M142.07,55.37l.59.06-.5,4.77-.59-.06.5-4.77Z" fill="none" stroke="#fff" stroke-miterlimit="10" stroke-width=".25"/>
        <path d="M145.94,58.78c-.1.9-.49,1.72-1.54,1.67-1.36-.06-1.48-1.35-1.43-2.56.06-1.21.34-2.48,1.66-2.42.98.05,1.36.62,1.35,1.56l-.62-.03c0-.54-.14-1.01-.75-1.04-.82-.04-.97.86-1.02,1.96-.05,1.11,0,2.01.83,2.05.72.03.85-.63.9-1.22l.62.03h0Z" fill="none" stroke="#fff" stroke-miterlimit="10" stroke-width=".25"/>
        <path d="M146.3,55.61l2.48-.06v.52l-1.87.04.04,1.5,1.78-.04v.52l-1.77.04.04,1.72,1.97-.05v.52l-2.54.06-.12-4.79v.02h0Z" fill="none" stroke="#fff" stroke-miterlimit="10" stroke-width=".25"/>
        <path d="M150.66,55.46l.99-.1,1.35,3.68h0l.57-3.88.99-.1.49,4.77-.59.06-.43-4.17h0l-.62,4.28-.59.06-1.49-4.06h0l.43,4.17-.59.06-.49-4.77h-.02Z" fill="none" stroke="#fff" stroke-miterlimit="10" stroke-width=".25"/>
        <path d="M155.14,54.95l.58-.09.7,4.74-.58.08-.7-4.74h0Z" fill="none" stroke="#fff" stroke-miterlimit="10" stroke-width=".25"/>
        <path d="M156.06,54.83l.65-.12,1.18,1.61.54-1.92.61-.11-.76,2.53,1.69,2.17-.65.12-1.28-1.72-.62,2.06-.61.11.82-2.63-1.58-2.11h0Z" fill="none" stroke="#fff" stroke-miterlimit="10" stroke-width=".25"/>
        <path d="M159.35,54.2l.58-.12,1.01,4.69-.58.12-1.01-4.69Z" fill="none" stroke="#fff" stroke-miterlimit="10" stroke-width=".25"/>
        <path d="M160.51,53.96l.74-.19,2.54,3.48h0l-1-3.88.57-.15,1.2,4.64-.79.2-2.46-3.37h0l.97,3.76-.57.15-1.2-4.64Z" fill="none" stroke="#fff" stroke-miterlimit="10" stroke-width=".25"/>
        <path d="M166.4,53.65c-.18-.47-.5-.83-1.05-.65-.78.26-.6,1.14-.26,2.2.34,1.05.73,1.88,1.5,1.62.78-.26.53-1.21.33-1.81l-.9.29-.15-.46,1.41-.46.78,2.37-.42.14-.2-.62h0c0,.43-.25.87-.75,1.03-1.19.39-1.77-.69-2.17-1.91-.38-1.15-.57-2.44.69-2.85,1.31-.43,1.71.68,1.79.91l-.59.19h-.01Z" fill="none" stroke="#fff" stroke-miterlimit="10" stroke-width=".25"/>
        <path d="M172.21,53.18c.33.85.36,1.75-.59,2.19-1.24.57-1.94-.51-2.45-1.61s-.84-2.35.35-2.91c.89-.41,1.49-.09,1.91.75l-.56.26c-.24-.49-.59-.83-1.15-.58-.74.35-.46,1.21,0,2.21.47,1,.94,1.78,1.69,1.43.65-.3.46-.95.23-1.49l.56-.26h0Z" fill="none" stroke="#fff" stroke-miterlimit="10" stroke-width=".25"/>
        <path d="M174.63,50.77c.66,1.02,1.17,2.21.06,2.93s-2-.24-2.65-1.25c-.66-1.02-1.17-2.21-.06-2.93s1.99.24,2.65,1.25ZM172.56,52.11c.6.93,1.18,1.63,1.87,1.18.69-.44.29-1.26-.31-2.19-.6-.93-1.18-1.63-1.87-1.18-.69.44-.29,1.26.31,2.19Z" fill="none" stroke="#fff" stroke-miterlimit="10" stroke-width=".25"/>
        <path d="M176.01,51.69l.44-.44.5.5-.44.44-.5-.5Z" fill="none" stroke="#fff" stroke-miterlimit="10" stroke-width=".25"/>
      </g>
    </g>
    <g>
      <path d="M29.31,26.69c.23,3.68.34,8.76-.23,12.39-3.2-.09-6.82-.87-9.36-.17,0,.34-.01.67-.02,1.01.34.95,1.82.52,2.77.56,2.37.09,5.43-.25,6.83.13.45,2.96-.01,6.8.33,9.87-3.3.42-6.99.08-9.87.33-.19,4.38-.2,12.51-.08,18.21-.1,1.1,2.67.73,1.74,1.8-.72,1.38-3.35.62-5.32.66-3.67.07-8.16.51-11.13-.2-.38-1.51.83-1.37,1.05-2.26.15-14.78.09-28.66,0-41.73,5.77-.96,12.76-.23,19.23-.41,1.39-.04,2.72-.43,4.05-.18h0Z" fill="#fff" fill-rule="evenodd" stroke-width="0"/>
      <path d="M41.93,27.93c1.89,2.39.59,6.11-2.16,7.3-4.82,2.08-12.4-3.35-7.46-7.22,2.3-1.8,6.86-1.37,9.61-.08h0Z" fill="#fff" fill-rule="evenodd" stroke-width="0"/>
      <path d="M118.86,26.3c-.2,4.06.13,9.43-.2,10.87-1.42-.22-3.06.05-5.06-.09-.61,3.11,0,6.43-.42,9.1.31,1.35,1.56,1.81,1.45,3.57-4.34.17-9.75.51-13.91,0-.24-1.62,1.12-1.59,1.31-2.76.26-3.48-.2-6.26-.08-9.61-2.16-.21-3.51-.19-5.56-.1-.44-3.09-.07-7.89-.06-10.63,7.2-.43,14.99-.25,22.52-.35h0Z" fill="#fff" fill-rule="evenodd" stroke-width="0"/>
      <path d="M94.81,27.12c-.05,2.95.33,5.48.1,8.6-3.2.83-8.26-1.2-10.89.56.86.96,2.46.58,3.53.57,4.22-.02,8.47-.23,8.77,4.46.5,7.64-8.77,10.11-16.35,9.06-1.98-.27-4.11-1.17-5.01-2.62.14-2.38-.06-4.87.12-6.57,2.9-.06,7.99.99,10.88-.31-2-1.9-5.85-.08-8.34-.66-3.61-.84-3.62-6.11-1.6-9.14,3-4.5,11.64-4.79,18.79-3.96h0Z" fill="#fff" fill-rule="evenodd" stroke-width="0"/>
      <path d="M67.73,41.8c1.14,2.32,2.69,4.6,4.69,6.16.76.59,2.28.54,2.5,1.82-4.15.87-8.44.32-12.91.52-2.38-1.34-2.75-4.64-5.46-5.67-.62.54-.41,1.87-.05,2.78.43,1.11,2.08,1.45,1.48,2.3-1.22,1.4-4.24.58-6.59.64-4.41.11-10.74.25-16.19.21-1.64-.01-3.5.33-4.8-.34-.6-.81.85-1.22.8-2.26-.13-4.56.12-7.26-.03-12.14,1.31-.41,2.21.85,3.77,1.08,2.81.42,5.35-.81,7.61-1.38.71,4.45-.64,10.12.77,13.42,1.99-.05,1.34-2.59,1.34-4.02,0-4.37-.12-9.36,0-14.17,3.96-1.88,11.4-4.34,18.03-3.72,4.86.46,11.02,3.21,10.47,8.54-.34,3.28-3.26,4.3-5.42,6.22h-.01ZM55.92,37.8c1.27,1.21,5.65,1.69,6.83.12.11-.61-.45-.56-.23-1.27-1.66-.71-6.37-1.23-6.6,1.14h0Z" fill="#fff" fill-rule="evenodd" stroke-width="0"/>
    </g>
    <g>
      <path d="M248.19,26.25c3.56,0,6.32,1.5,6.24,4.67-.08,3.04-3.08,4.68-6.16,4.69-2.77,0-6.59-1.28-7.01-3.92-.69-4.3,3.25-5.43,6.93-5.44Z" fill="#fff" fill-rule="evenodd" stroke-width="0"/>
      <path d="M253.09,35.19c.29-.04.45.06.5.26-.27,4.07.22,7.41.05,11.38.16.76,1.69.2,1.75,1.04,0,.67-.02,1.35-.04,2.02-5.06-.09-9.69.25-14.92-.02-.43-.58-.09-1.9-.46-2.54,1,0,1.48-.53,2.29-.72.16-4.59-.22-6.55-.05-11.38,1.37-.19,2.32,1.5,4.01,1.84,2.66.54,5.91.08,6.86-1.9v.02h.01Z" fill="#fff" fill-rule="evenodd" stroke-width="0"/>
      <path d="M200.52,32.71c-2.49.25-4.37,1.14-5.61,2.68,2.88,2.1,7.88,3.35,11.79,5.27,2.79,1.37,4.86,2.56,4.43,6.91,2.17-.49,1.14-3.26,1.1-4.79-.11-3.99.08-8.51-.03-12.39,6.84-4.45,21.94-7.28,27.06.24,5.81,8.52-4.54,18.6-15.95,14.63-1.07,3.15,2.92,1.73,1.69,4.33-.64.96-2.53.4-4.06.43-3.04.07-6.21.31-9.87.07-1.04,1.46-1.86,4.34-3.65,6-3.73,3.46-13.8,6.22-19.83,5.46-3.61-.46-6.2-1.97-7.5-4.69-.51-1.07-1.73-2.78-.93-4.57.84-.89,2.85-.94,4.32-1.19,4.21-.7,9.7-1,13.45-2.54-1.43-1.8-4.54-1.9-7.03-2.91-.5-.2-1.02-.84-1.5-1.04-1.62-.68-3.56-.98-5.02-2.11-2.11-3.21-3.01-9.98-1.03-13.17,1.3-2.09,6.87-4.7,9.72-6.15,4.11-2.09,7.59-4.15,11.21-4.35,3.99-.22,5.58,2.59,6.98,5.44,1.57,3.18,1.76,6.02-.41,8.59-1.17,1.38-4.23,4.02-5.38,3.95-2.25-.13-2-3.19-3.97-4.12l.02.02h0ZM222.71,36.66c.88,1.81,8.04,2.32,8.6-.09-.41-1.82-8.75-2.26-8.6.09Z" fill="#fff" fill-rule="evenodd" stroke-width="0"/>
      <path d="M275.21,30.67c-.25,2.53.08,5.08-.33,7.35-3.03-.75-5.72-1.76-9.02-.67-1.01,1.73-1.09,2.94-.33,4.01,1.99,2.82,8.61-.11,11.02-.67-1.1,2.13-.14,4.49-1,6.35-1.12,2.4-5.51,3.71-8.35,3.67-5.38-.08-10.96-4.23-11.69-9.35-1.42-10.04,10.31-17.35,19.71-10.69,0,0-.01,0-.01,0Z" fill="#fff" fill-rule="evenodd" stroke-width="0"/>
      <path d="M297.98,30.01c-.09,2.85-.19,5.67-.24,7.93-2.46.83-7.08-.5-9.14.72.63,1.43,3.42.78,5.53.96,2.3.2,5.43-.7,6.97.72-.49,2.05-3.46,1.17-5.05,1.2-2.76.06-5.45-.16-7.45.48,1.01,1.75,4.47.87,6.49.96,1.45.07,2.88.26,4.09.48-.26,1.23-1.51,1.05-1.92,2.4-.38,1.26.27,2.82,0,4.57-4.06.59-8.54.14-12.74,0-2.8-.09-5.89.59-7.93-.48-.28-1.48,1.14-1.27,1.92-1.68.4-5.44.46-12.7.48-18.51-.04-.2.09-.23.24-.24,5.87-.42,13.15-.17,18.75.48h0Z" fill="#fff" fill-rule="evenodd" stroke-width="0"/>
    </g>
  </g>
</svg>